<svg width="221" height="25" viewBox="0 0 221 25" fill="none" xmlns="http://www.w3.org/2000/svg">
<mask id="path-1-outside-1_1_399" maskUnits="userSpaceOnUse" x="-1" y="-1" width="223" height="27" fill="black">
<rect fill="white" x="-1" y="-1" width="223" height="27"/>
<path d="M14.36 24.32C9.53867 24.32 5.98667 23.296 3.704 21.248C1.42133 19.2 0.28 16.2773 0.28 12.48C0.28 8.66133 1.42133 5.64267 3.704 3.424C5.98667 1.20533 9.53867 0.0959988 14.36 0.0959988C21.1013 0.0959988 25.6133 2.41067 27.896 7.04C25.976 7.70133 23.7253 8.69333 21.144 10.016C20.5253 8.82133 19.544 7.936 18.2 7.36C16.8773 6.784 15.5227 6.496 14.136 6.496C12.088 6.496 10.5627 7.04 9.56 8.128C8.55733 9.19467 8.056 10.5173 8.056 12.096C8.056 13.8027 8.58933 15.2 9.656 16.288C10.744 17.3547 12.3973 17.888 14.616 17.888C16.3867 17.888 17.7947 17.6 18.84 17.024C19.8853 16.4267 20.6533 15.488 21.144 14.208C22.8933 15.1467 25.1333 16.2027 27.864 17.376C26.7973 19.9573 25.016 21.76 22.52 22.784C20.024 23.808 17.304 24.32 14.36 24.32ZM44.2915 24.32C40.6435 24.32 37.9555 23.488 36.2275 21.824C34.5208 20.1387 33.6675 17.9307 33.6675 15.2C33.6675 12.5333 34.5208 10.368 36.2275 8.704C37.9555 7.04 40.6435 6.208 44.2915 6.208C46.7448 6.208 48.7928 6.61333 50.4355 7.424C52.0995 8.21333 53.3262 9.29067 54.1155 10.656C54.9048 12 55.2995 13.5147 55.2995 15.2C55.2995 17.952 54.3822 20.16 52.5475 21.824C50.7342 23.488 47.9822 24.32 44.2915 24.32ZM44.4195 18.88C45.8062 18.88 46.8408 18.5493 47.5235 17.888C48.2062 17.2267 48.5475 16.3413 48.5475 15.232C48.5475 14.1867 48.2062 13.3333 47.5235 12.672C46.8408 11.9893 45.8062 11.648 44.4195 11.648C43.0328 11.648 42.0195 11.9787 41.3795 12.64C40.7395 13.3013 40.4195 14.1653 40.4195 15.232C40.4195 16.3413 40.7395 17.2267 41.3795 17.888C42.0195 18.5493 43.0328 18.88 44.4195 18.88ZM73.55 24C73.678 20.864 73.742 17.9733 73.742 15.328C73.742 14.3893 73.5073 13.6427 73.038 13.088C72.59 12.5333 72.014 12.256 71.31 12.256C70.606 12.256 70.0087 12.576 69.518 13.216C69.0273 13.8347 68.7393 14.688 68.654 15.776C68.6113 17.3973 68.59 18.5493 68.59 19.232C68.59 20.6827 68.6327 22.272 68.718 24H61.07C61.2407 20.928 61.326 18.0267 61.326 15.296C61.326 12.5653 61.2407 9.64267 61.07 6.528C62.478 6.592 63.5553 6.624 64.302 6.624C65.0913 6.624 66.1687 6.592 67.534 6.528L68.462 11.232C68.9527 9.52533 69.7207 8.26667 70.766 7.456C71.8113 6.624 73.0273 6.208 74.414 6.208C75.694 6.208 76.8033 6.496 77.742 7.072C78.6807 7.62667 79.3847 8.384 79.854 9.344C80.3447 10.304 80.59 11.3813 80.59 12.576V17.184C80.59 20.0213 80.6433 22.2933 80.75 24H73.55ZM97.176 24.32C95.384 24.32 93.56 24.0747 91.704 23.584C89.8693 23.072 88.1413 22.304 86.52 21.28L89.88 16.704C90.8613 17.408 92.0453 17.9627 93.432 18.368C94.8187 18.752 96.0133 18.944 97.016 18.944C97.976 18.944 98.712 18.816 99.224 18.56C99.7573 18.2827 100.024 17.9307 100.024 17.504C100.024 17.1627 99.896 16.896 99.64 16.704C99.384 16.512 99.032 16.416 98.584 16.416C98.3067 16.416 97.9867 16.4267 97.624 16.448C97.2827 16.4693 97.0053 16.4907 96.792 16.512C95.6827 16.64 94.5413 16.704 93.368 16.704C91.4693 16.704 89.9227 16.352 88.728 15.648C87.5547 14.9227 86.968 13.7493 86.968 12.128C86.968 10.2507 87.8533 8.8 89.624 7.776C91.3947 6.73067 93.9973 6.208 97.432 6.208C99.1173 6.208 100.813 6.45333 102.52 6.944C104.248 7.41333 105.773 8.128 107.096 9.088L103.416 12.8C102.2 12.16 101.059 11.712 99.992 11.456C98.9467 11.1787 97.8907 11.04 96.824 11.04C96.0773 11.04 95.4373 11.1893 94.904 11.488C94.3707 11.7867 94.104 12.128 94.104 12.512C94.104 12.8107 94.2107 13.0453 94.424 13.216C94.6587 13.3867 94.9573 13.472 95.32 13.472C95.6827 13.472 96.184 13.44 96.824 13.376C98.3813 13.2693 99.544 13.216 100.312 13.216C102.531 13.216 104.248 13.5893 105.464 14.336C106.68 15.0827 107.288 16.224 107.288 17.76C107.288 20.064 106.392 21.7387 104.6 22.784C102.808 23.808 100.333 24.32 97.176 24.32ZM132.728 6.528C132.578 9.216 132.504 12.1173 132.504 15.232C132.504 18.368 132.578 21.2907 132.728 24C131.362 23.936 130.285 23.904 129.496 23.904C128.749 23.904 127.672 23.936 126.264 24L125.336 19.296C124.845 21.0027 124.077 22.272 123.032 23.104C121.986 23.9147 120.77 24.32 119.384 24.32C118.104 24.32 116.994 24.0427 116.056 23.488C115.117 22.912 114.402 22.144 113.912 21.184C113.442 20.224 113.208 19.1467 113.208 17.952V13.344C113.208 10.5067 113.154 8.23467 113.048 6.528H120.248C120.12 9.664 120.056 12.768 120.056 15.84C120.056 16.7787 120.28 17.5253 120.728 18.08C121.197 18.6347 121.784 18.912 122.488 18.912C123.149 18.912 123.725 18.624 124.216 18.048C124.728 17.4507 125.037 16.64 125.144 15.616V14.88C125.186 13.216 125.208 12.064 125.208 11.424C125.208 9.952 125.165 8.32 125.08 6.528H132.728ZM163.618 24C163.788 21.2053 163.874 18.3147 163.874 15.328C163.874 14.368 163.628 13.6213 163.138 13.088C162.668 12.5333 162.039 12.256 161.25 12.256C160.524 12.256 159.895 12.576 159.362 13.216C158.85 13.856 158.594 14.784 158.594 16V15.968C158.594 19.744 158.647 22.4213 158.754 24H151.554C151.682 20.864 151.746 17.9733 151.746 15.328C151.746 14.3893 151.511 13.6427 151.042 13.088C150.594 12.5333 150.018 12.256 149.314 12.256C148.567 12.256 147.938 12.576 147.426 13.216C146.935 13.8347 146.647 14.688 146.562 15.776C146.519 17.3973 146.498 18.5493 146.498 19.232C146.498 20.6827 146.54 22.272 146.626 24H138.978C139.148 20.928 139.234 18.0267 139.234 15.296C139.234 12.5653 139.148 9.64267 138.978 6.528C140.386 6.592 141.463 6.624 142.21 6.624C142.999 6.624 144.076 6.592 145.442 6.528L146.402 11.264C146.892 9.536 147.671 8.26667 148.738 7.456C149.804 6.624 151.031 6.208 152.418 6.208C154.082 6.208 155.436 6.66667 156.482 7.584C157.548 8.50133 158.21 9.696 158.466 11.168C158.956 9.65333 159.778 8.448 160.93 7.552C162.082 6.656 163.394 6.208 164.866 6.208C166.786 6.208 168.29 6.85867 169.378 8.16C170.466 9.44 171.01 11.2 171.01 13.44V18.752C171.01 21.1627 171.031 22.912 171.074 24H163.618ZM194.39 16H183.958C184.129 16.9387 184.545 17.7067 185.206 18.304C185.889 18.88 186.849 19.168 188.086 19.168C188.982 19.168 189.825 18.9973 190.614 18.656C191.404 18.2933 192.033 17.792 192.502 17.152C193.932 17.856 195.83 18.6133 198.198 19.424C197.537 20.9173 196.332 22.112 194.582 23.008C192.854 23.8827 190.593 24.32 187.798 24.32C184.172 24.32 181.484 23.488 179.734 21.824C178.006 20.1387 177.142 17.9307 177.142 15.2C177.142 12.5333 178.006 10.368 179.734 8.704C181.462 7.04 184.15 6.208 187.798 6.208C189.974 6.208 191.862 6.57067 193.462 7.296C195.062 8.02133 196.289 9.03467 197.142 10.336C197.996 11.616 198.422 13.088 198.422 14.752C198.422 15.3067 198.401 15.7227 198.358 16H194.39ZM188.246 11.04C187.18 11.04 186.305 11.2427 185.622 11.648C184.94 12.0533 184.46 12.608 184.182 13.312H191.734C191.478 12.6293 191.062 12.0853 190.486 11.68C189.91 11.2533 189.164 11.04 188.246 11.04ZM211.594 11.264C212.49 8.04267 214.719 6.432 218.282 6.432C218.901 6.432 219.498 6.47467 220.074 6.56L219.05 13.728C217.514 13.152 216.255 12.864 215.274 12.864C214.058 12.864 213.162 13.2267 212.586 13.952C212.01 14.6773 211.722 15.648 211.722 16.864V16.832L211.69 18.944C211.69 20.4587 211.733 22.144 211.818 24H204.17C204.341 20.928 204.426 18.0267 204.426 15.296C204.426 12.5653 204.341 9.64267 204.17 6.528C205.578 6.592 206.655 6.624 207.402 6.624C208.191 6.624 209.269 6.592 210.634 6.528L211.594 11.264Z"/>
</mask>
<path d="M3.704 21.248L3.03619 21.9923L3.704 21.248ZM3.704 3.424L4.40098 4.14109H4.40098L3.704 3.424ZM27.896 7.04L28.2217 7.98548L29.2949 7.61582L28.7929 6.59775L27.896 7.04ZM21.144 10.016L20.256 10.4759L20.7139 11.36L21.6 10.906L21.144 10.016ZM18.2 7.36L17.8007 8.27685L17.8061 8.27914L18.2 7.36ZM9.56 8.128L10.2887 8.81294L10.2954 8.80568L9.56 8.128ZM9.656 16.288L8.94193 16.9881L8.94886 16.9951L8.95593 17.0021L9.656 16.288ZM18.84 17.024L19.3226 17.8998L19.3294 17.8961L19.3361 17.8922L18.84 17.024ZM21.144 14.208L21.6168 13.3268L20.6166 12.7901L20.2103 13.8501L21.144 14.208ZM27.864 17.376L28.7882 17.7579L29.1648 16.8465L28.2588 16.4572L27.864 17.376ZM22.52 22.784L22.1404 21.8588L22.52 22.784ZM14.36 23.32C9.65058 23.32 6.39083 22.3151 4.37181 20.5037L3.03619 21.9923C5.5825 24.2769 9.42675 25.32 14.36 25.32V23.32ZM4.37181 20.5037C2.34938 18.6891 1.28 16.0663 1.28 12.48H-0.72C-0.72 16.4884 0.493288 19.7108 3.03619 21.9923L4.37181 20.5037ZM1.28 12.48C1.28 8.8735 2.35001 6.13456 4.40098 4.14109L3.00702 2.70691C0.492661 5.15077 -0.72 8.44917 -0.72 12.48H1.28ZM4.40098 4.14109C6.4203 2.17839 9.66767 1.096 14.36 1.096V-0.904001C9.40966 -0.904001 5.55303 0.232279 3.00702 2.70691L4.40098 4.14109ZM14.36 1.096C20.8583 1.096 24.9382 3.30259 26.9991 7.48225L28.7929 6.59775C26.2885 1.51874 21.3444 -0.904001 14.36 -0.904001V1.096ZM27.5703 6.09451C25.5912 6.77622 23.2952 7.79011 20.688 9.12603L21.6 10.906C24.1555 9.59656 26.3608 8.62645 28.2217 7.98548L27.5703 6.09451ZM22.032 9.55615C21.2973 8.13741 20.131 7.09961 18.5939 6.44085L17.8061 8.27914C18.957 8.77239 19.7534 9.50525 20.256 10.4759L22.032 9.55615ZM18.5993 6.44316C17.1558 5.81457 15.6656 5.496 14.136 5.496V7.496C15.3797 7.496 16.5988 7.75343 17.8007 8.27683L18.5993 6.44316ZM14.136 5.496C11.9194 5.496 10.0806 6.08752 8.82464 7.45032L10.2954 8.80568C11.0448 7.99248 12.2566 7.496 14.136 7.496V5.496ZM8.83137 7.44309C7.63999 8.71052 7.056 10.2846 7.056 12.096H9.056C9.056 10.75 9.47468 9.67881 10.2886 8.81291L8.83137 7.44309ZM7.056 12.096C7.056 14.0302 7.66933 15.69 8.94193 16.9881L10.3701 15.5879C9.50934 14.71 9.056 13.5751 9.056 12.096H7.056ZM8.95593 17.0021C10.3014 18.3212 12.2546 18.888 14.616 18.888V16.888C12.5401 16.888 11.1866 16.3881 10.3561 15.5739L8.95593 17.0021ZM14.616 18.888C16.4799 18.888 18.075 18.5873 19.3226 17.8998L18.3574 16.1482C17.5143 16.6127 16.2935 16.888 14.616 16.888V18.888ZM19.3361 17.8922C20.6094 17.1647 21.5166 16.0299 22.0777 14.5659L20.2103 13.8501C19.7901 14.9461 19.1613 15.6886 18.3439 16.1558L19.3361 17.8922ZM20.6712 15.0892C22.4551 16.0464 24.7236 17.115 27.4692 18.2948L28.2588 16.4572C25.543 15.2903 23.3316 14.2469 21.6168 13.3268L20.6712 15.0892ZM26.9398 16.9941C25.971 19.3387 24.3802 20.94 22.1404 21.8588L22.8996 23.7092C25.6518 22.58 27.6237 20.576 28.7882 17.7579L26.9398 16.9941ZM22.1404 21.8588C19.7755 22.8291 17.1858 23.32 14.36 23.32V25.32C17.4222 25.32 20.2725 24.7869 22.8996 23.7092L22.1404 21.8588ZM36.2275 21.824L35.5248 22.5356L35.5339 22.5443L36.2275 21.824ZM36.2275 8.704L35.5338 7.98367L35.5294 7.988L36.2275 8.704ZM50.4355 7.424L49.993 8.32074L49.9999 8.32418L50.0069 8.3275L50.4355 7.424ZM54.1155 10.656L53.2497 11.1565L53.2532 11.1624L54.1155 10.656ZM52.5475 21.824L51.8757 21.0833L51.8714 21.0872L52.5475 21.824ZM47.5235 12.672L46.8164 13.3791L46.822 13.3847L46.8277 13.3902L47.5235 12.672ZM41.3795 12.64L40.6609 11.9446L41.3795 12.64ZM41.3795 17.888L42.0981 17.1926L41.3795 17.888ZM44.2915 23.32C40.7706 23.32 38.3857 22.514 36.9211 21.1037L35.5339 22.5443C37.5253 24.462 40.5164 25.32 44.2915 25.32V23.32ZM36.9301 21.1125C35.4407 19.6416 34.6675 17.7036 34.6675 15.2H32.6675C32.6675 18.1577 33.601 20.6357 35.5249 22.5355L36.9301 21.1125ZM34.6675 15.2C34.6675 12.7678 35.4358 10.8726 36.9256 9.42L35.5294 7.988C33.6059 9.86341 32.6675 12.2989 32.6675 15.2H34.6675ZM36.9211 9.42432C38.3857 8.01399 40.7706 7.208 44.2915 7.208V5.208C40.5164 5.208 37.5253 6.06601 35.5339 7.98368L36.9211 9.42432ZM44.2915 7.208C46.641 7.208 48.5264 7.59701 49.993 8.32074L50.8781 6.52726C49.0592 5.62966 46.8487 5.208 44.2915 5.208V7.208ZM50.0069 8.3275C51.5193 9.04491 52.5781 9.99472 53.2498 11.1565L54.9812 10.1555C54.0742 8.58661 52.6797 7.38176 50.8641 6.5205L50.0069 8.3275ZM53.2532 11.1624C53.9451 12.3405 54.2995 13.6778 54.2995 15.2H56.2995C56.2995 13.3516 55.8646 11.6595 54.9778 10.1496L53.2532 11.1624ZM54.2995 15.2C54.2995 17.7047 53.4768 19.6311 51.8757 21.0833L53.2193 22.5647C55.2875 20.6889 56.2995 18.1993 56.2995 15.2H54.2995ZM51.8714 21.0872C50.3161 22.5144 47.8539 23.32 44.2915 23.32V25.32C48.1105 25.32 51.1522 24.4616 53.2236 22.5608L51.8714 21.0872ZM44.4195 19.88C45.9474 19.88 47.2795 19.5167 48.2193 18.6062L46.8277 17.1698C46.4022 17.582 45.665 17.88 44.4195 17.88V19.88ZM48.2193 18.6062C49.1291 17.7249 49.5475 16.563 49.5475 15.232H47.5475C47.5475 16.1197 47.2833 16.7284 46.8277 17.1698L48.2193 18.6062ZM49.5475 15.232C49.5475 13.9458 49.1168 12.8233 48.2193 11.9538L46.8277 13.3902C47.2955 13.8434 47.5475 14.4276 47.5475 15.232H49.5475ZM48.2306 11.9649C47.2917 11.0259 45.9551 10.648 44.4195 10.648V12.648C45.6573 12.648 46.39 12.9527 46.8164 13.3791L48.2306 11.9649ZM44.4195 10.648C42.898 10.648 41.5666 11.0087 40.6609 11.9446L42.0981 13.3354C42.4724 12.9486 43.1676 12.648 44.4195 12.648V10.648ZM40.6609 11.9446C39.8117 12.8221 39.4195 13.9502 39.4195 15.232H41.4195C41.4195 14.3804 41.6673 13.7806 42.0981 13.3354L40.6609 11.9446ZM39.4195 15.232C39.4195 16.5442 39.8045 17.6985 40.6609 18.5834L42.0981 17.1926C41.6745 16.7549 41.4195 16.1385 41.4195 15.232H39.4195ZM40.6609 18.5834C41.5666 19.5193 42.898 19.88 44.4195 19.88V17.88C43.1676 17.88 42.4724 17.5794 42.0981 17.1926L40.6609 18.5834ZM73.55 24L72.5508 23.9592L72.5084 25H73.55V24ZM73.038 13.088L72.2601 13.7163L72.2672 13.7252L72.2746 13.7339L73.038 13.088ZM69.518 13.216L70.3015 13.8374L70.3066 13.831L70.3116 13.8244L69.518 13.216ZM68.654 15.776L67.6571 15.6978L67.655 15.7237L67.6544 15.7497L68.654 15.776ZM68.718 24V25H69.7686L69.7168 23.9507L68.718 24ZM61.07 24L60.0715 23.9445L60.0129 25H61.07V24ZM61.07 6.528L61.1154 5.52903L60.011 5.47883L60.0715 6.58271L61.07 6.528ZM67.534 6.528L68.5151 6.33445L68.3483 5.48874L67.4872 5.5291L67.534 6.528ZM68.462 11.232L67.4809 11.4255L69.4231 11.5083L68.462 11.232ZM70.766 7.456L71.3789 8.24628L71.3887 8.23842L70.766 7.456ZM77.742 7.072L77.219 7.92432L77.2261 7.92868L77.2333 7.93292L77.742 7.072ZM79.854 9.344L78.9556 9.78321L78.9595 9.79119L78.9636 9.79911L79.854 9.344ZM80.75 24V25H81.8145L81.7481 23.9376L80.75 24ZM74.5492 24.0408C74.6776 20.8936 74.742 17.9892 74.742 15.328H72.742C72.742 17.9575 72.6784 20.8344 72.5508 23.9592L74.5492 24.0408ZM74.742 15.328C74.742 14.2232 74.4635 13.2246 73.8014 12.4421L72.2746 13.7339C72.5511 14.0608 72.742 14.5555 72.742 15.328H74.742ZM73.8159 12.4597C73.1809 11.6734 72.3206 11.256 71.31 11.256V13.256C71.7074 13.256 71.9991 13.3932 72.2601 13.7163L73.8159 12.4597ZM71.31 11.256C70.2469 11.256 69.373 11.7615 68.7244 12.6076L70.3116 13.8244C70.6443 13.3905 70.9651 13.256 71.31 13.256V11.256ZM68.7345 12.5946C68.0813 13.4182 67.7522 14.4849 67.6571 15.6978L69.6509 15.8542C69.7265 14.8911 69.9734 14.2511 70.3015 13.8374L68.7345 12.5946ZM67.6544 15.7497C67.6117 17.3712 67.59 18.5349 67.59 19.232H69.59C69.59 18.5638 69.611 17.4235 69.6537 15.8023L67.6544 15.7497ZM67.59 19.232C67.59 20.7019 67.6332 22.3079 67.7192 24.0493L69.7168 23.9507C69.6321 22.2361 69.59 20.6635 69.59 19.232H67.59ZM68.718 23H61.07V25H68.718V23ZM62.0685 24.0555C62.24 20.9673 62.326 18.0473 62.326 15.296H60.326C60.326 18.006 60.2413 20.8887 60.0715 23.9445L62.0685 24.0555ZM62.326 15.296C62.326 12.5447 62.24 9.60367 62.0685 6.47329L60.0715 6.58271C60.2413 9.68166 60.326 12.5859 60.326 15.296H62.326ZM61.0246 7.52697C62.437 7.59117 63.5323 7.624 64.302 7.624V5.624C63.5784 5.624 62.519 5.59283 61.1154 5.52903L61.0246 7.52697ZM64.302 7.624C65.1142 7.624 66.2094 7.59119 67.5808 7.5269L67.4872 5.5291C66.128 5.59281 65.0685 5.624 64.302 5.624V7.624ZM66.5529 6.72155L67.4809 11.4255L69.4431 11.0385L68.5151 6.33445L66.5529 6.72155ZM69.4231 11.5083C69.8749 9.93659 70.5501 8.88888 71.3788 8.24622L70.1532 6.66578C68.8912 7.64446 68.0304 9.11408 67.5009 10.9557L69.4231 11.5083ZM71.3887 8.23842C72.25 7.55296 73.2443 7.208 74.414 7.208V5.208C72.8104 5.208 71.3727 5.69504 70.1433 6.67358L71.3887 8.23842ZM74.414 7.208C75.5398 7.208 76.4618 7.45966 77.219 7.92432L78.265 6.21968C77.1449 5.53234 75.8482 5.208 74.414 5.208V7.208ZM77.2333 7.93292C78.0073 8.39028 78.574 9.0026 78.9556 9.78321L80.7524 8.90479C80.1954 7.7654 79.3541 6.86305 78.2507 6.21107L77.2333 7.93292ZM78.9636 9.79911C79.3747 10.6035 79.59 11.5222 79.59 12.576H81.59C81.59 11.2405 81.3146 10.0045 80.7444 8.88889L78.9636 9.79911ZM79.59 12.576V17.184H81.59V12.576H79.59ZM79.59 17.184C79.59 20.0305 79.6434 22.3259 79.752 24.0624L81.7481 23.9376C81.6432 22.2607 81.59 20.0121 81.59 17.184H79.59ZM80.75 23H73.55V25H80.75V23ZM91.704 23.584L91.4352 24.5473L91.4484 24.5508L91.704 23.584ZM86.52 21.28L85.714 20.6881L85.0791 21.5527L85.986 22.1255L86.52 21.28ZM89.88 16.704L90.4629 15.8915L89.6593 15.315L89.074 16.1121L89.88 16.704ZM93.432 18.368L93.1514 19.3278L93.1583 19.3298L93.1651 19.3317L93.432 18.368ZM99.224 18.56L99.6712 19.4544L99.6783 19.4509L99.6853 19.4472L99.224 18.56ZM97.624 16.448L97.5653 15.4497L97.5616 15.4499L97.624 16.448ZM96.792 16.512L96.6925 15.517L96.6849 15.5177L96.6774 15.5186L96.792 16.512ZM88.728 15.648L88.2022 16.4986L88.2112 16.5042L88.2203 16.5095L88.728 15.648ZM89.624 7.776L90.1246 8.6417L90.1324 8.63713L89.624 7.776ZM102.52 6.944L102.244 7.90507L102.251 7.9071L102.258 7.90904L102.52 6.944ZM107.096 9.088L107.806 9.79204L108.627 8.96378L107.683 8.2787L107.096 9.088ZM103.416 12.8L102.95 13.6849L103.605 14.0296L104.126 13.504L103.416 12.8ZM99.992 11.456L99.7356 12.4226L99.7471 12.4256L99.7586 12.4284L99.992 11.456ZM94.904 11.488L94.4154 10.6155L94.904 11.488ZM94.424 13.216L93.7993 13.9969L93.8172 14.0112L93.8358 14.0247L94.424 13.216ZM96.824 13.376L96.7557 12.3783L96.7401 12.3794L96.7245 12.381L96.824 13.376ZM105.464 14.336L105.987 13.4838L105.464 14.336ZM104.6 22.784L105.096 23.6523L105.104 23.6478L104.6 22.784ZM97.176 23.32C95.4762 23.32 93.7381 23.0874 91.9596 22.6172L91.4484 24.5508C93.3819 25.0619 95.2918 25.32 97.176 25.32V23.32ZM91.9728 22.6208C90.2324 22.1351 88.5937 21.4069 87.054 20.4345L85.986 22.1255C87.689 23.2011 89.5062 24.0089 91.4352 24.5472L91.9728 22.6208ZM87.326 21.8719L90.686 17.2959L89.074 16.1121L85.714 20.6881L87.326 21.8719ZM89.2971 17.5165C90.3862 18.2978 91.6771 18.8969 93.1514 19.3278L93.7126 17.4082C92.4136 17.0285 91.3365 16.5182 90.4629 15.8915L89.2971 17.5165ZM93.1651 19.3317C94.6044 19.7303 95.8934 19.944 97.016 19.944V17.944C96.1333 17.944 95.0329 17.7737 93.6989 17.4043L93.1651 19.3317ZM97.016 19.944C98.0393 19.944 98.9566 19.8118 99.6712 19.4544L98.7768 17.6656C98.4674 17.8202 97.9127 17.944 97.016 17.944V19.944ZM99.6853 19.4472C100.396 19.0778 101.024 18.4501 101.024 17.504H99.024C99.024 17.5045 99.0243 17.4968 99.0279 17.486C99.0315 17.4756 99.034 17.4747 99.0269 17.4841C99.0093 17.5073 98.9427 17.5791 98.7626 17.6728L99.6853 19.4472ZM101.024 17.504C101.024 16.8723 100.767 16.299 100.24 15.904L99.04 17.504C99.0468 17.5091 99.0459 17.5095 99.0412 17.5039C99.039 17.5013 99.0364 17.4978 99.0337 17.4936C99.031 17.4894 99.0285 17.485 99.0265 17.4807C99.0221 17.4716 99.0211 17.4665 99.0214 17.468C99.0219 17.47 99.024 17.4812 99.024 17.504H101.024ZM100.24 15.904C99.7537 15.5393 99.1639 15.416 98.584 15.416V17.416C98.9001 17.416 99.0143 17.4847 99.04 17.504L100.24 15.904ZM98.584 15.416C98.2822 15.416 97.9419 15.4276 97.5653 15.4497L97.6827 17.4463C98.0314 17.4258 98.3312 17.416 98.584 17.416V15.416ZM97.5616 15.4499C97.2142 15.4717 96.9232 15.4939 96.6925 15.517L96.8915 17.507C97.0875 17.4874 97.3511 17.467 97.6864 17.4461L97.5616 15.4499ZM96.6774 15.5186C95.608 15.642 94.505 15.704 93.368 15.704V17.704C94.5777 17.704 95.7574 17.638 96.9066 17.5054L96.6774 15.5186ZM93.368 15.704C91.5846 15.704 90.2299 15.3723 89.2357 14.7865L88.2203 16.5095C89.6154 17.3317 91.354 17.704 93.368 17.704V15.704ZM89.2538 14.7974C88.4312 14.2889 87.968 13.4741 87.968 12.128H85.968C85.968 14.0246 86.6781 15.5565 88.2022 16.4986L89.2538 14.7974ZM87.968 12.128C87.968 10.6449 88.6294 9.50639 90.1246 8.64166L89.1234 6.91034C87.0773 8.09361 85.968 9.85643 85.968 12.128H87.968ZM90.1324 8.63713C91.6778 7.72476 94.0697 7.208 97.432 7.208V5.208C93.9249 5.208 91.1115 5.73657 89.1156 6.91487L90.1324 8.63713ZM97.432 7.208C99.019 7.208 100.622 7.43884 102.244 7.90507L102.796 5.98293C101.005 5.46782 99.2157 5.208 97.432 5.208V7.208ZM102.258 7.90904C103.88 8.34964 105.293 9.01501 106.509 9.8973L107.683 8.2787C106.254 7.24099 104.616 6.47702 102.782 5.97896L102.258 7.90904ZM106.386 8.38396L102.706 12.096L104.126 13.504L107.806 9.79204L106.386 8.38396ZM103.882 11.9151C102.61 11.2457 101.39 10.7632 100.225 10.4836L99.7586 12.4284C100.727 12.6608 101.79 13.0743 102.95 13.6849L103.882 11.9151ZM100.248 10.4894C99.1206 10.1902 97.9784 10.04 96.824 10.04V12.04C97.8029 12.04 98.7727 12.1671 99.7356 12.4226L100.248 10.4894ZM96.824 10.04C95.9439 10.04 95.1277 10.2166 94.4154 10.6155L95.3926 12.3605C95.7469 12.1621 96.2108 12.04 96.824 12.04V10.04ZM94.4154 10.6155C93.7655 10.9795 93.104 11.5843 93.104 12.512H95.104C95.104 12.5345 95.0996 12.5579 95.0926 12.5771C95.086 12.5949 95.0816 12.5969 95.092 12.5836C95.1173 12.5513 95.1976 12.4697 95.3926 12.3605L94.4154 10.6155ZM93.104 12.512C93.104 13.0821 93.3246 13.6171 93.7993 13.9969L95.0487 12.4351C95.0513 12.4372 95.0591 12.444 95.0689 12.4564C95.0788 12.4689 95.0876 12.4833 95.0944 12.4982C95.1088 12.5299 95.104 12.5411 95.104 12.512H93.104ZM93.8358 14.0247C94.2801 14.3478 94.7994 14.472 95.32 14.472V12.472C95.1153 12.472 95.0373 12.4255 95.0122 12.4073L93.8358 14.0247ZM95.32 14.472C95.7319 14.472 96.2715 14.4362 96.9235 14.371L96.7245 12.381C96.0965 12.4438 95.6335 12.472 95.32 12.472V14.472ZM96.8923 14.3737C98.4451 14.2673 99.5797 14.216 100.312 14.216V12.216C99.5083 12.216 98.3176 12.2714 96.7557 12.3783L96.8923 14.3737ZM100.312 14.216C102.44 14.216 103.947 14.5777 104.941 15.1882L105.987 13.4838C104.549 12.6009 102.621 12.216 100.312 12.216V14.216ZM104.941 15.1882C105.834 15.7368 106.288 16.5396 106.288 17.76H108.288C108.288 15.9084 107.526 14.4285 105.987 13.4838L104.941 15.1882ZM106.288 17.76C106.288 19.7558 105.542 21.0768 104.096 21.9202L105.104 23.6478C107.242 22.4005 108.288 20.3722 108.288 17.76H106.288ZM104.104 21.9158C102.523 22.8194 100.244 23.32 97.176 23.32V25.32C100.423 25.32 103.093 24.7966 105.096 23.6522L104.104 21.9158ZM132.728 6.528L133.726 6.58347L133.785 5.528H132.728V6.528ZM132.728 24L132.681 24.9989L133.787 25.0508L133.726 23.945L132.728 24ZM126.264 24L125.282 24.1936L125.449 25.0381L126.309 24.999L126.264 24ZM125.336 19.296L126.317 19.1025L124.374 19.0197L125.336 19.296ZM123.032 23.104L123.644 23.8943L123.654 23.8864L123.032 23.104ZM116.056 23.488L115.532 24.3403L115.54 24.3447L115.547 24.3489L116.056 23.488ZM113.911 21.184L113.013 21.6232L113.017 21.6312L113.021 21.6391L113.911 21.184ZM113.048 6.528V5.528H111.983L112.049 6.59038L113.048 6.528ZM120.248 6.528L121.247 6.56878L121.289 5.528H120.248V6.528ZM120.728 18.08L119.95 18.7083L119.957 18.7172L119.964 18.7259L120.728 18.08ZM124.215 18.048L123.456 17.3972L123.454 17.3995L124.215 18.048ZM125.144 15.616L126.138 15.7196L126.144 15.6679V15.616H125.144ZM125.144 14.88L124.144 14.8544L124.144 14.8672V14.88H125.144ZM125.079 6.528V5.528H124.031L124.081 6.57557L125.079 6.528ZM131.729 6.47253C131.579 9.18159 131.504 12.1016 131.504 15.232H133.504C133.504 12.133 133.578 9.25041 133.726 6.58347L131.729 6.47253ZM131.504 15.232C131.504 18.3836 131.579 21.3248 131.729 24.055L133.726 23.945C133.578 21.2565 133.504 18.3524 133.504 15.232H131.504ZM132.774 23.0011C131.403 22.9368 130.308 22.904 129.495 22.904V24.904C130.262 24.904 131.321 24.9352 132.681 24.9989L132.774 23.0011ZM129.495 22.904C128.726 22.904 127.63 22.9368 126.218 23.001L126.309 24.999C127.713 24.9352 128.772 24.904 129.495 24.904V22.904ZM127.245 23.8064L126.317 19.1025L124.354 19.4895L125.282 24.1936L127.245 23.8064ZM124.374 19.0197C123.923 20.5916 123.246 21.6556 122.409 22.3216L123.654 23.8864C124.908 22.8884 125.767 21.4138 126.297 19.5723L124.374 19.0197ZM122.419 22.3138C121.558 22.9816 120.56 23.32 119.383 23.32V25.32C120.981 25.32 122.415 24.8477 123.644 23.8942L122.419 22.3138ZM119.383 23.32C118.251 23.32 117.324 23.0759 116.564 22.6271L115.547 24.3489C116.665 25.0094 117.956 25.32 119.383 25.32V23.32ZM116.579 22.6357C115.793 22.1536 115.207 21.5216 114.802 20.7289L113.021 21.6391C113.597 22.7664 114.441 23.6704 115.532 24.3403L116.579 22.6357ZM114.81 20.7448C114.415 19.937 114.208 19.0126 114.208 17.952H112.208C112.208 19.2808 112.469 20.511 113.013 21.6232L114.81 20.7448ZM114.208 17.952V13.344H112.208V17.952H114.208ZM114.208 13.344C114.208 10.4975 114.154 8.20208 114.046 6.46562L112.049 6.59038C112.154 8.26725 112.208 10.5159 112.208 13.344H114.208ZM113.048 7.528H120.248V5.528H113.048V7.528ZM119.248 6.48722C119.12 9.63651 119.056 12.7541 119.056 15.84H121.056C121.056 12.7819 121.119 9.69149 121.247 6.56878L119.248 6.48722ZM119.056 15.84C119.056 16.9345 119.318 17.9263 119.95 18.7083L121.505 17.4517C121.241 17.1243 121.056 16.6229 121.056 15.84H119.056ZM119.964 18.7259C120.616 19.4969 121.479 19.912 122.488 19.912V17.912C122.088 17.912 121.777 17.7725 121.491 17.4341L119.964 18.7259ZM122.488 19.912C123.486 19.912 124.327 19.4597 124.977 18.6965L123.454 17.3995C123.123 17.7883 122.812 17.912 122.488 17.912V19.912ZM124.975 18.6988C125.654 17.906 126.017 16.8839 126.138 15.7196L124.149 15.5124C124.057 16.3961 123.801 16.9954 123.456 17.3972L124.975 18.6988ZM126.144 15.616V14.88H124.144V15.616H126.144ZM126.143 14.9056C126.186 13.2424 126.208 12.0785 126.208 11.424H124.208C124.208 12.0495 124.187 13.1896 124.144 14.8544L126.143 14.9056ZM126.208 11.424C126.208 9.93316 126.164 8.285 126.078 6.48043L124.081 6.57557C124.165 8.355 124.208 9.97084 124.208 11.424H126.208ZM125.079 7.528H132.728V5.528H125.079V7.528ZM163.618 24L162.619 23.939L162.555 25H163.618V24ZM163.138 13.088L162.374 13.7339L162.388 13.7498L162.402 13.7651L163.138 13.088ZM159.362 13.216L158.593 12.5758L158.587 12.5835L158.581 12.5913L159.362 13.216ZM158.754 24V25H159.823L159.751 23.9326L158.754 24ZM151.554 24L150.554 23.9592L150.512 25H151.554V24ZM151.042 13.088L150.264 13.7163L150.271 13.7252L150.278 13.7339L151.042 13.088ZM147.426 13.216L146.645 12.5913L146.642 12.5946L147.426 13.216ZM146.562 15.776L145.565 15.6978L145.563 15.7237L145.562 15.7497L146.562 15.776ZM146.626 24V25H147.676L147.624 23.9507L146.626 24ZM138.978 24L137.979 23.9445L137.92 25H138.978V24ZM138.978 6.528L139.023 5.52903L137.919 5.47883L137.979 6.58271L138.978 6.528ZM145.442 6.528L146.422 6.32934L146.251 5.48895L145.395 5.5291L145.442 6.528ZM146.402 11.264L145.421 11.4627L147.363 11.5372L146.402 11.264ZM148.738 7.456L149.343 8.25222L149.353 8.2445L148.738 7.456ZM156.482 7.584L155.822 8.33566L155.829 8.34219L156.482 7.584ZM158.466 11.168L157.48 11.3393L159.417 11.4762L158.466 11.168ZM160.93 7.552L161.543 8.34135L160.93 7.552ZM169.378 8.16L168.61 8.80144L168.616 8.80765L169.378 8.16ZM171.074 24V25H172.113L172.073 23.9608L171.074 24ZM164.616 24.061C164.788 21.2447 164.874 18.3337 164.874 15.328H162.874C162.874 18.2957 162.789 21.166 162.619 23.939L164.616 24.061ZM164.874 15.328C164.874 14.2005 164.583 13.1821 163.873 12.4109L162.402 13.7651C162.673 14.0605 162.874 14.5355 162.874 15.328H164.874ZM163.901 12.4421C163.224 11.6418 162.304 11.256 161.25 11.256V13.256C161.773 13.256 162.113 13.4249 162.374 13.7339L163.901 12.4421ZM161.25 11.256C160.181 11.256 159.285 11.7457 158.593 12.5758L160.13 13.8562C160.505 13.4063 160.867 13.256 161.25 13.256V11.256ZM158.581 12.5913C157.872 13.4765 157.594 14.6626 157.594 16H159.594C159.594 14.9054 159.827 14.2355 160.142 13.8407L158.581 12.5913ZM159.594 16V15.968H157.594V16H159.594ZM157.594 15.968C157.594 19.7443 157.647 22.4517 157.756 24.0674L159.751 23.9326C159.647 22.391 159.594 19.7437 159.594 15.968H157.594ZM158.754 23H151.554V25H158.754V23ZM152.553 24.0408C152.681 20.8936 152.746 17.9892 152.746 15.328H150.746C150.746 17.9575 150.682 20.8344 150.554 23.9592L152.553 24.0408ZM152.746 15.328C152.746 14.2232 152.467 13.2246 151.805 12.4421L150.278 13.7339C150.555 14.0608 150.746 14.5555 150.746 15.328H152.746ZM151.819 12.4597C151.184 11.6734 150.324 11.256 149.314 11.256V13.256C149.711 13.256 150.003 13.3932 150.264 13.7163L151.819 12.4597ZM149.314 11.256C148.231 11.256 147.325 11.7405 146.645 12.5913L148.206 13.8407C148.55 13.4115 148.903 13.256 149.314 13.256V11.256ZM146.642 12.5946C145.989 13.4182 145.66 14.4849 145.565 15.6978L147.558 15.8542C147.634 14.8911 147.881 14.2511 148.209 13.8374L146.642 12.5946ZM145.562 15.7497C145.519 17.3712 145.498 18.5349 145.498 19.232H147.498C147.498 18.5638 147.518 17.4235 147.561 15.8023L145.562 15.7497ZM145.498 19.232C145.498 20.7019 145.541 22.3079 145.627 24.0493L147.624 23.9507C147.54 22.2361 147.498 20.6635 147.498 19.232H145.498ZM146.626 23H138.978V25H146.626V23ZM139.976 24.0555C140.148 20.9673 140.234 18.0473 140.234 15.296H138.234C138.234 18.006 138.149 20.8887 137.979 23.9445L139.976 24.0555ZM140.234 15.296C140.234 12.5447 140.148 9.60367 139.976 6.47329L137.979 6.58271C138.149 9.68166 138.234 12.5859 138.234 15.296H140.234ZM138.932 7.52697C140.344 7.59117 141.44 7.624 142.21 7.624V5.624C141.486 5.624 140.427 5.59283 139.023 5.52903L138.932 7.52697ZM142.21 7.624C143.022 7.624 144.117 7.59119 145.488 7.5269L145.395 5.5291C144.035 5.59281 142.976 5.624 142.21 5.624V7.624ZM144.461 6.72666L145.421 11.4627L147.382 11.0653L146.422 6.32934L144.461 6.72666ZM147.363 11.5372C147.815 9.94715 148.499 8.89348 149.343 8.25216L148.132 6.65984C146.843 7.63986 145.969 9.12485 145.44 10.9908L147.363 11.5372ZM149.353 8.2445C150.239 7.55323 151.248 7.208 152.418 7.208V5.208C150.814 5.208 149.37 5.69477 148.122 6.6675L149.353 8.2445ZM152.418 7.208C153.889 7.208 154.993 7.60861 155.822 8.33562L157.141 6.83237C155.879 5.72472 154.274 5.208 152.418 5.208V7.208ZM155.829 8.34219C156.709 9.09861 157.261 10.0804 157.48 11.3393L159.451 10.9967C159.158 9.31161 158.387 7.90405 157.134 6.82581L155.829 8.34219ZM159.417 11.4762C159.852 10.1339 160.564 9.10317 161.543 8.34135L160.316 6.76265C158.991 7.79283 158.061 9.17272 157.514 10.8598L159.417 11.4762ZM161.543 8.34135C162.518 7.58315 163.614 7.208 164.866 7.208V5.208C163.173 5.208 161.645 5.72885 160.316 6.76265L161.543 8.34135ZM164.866 7.208C166.533 7.208 167.739 7.75897 168.61 8.80142L170.145 7.51858C168.84 5.95836 167.038 5.208 164.866 5.208V7.208ZM168.616 8.80765C169.505 9.85413 170.01 11.3575 170.01 13.44H172.01C172.01 11.0425 171.426 9.02587 170.139 7.51235L168.616 8.80765ZM170.01 13.44V18.752H172.01V13.44H170.01ZM170.01 18.752C170.01 21.164 170.031 22.9301 170.074 24.0392L172.073 23.9608C172.031 22.8939 172.01 21.1613 172.01 18.752H170.01ZM171.074 23H163.618V25H171.074V23ZM183.958 16V15H182.76L182.975 16.1789L183.958 16ZM185.206 18.304L184.536 19.0461L184.549 19.0574L184.562 19.0683L185.206 18.304ZM190.615 18.656L191.011 19.5739L191.022 19.5694L191.032 19.5647L190.615 18.656ZM192.503 17.152L192.944 16.2549L192.192 15.8844L191.696 16.5606L192.503 17.152ZM198.199 19.424L199.113 19.8289L199.555 18.8313L198.522 18.4779L198.199 19.424ZM194.582 23.008L195.034 23.9002L195.038 23.898L194.582 23.008ZM179.734 21.824L179.036 22.5399L179.045 22.5486L179.734 21.824ZM179.734 8.704L180.428 9.42432L179.734 8.704ZM193.462 7.296L193.05 8.20678L193.462 7.296ZM197.143 10.336L196.306 10.8844L196.31 10.8907L197.143 10.336ZM198.358 16V17H199.216L199.347 16.1521L198.358 16ZM185.622 11.648L186.133 12.5079L185.622 11.648ZM184.182 13.312L183.252 12.9455L182.714 14.312H184.182V13.312ZM191.734 13.312V14.312H193.177L192.671 12.9609L191.734 13.312ZM190.486 11.68L189.891 12.4836L189.901 12.4908L189.911 12.4978L190.486 11.68ZM194.391 15H183.958V17H194.391V15ZM182.975 16.1789C183.182 17.3184 183.699 18.29 184.536 19.0461L185.877 17.5619C185.391 17.1233 185.077 16.5589 184.942 15.8211L182.975 16.1789ZM184.562 19.0683C185.483 19.8461 186.704 20.168 188.087 20.168V18.168C186.995 18.168 186.295 17.9139 185.851 17.5397L184.562 19.0683ZM188.087 20.168C189.113 20.168 190.092 19.9716 191.011 19.5739L190.218 17.7381C189.559 18.023 188.852 18.168 188.087 18.168V20.168ZM191.032 19.5647C191.961 19.1379 192.73 18.5332 193.309 17.7434L191.696 16.5606C191.337 17.0508 190.847 17.4488 190.197 17.7473L191.032 19.5647ZM192.061 18.0491C193.543 18.7794 195.486 19.5525 197.875 20.3701L198.522 18.4779C196.175 17.6742 194.32 16.9326 192.944 16.2549L192.061 18.0491ZM197.284 19.0191C196.733 20.2627 195.715 21.3043 194.127 22.118L195.038 23.898C196.949 22.9197 198.341 21.572 199.113 19.8289L197.284 19.0191ZM194.131 22.1158C192.591 22.8953 190.501 23.32 187.798 23.32V25.32C190.685 25.32 193.118 24.8701 195.034 23.9002L194.131 22.1158ZM187.798 23.32C184.302 23.32 181.912 22.5154 180.424 21.0994L179.045 22.5486C181.055 24.4606 184.042 25.32 187.798 25.32V23.32ZM180.433 21.1081C178.924 19.6364 178.143 17.6998 178.143 15.2H176.143C176.143 18.1615 177.089 20.6409 179.036 22.5399L180.433 21.1081ZM178.143 15.2C178.143 12.7717 178.919 10.8778 180.428 9.42432L179.041 7.98368C177.094 9.85817 176.143 12.295 176.143 15.2H178.143ZM180.428 9.42432C181.893 8.01399 184.278 7.208 187.798 7.208V5.208C184.023 5.208 181.032 6.06601 179.041 7.98368L180.428 9.42432ZM187.798 7.208C189.865 7.208 191.606 7.55253 193.05 8.20678L193.875 6.38522C192.119 5.5888 190.084 5.208 187.798 5.208V7.208ZM193.05 8.20678C194.5 8.86424 195.57 9.76128 196.306 10.8844L197.979 9.78764C197.009 8.30805 195.625 7.17843 193.875 6.38522L193.05 8.20678ZM196.31 10.8907C197.045 11.9929 197.423 13.2686 197.423 14.752H199.423C199.423 12.9074 198.946 11.2391 197.975 9.7813L196.31 10.8907ZM197.423 14.752C197.423 15.2948 197.401 15.6486 197.37 15.8479L199.347 16.1521C199.402 15.7967 199.423 15.3185 199.423 14.752H197.423ZM198.358 15H194.391V17H198.358V15ZM188.246 10.04C187.06 10.04 185.993 10.2648 185.112 10.7881L186.133 12.5079C186.617 12.2206 187.3 12.04 188.246 12.04V10.04ZM185.112 10.7881C184.249 11.3008 183.615 12.0243 183.252 12.9455L185.113 13.6785C185.305 13.1917 185.631 12.8059 186.133 12.5079L185.112 10.7881ZM184.182 14.312H191.734V12.312H184.182V14.312ZM192.671 12.9609C192.347 12.0969 191.808 11.3875 191.062 10.8622L189.911 12.4978C190.316 12.7832 190.61 13.1617 190.798 13.6631L192.671 12.9609ZM191.082 10.8764C190.291 10.2905 189.318 10.04 188.246 10.04V12.04C189.01 12.04 189.53 12.2162 189.891 12.4836L191.082 10.8764ZM211.594 11.264L210.614 11.4627L212.557 11.532L211.594 11.264ZM220.074 6.56L221.064 6.70142L221.205 5.71659L220.221 5.5708L220.074 6.56ZM219.05 13.728L218.699 14.6643L219.864 15.1012L220.04 13.8694L219.05 13.728ZM212.586 13.952L211.803 13.3301L212.586 13.952ZM211.722 16.832H212.722L210.722 16.8169L211.722 16.832ZM211.69 18.944L210.69 18.9289L210.69 18.9364V18.944H211.69ZM211.818 24V25H212.865L212.817 23.9541L211.818 24ZM204.17 24L203.172 23.9445L203.113 25H204.17V24ZM204.17 6.528L204.215 5.52903L203.111 5.47883L203.171 6.58271L204.17 6.528ZM210.634 6.528L211.614 6.32934L211.444 5.48895L210.587 5.5291L210.634 6.528ZM212.557 11.532C212.958 10.0911 213.63 9.09628 214.524 8.45058C215.424 7.80032 216.649 7.432 218.282 7.432V5.432C216.352 5.432 214.682 5.86901 213.352 6.82942C212.017 7.79438 211.126 9.21554 210.631 10.996L212.557 11.532ZM218.282 7.432C218.855 7.432 219.403 7.47149 219.927 7.5492L220.221 5.5708C219.593 5.47784 218.947 5.432 218.282 5.432V7.432ZM219.084 6.41858L218.06 13.5866L220.04 13.8694L221.064 6.70142L219.084 6.41858ZM219.401 12.7917C217.818 12.198 216.429 11.864 215.274 11.864V13.864C216.081 13.864 217.21 14.106 218.699 14.6643L219.401 12.7917ZM215.274 11.864C213.856 11.864 212.625 12.2954 211.803 13.3301L213.369 14.5739C213.699 14.1579 214.26 13.864 215.274 13.864V11.864ZM211.803 13.3301C211.048 14.2809 210.722 15.4932 210.722 16.864H212.722C212.722 15.8028 212.972 15.0738 213.369 14.5739L211.803 13.3301ZM212.722 16.864V16.832H210.722V16.864H212.722ZM210.722 16.8169L210.69 18.9289L212.69 18.9592L212.722 16.8471L210.722 16.8169ZM210.69 18.944C210.69 20.4769 210.733 22.1779 210.819 24.0459L212.817 23.9541C212.732 22.1101 212.69 20.4404 212.69 18.944H210.69ZM211.818 23H204.17V25H211.818V23ZM205.168 24.0555C205.34 20.9673 205.426 18.0473 205.426 15.296H203.426C203.426 18.006 203.341 20.8887 203.172 23.9445L205.168 24.0555ZM205.426 15.296C205.426 12.5447 205.34 9.60367 205.169 6.47329L203.171 6.58271C203.341 9.68166 203.426 12.5859 203.426 15.296H205.426ZM204.125 7.52697C205.537 7.59117 206.632 7.624 207.402 7.624V5.624C206.678 5.624 205.619 5.59283 204.215 5.52903L204.125 7.52697ZM207.402 7.624C208.214 7.624 209.309 7.59119 210.681 7.5269L210.587 5.5291C209.228 5.59281 208.168 5.624 207.402 5.624V7.624ZM209.654 6.72666L210.614 11.4627L212.574 11.0653L211.614 6.32934L209.654 6.72666Z" fill="white" mask="url(#path-1-outside-1_1_399)"/>
</svg>
