<svg width="24" height="26" viewBox="0 0 24 26" fill="none" xmlns="http://www.w3.org/2000/svg">
<path d="M14.9241 18.8953C15.2578 19.2266 15.4453 19.676 15.4453 20.1445V23.9667C15.4423 24.3723 15.6026 24.7623 15.8905 25.0502C16.1783 25.3381 16.5701 25.5 16.9787 25.5H19.4298C20.5745 25.5029 21.6734 25.0535 22.4839 24.251C23.2945 23.4485 23.75 22.3587 23.75 21.2223V10.3336C23.75 9.41557 23.3401 8.5448 22.6308 7.95583M14.9241 18.8953L15.6286 18.1856C16.1507 18.7039 16.4453 19.4084 16.4453 20.1445V23.9667V23.974H16.4453C16.4443 24.1108 16.4982 24.2438 16.5976 24.3431C16.6971 24.4427 16.8342 24.5 16.9787 24.5H19.4298H19.4323C20.3138 24.5023 21.1585 24.1562 21.7803 23.5404C22.402 22.9249 22.75 22.0907 22.75 21.2223V10.3336C22.75 9.71786 22.4766 9.13155 21.9998 8.73173M14.9241 18.8953L15.6286 18.1856C15.1068 17.6676 14.4006 17.3779 13.6658 17.3779H10.073C8.54481 17.3779 7.29347 18.6097 7.29347 20.1445V23.2442L7.26515 23.2536L7.25992 23.9705C7.25783 24.2567 7.02143 24.5 6.71536 24.5H4.32021C2.47962 24.5 1 23.0207 1 21.2112V10.3465C1.01789 9.72135 1.31679 9.13449 1.8186 8.74836L1.8262 8.74251L1.83368 8.73653L9.98165 2.21442L9.99548 2.20335L10.0089 2.19179C11.0513 1.29496 12.5933 1.26701 13.6682 2.12603L13.6712 2.12843L21.9998 8.73173M14.9241 18.8953L22.6308 7.95583M21.9998 8.73173L22.0095 8.73942L22.6308 7.95583M21.9998 8.73173C21.9972 8.72954 21.9946 8.72736 21.9919 8.72519L22.6308 7.95583" stroke="white" stroke-width="2"/>
</svg>
