<svg width="334" height="141" viewBox="0 0 334 141" fill="none" xmlns="http://www.w3.org/2000/svg">
<mask id="path-1-outside-1_1_57" maskUnits="userSpaceOnUse" x="1" y="23.6604" width="335" height="62" fill="black">
<rect fill="white" x="1" y="23.6604" width="335" height="62"/>
<path d="M20.4747 69.0974C34.4129 69.0013 45.948 68.761 55.0799 68.3765C54.4551 70.8277 54.0706 73.1828 53.9264 75.4417C53.7822 77.7007 53.7101 80.4402 53.7101 83.6604H2.88376C3.26826 74.3363 3.46052 65.6129 3.46052 57.4903C3.46052 49.3677 3.26826 40.6443 2.88376 31.3201H20.4747V69.0974ZM97.9167 65.6369H74.414C74.7985 67.7517 75.7358 69.4819 77.2257 70.8277C78.7637 72.1254 80.9265 72.7742 83.7142 72.7742C85.7328 72.7742 87.6313 72.3897 89.4096 71.6207C91.1879 70.8037 92.6058 69.6742 93.6632 68.2323C96.8834 69.8184 101.161 71.5246 106.496 73.351C105.006 76.7154 102.29 79.4069 98.3493 81.4255C94.4562 83.3961 89.3615 84.3814 83.0653 84.3814C74.8947 84.3814 68.8388 82.5069 64.8976 78.758C61.0045 74.9611 59.058 69.9866 59.058 63.8346C59.058 57.8267 61.0045 52.9484 64.8976 49.1995C68.7907 45.4506 74.8466 43.5761 83.0653 43.5761C87.9677 43.5761 92.2213 44.3932 95.826 46.0273C99.4307 47.6615 102.194 49.9444 104.117 52.8763C106.039 55.76 107.001 59.0764 107.001 62.8252C107.001 64.0749 106.952 65.0121 106.856 65.6369H97.9167ZM84.0746 54.4623C81.6715 54.4623 79.7009 54.9189 78.1629 55.8321C76.6249 56.7453 75.5435 57.9949 74.9187 59.581H91.9329C91.3561 58.043 90.4189 56.8174 89.1212 55.9042C87.8235 54.943 86.1413 54.4623 84.0746 54.4623ZM159.529 27.5712C159.241 36.5109 159.096 45.8591 159.096 55.6158C159.096 65.2764 159.241 74.6246 159.529 83.6604H143.236L143.452 75.0091C142.058 78.2293 140.04 80.6084 137.396 82.1465C134.753 83.6364 131.629 84.3814 128.024 84.3814C124.9 84.3814 122.088 83.4922 119.589 81.7139C117.09 79.9356 115.143 77.5324 113.749 74.5045C112.355 71.4285 111.659 68.0641 111.659 64.4113C111.659 60.8066 112.355 57.4182 113.749 54.246C115.143 51.0258 117.09 48.4545 119.589 46.532C122.136 44.5614 125.02 43.5761 128.24 43.5761C131.989 43.5761 135.185 44.3692 137.829 45.9552C140.52 47.4932 142.515 49.8964 143.812 53.1646C143.812 50.4251 143.716 46.0273 143.524 39.9714C143.332 34.1078 143.236 29.9744 143.236 27.5712H159.529ZM135.594 72.2696C137.949 72.2696 139.871 71.6207 141.361 70.323C142.851 68.9773 143.596 66.8625 143.596 63.9787C143.596 61.4314 142.851 59.557 141.361 58.3554C139.871 57.1538 137.997 56.5531 135.738 56.5531C133.575 56.5531 131.749 57.25 130.259 58.6438C128.817 59.9895 128.096 61.7679 128.096 63.9787C128.096 66.4299 128.769 68.4245 130.115 69.9626C131.46 71.5006 133.287 72.2696 135.594 72.2696ZM181.617 40.9807C181.521 41.2211 181.473 41.5335 181.473 41.918C181.473 42.687 181.785 43.3118 182.41 43.7924C183.083 44.225 183.996 44.4413 185.149 44.4413H194.666V57.2019C190.677 56.8655 187.504 56.6732 185.149 56.6252C185.197 65.5648 185.39 74.5766 185.726 83.6604H168.64C168.688 77.989 168.712 69.0494 168.712 56.8414C167.703 56.8895 165.972 57.0097 163.521 57.2019V44.4413H168.64V43.0715C168.64 39.3226 169.409 36.1264 170.947 33.483C172.485 30.8395 174.6 28.8449 177.291 27.4991C180.031 26.1534 183.155 25.4805 186.663 25.4805C189.499 25.4805 192.359 25.889 195.243 26.7061C194.281 30.2147 193.32 34.6124 192.359 39.8993L191.926 42.0622C190.869 41.149 189.691 40.4761 188.394 40.0435C187.144 39.5629 185.991 39.3226 184.933 39.3226C184.068 39.3226 183.347 39.4668 182.77 39.7551C182.194 40.0435 181.809 40.452 181.617 40.9807ZM216.51 54.8228C216.462 57.7066 216.438 62.1283 216.438 68.0881C216.438 75.2495 216.486 80.4402 216.582 83.6604H199.568L199.64 75.5138C199.736 66.5741 199.785 59.6771 199.785 54.8228C199.785 50.2088 199.736 43.6723 199.64 35.2132L199.568 27.4271H216.582C216.486 34.252 216.438 39.8272 216.438 44.1529C216.438 48.9592 216.462 52.5158 216.51 54.8228ZM245.934 84.3814C237.716 84.3814 231.66 82.5069 227.767 78.758C223.922 74.9611 221.999 69.9866 221.999 63.8346C221.999 57.8267 223.922 52.9484 227.767 49.1995C231.66 45.4506 237.716 43.5761 245.934 43.5761C251.461 43.5761 256.076 44.4893 259.776 46.3157C263.525 48.094 266.289 50.5212 268.067 53.5972C269.845 56.6252 270.735 60.0376 270.735 63.8346C270.735 70.0347 268.668 75.0091 264.535 78.758C260.449 82.5069 254.249 84.3814 245.934 84.3814ZM246.223 72.1254C249.347 72.1254 251.678 71.3804 253.216 69.8905C254.754 68.4005 255.523 66.4059 255.523 63.9067C255.523 61.5516 254.754 59.6291 253.216 58.1391C251.678 56.6011 249.347 55.8321 246.223 55.8321C243.099 55.8321 240.816 56.5771 239.374 58.067C237.932 59.557 237.211 61.5035 237.211 63.9067C237.211 66.4059 237.932 68.4005 239.374 69.8905C240.816 71.3804 243.099 72.1254 246.223 72.1254ZM313.291 72.5579L319.491 44.2971H333.838L325.835 83.6604H306.586L302.044 65.2764L296.926 83.6604H278.397L270.395 44.2971H284.742L290.87 72.4858L295.051 44.2971H309.254L313.291 72.5579Z"/>
</mask>
<path d="M20.4747 69.0974H19.3987V70.1809L20.4821 70.1734L20.4747 69.0974ZM55.0799 68.3765L56.1226 68.6423L56.4799 67.2406L55.0346 67.3014L55.0799 68.3765ZM53.9264 75.4417L52.8525 75.3732L53.9264 75.4417ZM53.7101 83.6604V84.7365H54.7861V83.6604H53.7101ZM2.88376 83.6604L1.80865 83.6161L1.76245 84.7365H2.88376V83.6604ZM2.88376 31.3201V30.2441H1.76245L1.80865 31.3645L2.88376 31.3201ZM20.4747 31.3201H21.5507V30.2441H20.4747V31.3201ZM20.4821 70.1734C34.4272 70.0773 45.9759 69.8368 55.1251 69.4516L55.0346 67.3014C45.92 67.6852 34.3987 67.9253 20.4673 68.0214L20.4821 70.1734ZM54.0372 68.1107C53.3978 70.6191 53.0014 73.0404 52.8525 75.3732L55.0002 75.5103C55.1397 73.3251 55.5123 71.0363 56.1226 68.6423L54.0372 68.1107ZM52.8525 75.3732C52.7064 77.6622 52.6341 80.426 52.6341 83.6604H54.7861C54.7861 80.4544 54.8579 77.7391 55.0002 75.5102L52.8525 75.3732ZM53.7101 82.5844H2.88376V84.7365H53.7101V82.5844ZM3.95888 83.7048C4.3439 74.368 4.53655 65.6296 4.53655 57.4903H2.38448C2.38448 65.5961 2.19263 74.3046 1.80865 83.6161L3.95888 83.7048ZM4.53655 57.4903C4.53655 49.3509 4.3439 40.6126 3.95888 31.2758L1.80865 31.3645C2.19263 40.676 2.38448 49.3844 2.38448 57.4903H4.53655ZM2.88376 32.3962H20.4747V30.2441H2.88376V32.3962ZM19.3987 31.3201V69.0974H21.5507V31.3201H19.3987ZM74.414 65.6369V64.5609H73.1247L73.3554 65.8294L74.414 65.6369ZM77.2257 70.8277L76.5045 71.6262L76.5179 71.6384L76.5318 71.6501L77.2257 70.8277ZM89.4096 71.6207L89.8367 72.6084L89.8478 72.6035L89.8588 72.5985L89.4096 71.6207ZM93.6632 68.2323L94.1386 67.267L93.3291 66.8683L92.7954 67.596L93.6632 68.2323ZM106.496 73.351L107.48 73.7867L107.955 72.7132L106.844 72.3329L106.496 73.351ZM98.3493 81.4255L98.8352 82.3856L98.8398 82.3832L98.3493 81.4255ZM64.8976 78.758L64.1463 79.5284L64.156 79.5377L64.8976 78.758ZM64.8976 49.1995L65.644 49.9746L64.8976 49.1995ZM95.826 46.0273L95.3817 47.0074L95.826 46.0273ZM104.117 52.8763L103.217 53.4663L103.221 53.4731L104.117 52.8763ZM106.856 65.6369V66.7129H107.78L107.92 65.8005L106.856 65.6369ZM78.1629 55.8321L78.7123 56.7574L78.1629 55.8321ZM74.9187 59.581L73.9175 59.1866L73.3383 60.657H74.9187V59.581ZM91.9329 59.581V60.657H93.4856L92.9404 59.2032L91.9329 59.581ZM89.1212 55.9042L88.4807 56.7689L88.4913 56.7767L88.502 56.7842L89.1212 55.9042ZM97.9167 64.5609H74.414V66.7129H97.9167V64.5609ZM73.3554 65.8294C73.7792 68.1603 74.8254 70.1096 76.5045 71.6262L77.947 70.0292C76.6461 68.8542 75.8179 67.3431 75.4727 65.4444L73.3554 65.8294ZM76.5318 71.6501C78.3272 73.1649 80.7698 73.8503 83.7142 73.8503V71.6982C81.0832 71.6982 79.2002 71.0858 77.9196 70.0053L76.5318 71.6501ZM83.7142 73.8503C85.8734 73.8503 87.9179 73.4381 89.8367 72.6084L88.9825 70.6331C87.3447 71.3413 85.5922 71.6982 83.7142 71.6982V73.8503ZM89.8588 72.5985C91.7873 71.7124 93.3553 70.4717 94.5309 68.8686L92.7954 67.596C91.8563 68.8766 90.5885 69.8949 88.9604 70.643L89.8588 72.5985ZM93.1877 69.1976C96.4653 70.812 100.791 72.5351 106.147 74.369L106.844 72.3329C101.531 70.5141 97.3014 68.8248 94.1386 67.267L93.1877 69.1976ZM105.512 72.9153C104.141 76.0109 101.627 78.5378 97.8587 80.4678L98.8398 82.3832C102.954 80.2759 105.871 77.4198 107.48 73.7867L105.512 72.9153ZM97.8633 80.4655C94.1726 82.3336 89.2623 83.3053 83.0653 83.3053V85.4574C89.4608 85.4574 94.7398 84.4586 98.8352 82.3856L97.8633 80.4655ZM83.0653 83.3053C75.0348 83.3053 69.2998 81.4604 65.6392 77.9784L64.156 79.5377C68.3777 83.5535 74.7545 85.4574 83.0653 85.4574V83.3053ZM65.6489 77.9877C61.9915 74.4206 60.134 69.7382 60.134 63.8346H57.982C57.982 70.235 60.0176 75.5015 64.1463 79.5284L65.6489 77.9877ZM60.134 63.8346C60.134 58.0832 61.9861 53.4969 65.644 49.9746L64.1512 48.4244C60.0229 52.3998 57.982 57.5703 57.982 63.8346H60.134ZM65.644 49.9746C69.2536 46.4986 74.9833 44.6522 83.0653 44.6522V42.5001C74.7099 42.5001 68.3278 44.4025 64.1512 48.4244L65.644 49.9746ZM83.0653 44.6522C87.8501 44.6522 91.9457 45.4497 95.3817 47.0074L96.2703 45.0473C92.4968 43.3367 88.0854 42.5001 83.0653 42.5001V44.6522ZM95.3817 47.0074C98.8253 48.5684 101.42 50.7263 103.217 53.4663L105.017 52.2862C102.968 49.1626 100.036 46.7545 96.2703 45.0473L95.3817 47.0074ZM103.221 53.4731C105.016 56.1656 105.925 59.2706 105.925 62.8252H108.077C108.077 58.8821 107.062 55.3544 105.012 52.2794L103.221 53.4731ZM105.925 62.8252C105.925 64.0621 105.876 64.9324 105.793 65.4733L107.92 65.8005C108.029 65.0918 108.077 64.0876 108.077 62.8252H105.925ZM106.856 64.5609H97.9167V66.7129H106.856V64.5609ZM84.0746 53.3863C81.5424 53.3863 79.3655 53.8667 77.6136 54.9069L78.7123 56.7574C80.0364 55.9712 81.8007 55.5384 84.0746 55.5384V53.3863ZM77.6136 54.9069C75.8811 55.9355 74.6344 57.3669 73.9175 59.1866L75.9198 59.9754C76.4526 58.623 77.3687 57.5551 78.7123 56.7574L77.6136 54.9069ZM74.9187 60.657H91.9329V58.505H74.9187V60.657ZM92.9404 59.2032C92.2905 57.4701 91.2216 56.0665 89.7405 55.0242L88.502 56.7842C89.6162 57.5683 90.4218 58.6159 90.9254 59.9588L92.9404 59.2032ZM89.7617 55.0396C88.2326 53.9069 86.3071 53.3863 84.0746 53.3863V55.5384C85.9756 55.5384 87.4145 55.979 88.4807 56.7689L89.7617 55.0396ZM159.529 27.5712L160.604 27.6059L160.64 26.4952H159.529V27.5712ZM159.529 83.6604V84.7365H160.64L160.604 83.6261L159.529 83.6604ZM143.236 83.6604L142.16 83.6335L142.132 84.7365H143.236V83.6604ZM143.452 75.0091L144.528 75.036L142.464 74.5817L143.452 75.0091ZM137.396 82.1465L137.924 83.0838L137.931 83.0802L137.937 83.0765L137.396 82.1465ZM119.589 81.7139L118.965 82.5906L119.589 81.7139ZM113.749 74.5045L112.769 74.9486L112.772 74.9544L113.749 74.5045ZM113.749 54.246L114.734 54.6789L114.737 54.6735L113.749 54.246ZM119.589 46.532L120.245 47.3849L120.247 47.3831L119.589 46.532ZM137.829 45.9552L137.275 46.8779L137.285 46.8838L137.295 46.8895L137.829 45.9552ZM143.812 53.1646L142.812 53.5617L144.889 53.1646H143.812ZM143.524 39.9714L144.6 39.9373L144.6 39.9362L143.524 39.9714ZM143.236 27.5712V26.4952H142.16V27.5712H143.236ZM141.361 70.323L142.068 71.1344L142.075 71.1281L142.083 71.1216L141.361 70.323ZM141.361 58.3554L142.037 57.5178L141.361 58.3554ZM130.259 58.6438L130.993 59.4304L130.994 59.4296L130.259 58.6438ZM158.454 27.5365C158.165 36.4888 158.02 45.8486 158.02 55.6158H160.172C160.172 45.8696 160.316 36.5331 160.604 27.6059L158.454 27.5365ZM158.02 55.6158C158.02 65.2871 158.165 74.6468 158.453 83.6948L160.604 83.6261C160.316 74.6025 160.172 65.2658 160.172 55.6158H158.02ZM159.529 82.5844H143.236V84.7365H159.529V82.5844ZM144.311 83.6873L144.528 75.036L142.376 74.9822L142.16 83.6335L144.311 83.6873ZM142.464 74.5817C141.148 77.6233 139.271 79.8105 136.855 81.2164L137.937 83.0765C140.808 81.4064 142.968 78.8354 144.439 75.4366L142.464 74.5817ZM136.868 81.2091C134.413 82.5924 131.478 83.3053 128.024 83.3053V85.4574C131.779 85.4574 135.092 84.6804 137.924 83.0838L136.868 81.2091ZM128.024 83.3053C125.119 83.3053 122.526 82.4833 120.213 80.8372L118.965 82.5906C121.65 84.5011 124.681 85.4574 128.024 85.4574V83.3053ZM120.213 80.8372C117.88 79.1771 116.049 76.927 114.727 74.0546L112.772 74.9544C114.237 78.1378 116.3 80.694 118.965 82.5906L120.213 80.8372ZM114.729 74.0604C113.404 71.135 112.735 67.9236 112.735 64.4113H110.582C110.582 68.2046 111.307 71.722 112.769 74.9486L114.729 74.0604ZM112.735 64.4113C112.735 60.9495 113.403 57.7091 114.734 54.6789L112.764 53.8132C111.308 57.1273 110.582 60.6637 110.582 64.4113H112.735ZM114.737 54.6735C116.066 51.6016 117.906 49.1838 120.245 47.3849L118.933 45.6791C116.273 47.7251 114.22 50.4501 112.762 53.8186L114.737 54.6735ZM120.247 47.3831C122.606 45.5583 125.258 44.6522 128.24 44.6522V42.5001C124.782 42.5001 121.666 43.5645 118.93 45.6809L120.247 47.3831ZM128.24 44.6522C131.836 44.6522 134.832 45.4119 137.275 46.8779L138.382 45.0325C135.539 43.3265 132.142 42.5001 128.24 42.5001V44.6522ZM137.295 46.8895C139.746 48.2904 141.592 50.4881 142.812 53.5617L144.813 52.7675C143.438 49.3047 141.294 46.6961 138.363 45.021L137.295 46.8895ZM144.889 53.1646C144.889 50.4067 144.792 45.9944 144.6 39.9373L142.449 40.0056C142.641 46.0603 142.736 50.4434 142.736 53.1646H144.889ZM144.6 39.9362C144.407 34.0724 144.312 29.9548 144.312 27.5712H142.16C142.16 29.9939 142.256 34.1432 142.449 40.0067L144.6 39.9362ZM143.236 28.6473H159.529V26.4952H143.236V28.6473ZM135.594 73.3456C138.156 73.3456 140.346 72.6343 142.068 71.1344L140.655 69.5116C139.397 70.6071 137.741 71.1935 135.594 71.1935V73.3456ZM142.083 71.1216C143.882 69.4958 144.672 67.0312 144.672 63.9787H142.52C142.52 66.6938 141.82 68.4588 140.64 69.5245L142.083 71.1216ZM144.672 63.9787C144.672 61.2214 143.858 58.9865 142.037 57.5178L140.686 59.193C141.845 60.1275 142.52 61.6415 142.52 63.9787H144.672ZM142.037 57.5178C140.322 56.1353 138.196 55.477 135.738 55.477V57.6291C137.797 57.6291 139.42 58.1724 140.686 59.193L142.037 57.5178ZM135.738 55.477C133.32 55.477 131.226 56.2657 129.524 57.858L130.994 59.4296C132.272 58.2342 133.83 57.6291 135.738 57.6291V55.477ZM129.525 57.8572C127.837 59.4321 127.02 61.5095 127.02 63.9787H129.172C129.172 62.0263 129.797 60.547 130.993 59.4304L129.525 57.8572ZM127.02 63.9787C127.02 66.636 127.755 68.8995 129.305 70.6711L130.924 69.254C129.783 67.9496 129.172 66.2239 129.172 63.9787H127.02ZM129.305 70.6711C130.883 72.4742 133.021 73.3456 135.594 73.3456V71.1935C133.552 71.1935 132.038 70.5269 130.924 69.254L129.305 70.6711ZM181.617 40.9807L182.616 41.3804L182.622 41.3645L182.628 41.3485L181.617 40.9807ZM182.41 43.7924L181.754 44.6453L181.79 44.673L181.828 44.6975L182.41 43.7924ZM194.666 44.4413H195.742V43.3652H194.666V44.4413ZM194.666 57.2019L194.575 58.2741L195.742 58.3725V57.2019H194.666ZM185.149 56.6252L185.171 55.5493L184.067 55.5268L184.073 56.6309L185.149 56.6252ZM185.726 83.6604V84.7365H186.843L186.801 83.6206L185.726 83.6604ZM168.64 83.6604L167.564 83.6513L167.555 84.7365H168.64V83.6604ZM168.712 56.8414H169.788V55.7129L168.661 55.7666L168.712 56.8414ZM163.521 57.2019H162.445V58.3656L163.605 58.2746L163.521 57.2019ZM163.521 44.4413V43.3652H162.445V44.4413H163.521ZM168.64 44.4413V45.5173H169.716V44.4413H168.64ZM177.291 27.4991L176.817 26.5333L176.81 26.5367L177.291 27.4991ZM195.243 26.7061L196.28 26.9904L196.562 25.9616L195.536 25.6708L195.243 26.7061ZM192.359 39.8993L193.414 40.1104L193.416 40.1011L193.417 40.0918L192.359 39.8993ZM191.926 42.0621L191.223 42.8765L192.619 44.0826L192.981 42.2732L191.926 42.0621ZM188.394 40.0435L188.007 41.0478L188.03 41.0566L188.053 41.0643L188.394 40.0435ZM216.51 54.8228L217.586 54.8407L217.587 54.8206L217.586 54.8004L216.51 54.8228ZM216.582 83.6604V84.7365H217.691L217.658 83.6283L216.582 83.6604ZM199.568 83.6604L198.492 83.6509L198.483 84.7365H199.568V83.6604ZM199.64 75.5138L198.564 75.5022L198.564 75.5043L199.64 75.5138ZM199.64 35.2132L198.564 35.2232L198.564 35.2254L199.64 35.2132ZM199.568 27.4271V26.351H198.482L198.492 27.437L199.568 27.4271ZM216.582 27.4271L217.658 27.4422L217.674 26.351H216.582V27.4271ZM180.618 40.5811C180.452 40.9945 180.397 41.4569 180.397 41.918H182.549C182.549 41.6101 182.589 41.4476 182.616 41.3804L180.618 40.5811ZM180.397 41.918C180.397 43.0307 180.872 43.967 181.754 44.6453L183.066 42.9395C182.698 42.6566 182.549 42.3432 182.549 41.918H180.397ZM181.828 44.6975C182.735 45.2807 183.876 45.5173 185.149 45.5173V43.3652C184.116 43.3652 183.43 43.1692 182.992 42.8873L181.828 44.6975ZM185.149 45.5173H194.666V43.3652H185.149V45.5173ZM193.59 44.4413V57.2019H195.742V44.4413H193.59ZM194.756 56.1297C190.758 55.7924 187.56 55.5981 185.171 55.5493L185.127 57.701C187.449 57.7483 190.596 57.9385 194.575 58.2741L194.756 56.1297ZM184.073 56.6309C184.122 65.5821 184.314 74.6052 184.651 83.7003L186.801 83.6206C186.465 74.5479 186.273 65.5475 186.225 56.6194L184.073 56.6309ZM185.726 82.5844H168.64V84.7365H185.726V82.5844ZM169.716 83.6695C169.764 77.9933 169.788 69.0498 169.788 56.8414H167.636C167.636 69.049 167.612 77.9848 167.564 83.6513L169.716 83.6695ZM168.661 55.7666C167.633 55.8156 165.888 55.9369 163.437 56.1292L163.605 58.2746C166.057 58.0824 167.772 57.9634 168.763 57.9162L168.661 55.7666ZM164.597 57.2019V44.4413H162.445V57.2019H164.597ZM163.521 45.5173H168.64V43.3652H163.521V45.5173ZM169.716 44.4413V43.0715H167.564V44.4413H169.716ZM169.716 43.0715C169.716 39.47 170.454 36.4699 171.877 34.0241L170.017 32.9418C168.364 35.7829 167.564 39.1752 167.564 43.0715H169.716ZM171.877 34.0241C173.311 31.5586 175.272 29.712 177.772 28.4616L176.81 26.5367C173.928 27.9778 171.658 30.1204 170.017 32.9418L171.877 34.0241ZM177.766 28.4649C180.337 27.2018 183.295 26.5565 186.663 26.5565V24.4045C183.015 24.4045 179.725 25.1049 176.817 26.5333L177.766 28.4649ZM186.663 26.5565C189.394 26.5565 192.155 26.9498 194.949 27.7414L195.536 25.6708C192.562 24.8283 189.604 24.4045 186.663 24.4045V26.5565ZM194.205 26.4218C193.232 29.9712 192.265 34.4021 191.3 39.7068L193.417 40.0918C194.376 34.8228 195.33 30.4582 196.28 26.9904L194.205 26.4218ZM191.304 39.6883L190.871 41.8511L192.981 42.2732L193.414 40.1104L191.304 39.6883ZM192.63 41.2478C191.468 40.2447 190.168 39.5007 188.734 39.0227L188.053 41.0643C189.215 41.4515 190.27 42.0532 191.223 42.8765L192.63 41.2478ZM188.78 39.0392C187.438 38.5233 186.153 38.2465 184.933 38.2465V40.3986C185.828 40.3986 186.85 40.6025 188.007 41.0478L188.78 39.0392ZM184.933 38.2465C183.955 38.2465 183.057 38.4086 182.289 38.7927L183.252 40.7176C183.637 40.5249 184.181 40.3986 184.933 40.3986V38.2465ZM182.289 38.7927C181.505 39.1848 180.906 39.7875 180.606 40.613L182.628 41.3485C182.712 41.1166 182.882 40.9022 183.252 40.7176L182.289 38.7927ZM215.434 54.8049C215.386 57.698 215.362 62.1272 215.362 68.0881H217.514C217.514 62.1294 217.538 57.7151 217.586 54.8407L215.434 54.8049ZM215.362 68.0881C215.362 75.2505 215.41 80.4551 215.507 83.6925L217.658 83.6283C217.562 80.4254 217.514 75.2484 217.514 68.0881H215.362ZM216.582 82.5844H199.568V84.7365H216.582V82.5844ZM200.644 83.67L200.716 75.5233L198.564 75.5043L198.492 83.6509L200.644 83.67ZM200.716 75.5254C200.812 66.5845 200.861 59.6829 200.861 54.8228H198.708C198.708 59.6713 198.66 66.5638 198.564 75.5022L200.716 75.5254ZM200.861 54.8228C200.861 50.2027 200.812 43.6614 200.716 35.201L198.564 35.2254C198.66 43.6832 198.708 50.2149 198.708 54.8228H200.861ZM200.716 35.2033L200.644 27.4171L198.492 27.437L198.564 35.2232L200.716 35.2033ZM199.568 28.5031H216.582V26.351H199.568V28.5031ZM215.507 27.4119C215.41 34.2393 215.362 39.8202 215.362 44.1529H217.514C217.514 39.8343 217.562 34.2646 217.658 27.4422L215.507 27.4119ZM215.362 44.1529C215.362 48.9604 215.386 52.5264 215.435 54.8452L217.586 54.8004C217.538 52.5052 217.514 48.9579 217.514 44.1529H215.362ZM227.767 78.758L227.01 79.5237L227.02 79.5331L227.767 78.758ZM227.767 49.1995L227.02 48.4244L227.015 48.429L227.767 49.1995ZM259.776 46.3157L259.3 47.2806L259.308 47.2843L259.315 47.2879L259.776 46.3157ZM268.067 53.5972L267.136 54.1358L267.139 54.1421L268.067 53.5972ZM264.535 78.758L263.812 77.961L263.807 77.9652L264.535 78.758ZM253.216 58.1391L252.455 58.9L252.461 58.906L252.467 58.912L253.216 58.1391ZM239.374 58.067L238.6 57.3187L239.374 58.067ZM239.374 69.8905L240.147 69.1422L239.374 69.8905ZM245.934 83.3053C237.852 83.3053 232.123 81.4589 228.513 77.9829L227.02 79.5331C231.197 83.555 237.579 85.4574 245.934 85.4574V83.3053ZM228.523 77.9924C224.911 74.4262 223.075 69.7423 223.075 63.8346H220.923C220.923 70.2309 222.932 75.4959 227.011 79.5237L228.523 77.9924ZM223.075 63.8346C223.075 58.079 224.906 53.4913 228.518 49.9699L227.015 48.429C222.937 52.4054 220.923 57.5744 220.923 63.8346H223.075ZM228.513 49.9746C232.123 46.4986 237.852 44.6522 245.934 44.6522V42.5001C237.579 42.5001 231.197 44.4025 227.02 48.4244L228.513 49.9746ZM245.934 44.6522C251.35 44.6522 255.789 45.5478 259.3 47.2806L260.253 45.3508C256.362 43.4309 251.573 42.5001 245.934 42.5001V44.6522ZM259.315 47.2879C262.901 48.9888 265.484 51.2788 267.136 54.1358L268.999 53.0586C267.094 49.7636 264.15 47.1992 260.238 45.3435L259.315 47.2879ZM267.139 54.1421C268.813 56.9915 269.659 60.2131 269.659 63.8346H271.811C271.811 59.8621 270.878 56.2588 268.995 53.0523L267.139 54.1421ZM269.659 63.8346C269.659 69.7686 267.694 74.44 263.812 77.961L265.257 79.5551C269.642 75.5783 271.811 70.3007 271.811 63.8346H269.659ZM263.807 77.9652C259.999 81.4593 254.111 83.3053 245.934 83.3053V85.4574C254.387 85.4574 260.899 83.5546 265.262 79.5508L263.807 77.9652ZM246.223 73.2014C249.499 73.2014 252.15 72.4213 253.964 70.6633L252.467 69.1176C251.206 70.3395 249.195 71.0493 246.223 71.0493V73.2014ZM253.964 70.6633C255.747 68.9367 256.599 66.6444 256.599 63.9067H254.447C254.447 66.1674 253.761 67.8644 252.467 69.1176L253.964 70.6633ZM256.599 63.9067C256.599 61.2924 255.734 59.0802 253.964 57.3663L252.467 58.912C253.774 60.1779 254.447 61.8108 254.447 63.9067H256.599ZM253.977 57.3783C252.163 55.5645 249.507 54.7561 246.223 54.7561V56.9081C249.187 56.9081 251.193 57.6378 252.455 58.9L253.977 57.3783ZM246.223 54.7561C242.954 54.7561 240.328 55.5334 238.6 57.3187L240.147 58.8153C241.303 57.6208 243.244 56.9081 246.223 56.9081V54.7561ZM238.6 57.3187C236.934 59.0413 236.135 61.2721 236.135 63.9067H238.287C238.287 61.735 238.93 60.0727 240.147 58.8153L238.6 57.3187ZM236.135 63.9067C236.135 66.6242 236.926 68.9082 238.6 70.6388L240.147 69.1422C238.938 67.8928 238.287 66.1876 238.287 63.9067H236.135ZM238.6 70.6388C240.328 72.4241 242.954 73.2014 246.223 73.2014V71.0493C243.244 71.0493 241.303 70.3367 240.147 69.1422L238.6 70.6388ZM313.291 72.5579L312.226 72.7101L314.342 72.7885L313.291 72.5579ZM319.491 44.2971V43.221H318.626L318.44 44.0665L319.491 44.2971ZM333.838 44.2971L334.892 44.5114L335.155 43.221H333.838V44.2971ZM325.835 83.6604V84.7365H326.715L326.89 83.8748L325.835 83.6604ZM306.586 83.6604L305.542 83.9185L305.744 84.7365H306.586V83.6604ZM302.044 65.2764L303.089 65.0184L302.106 61.0416L301.008 64.9878L302.044 65.2764ZM296.926 83.6604V84.7365H297.743L297.962 83.9491L296.926 83.6604ZM278.397 83.6604L277.343 83.8748L277.518 84.7365H278.397V83.6604ZM270.395 44.2971V43.221H269.078L269.341 44.5114L270.395 44.2971ZM284.742 44.2971L285.793 44.0685L285.609 43.221H284.742V44.2971ZM290.87 72.4858L289.818 72.7144L291.934 72.6437L290.87 72.4858ZM295.051 44.2971V43.221H294.123L293.987 44.1392L295.051 44.2971ZM309.254 44.2971L310.319 44.1449L310.187 43.221H309.254V44.2971ZM314.342 72.7885L320.542 44.5277L318.44 44.0665L312.24 72.3274L314.342 72.7885ZM319.491 45.3731H333.838V43.221H319.491V45.3731ZM332.783 44.0827L324.781 83.4461L326.89 83.8748L334.892 44.5114L332.783 44.0827ZM325.835 82.5844H306.586V84.7365H325.835V82.5844ZM307.631 83.4024L303.089 65.0184L301 65.5345L305.542 83.9185L307.631 83.4024ZM301.008 64.9878L295.889 83.3718L297.962 83.9491L303.081 65.5651L301.008 64.9878ZM296.926 82.5844H278.397V84.7365H296.926V82.5844ZM279.452 83.4461L271.449 44.0827L269.341 44.5114L277.343 83.8748L279.452 83.4461ZM270.395 45.3731H284.742V43.221H270.395V45.3731ZM283.69 44.5257L289.818 72.7144L291.921 72.2573L285.793 44.0685L283.69 44.5257ZM291.934 72.6437L296.116 44.455L293.987 44.1392L289.805 72.328L291.934 72.6437ZM295.051 45.3731H309.254V43.221H295.051V45.3731ZM308.189 44.4492L312.226 72.7101L314.356 72.4058L310.319 44.1449L308.189 44.4492Z" fill="white" mask="url(#path-1-outside-1_1_57)"/>
<g filter="url(#filter0_d_1_57)">
<path d="M3 30.6604V83.6604H53" stroke="#B0FF37" stroke-width="4" stroke-linecap="round"/>
</g>
<path d="M4.382 118.828C3.598 118.828 2.84667 118.726 2.128 118.52C1.40933 118.306 0.830667 118.03 0.392 117.694L1.162 115.986C1.582 116.285 2.07667 116.532 2.646 116.728C3.22467 116.915 3.808 117.008 4.396 117.008C4.844 117.008 5.20333 116.966 5.474 116.882C5.754 116.789 5.95933 116.663 6.09 116.504C6.22067 116.346 6.286 116.164 6.286 115.958C6.286 115.697 6.18333 115.492 5.978 115.342C5.77267 115.184 5.502 115.058 5.166 114.964C4.83 114.862 4.45667 114.768 4.046 114.684C3.64467 114.591 3.23867 114.479 2.828 114.348C2.42667 114.218 2.058 114.05 1.722 113.844C1.386 113.639 1.11067 113.368 0.896 113.032C0.690667 112.696 0.588 112.267 0.588 111.744C0.588 111.184 0.737333 110.676 1.036 110.218C1.344 109.752 1.80133 109.383 2.408 109.112C3.024 108.832 3.794 108.692 4.718 108.692C5.334 108.692 5.94067 108.767 6.538 108.916C7.13533 109.056 7.66267 109.271 8.12 109.56L7.42 111.282C6.96267 111.021 6.50533 110.83 6.048 110.708C5.59067 110.578 5.14267 110.512 4.704 110.512C4.26533 110.512 3.906 110.564 3.626 110.666C3.346 110.769 3.14533 110.904 3.024 111.072C2.90267 111.231 2.842 111.418 2.842 111.632C2.842 111.884 2.94467 112.09 3.15 112.248C3.35533 112.398 3.626 112.519 3.962 112.612C4.298 112.706 4.66667 112.799 5.068 112.892C5.47867 112.986 5.88467 113.093 6.286 113.214C6.69667 113.336 7.07 113.499 7.406 113.704C7.742 113.91 8.01267 114.18 8.218 114.516C8.43267 114.852 8.54 115.277 8.54 115.79C8.54 116.341 8.386 116.845 8.078 117.302C7.77 117.76 7.308 118.128 6.692 118.408C6.08533 118.688 5.31533 118.828 4.382 118.828ZM14.5557 118.66V117.19L14.4157 116.868V114.236C14.4157 113.77 14.2711 113.406 13.9817 113.144C13.7017 112.883 13.2677 112.752 12.6797 112.752C12.2784 112.752 11.8817 112.818 11.4897 112.948C11.1071 113.07 10.7804 113.238 10.5097 113.452L9.72573 111.926C10.1364 111.637 10.6311 111.413 11.2097 111.254C11.7884 111.096 12.3764 111.016 12.9737 111.016C14.1217 111.016 15.0131 111.287 15.6477 111.828C16.2824 112.37 16.5997 113.214 16.5997 114.362V118.66H14.5557ZM12.2597 118.772C11.6717 118.772 11.1677 118.674 10.7477 118.478C10.3277 118.273 10.0057 117.998 9.78173 117.652C9.55773 117.307 9.44573 116.92 9.44573 116.49C9.44573 116.042 9.55307 115.65 9.76773 115.314C9.99173 114.978 10.3417 114.717 10.8177 114.53C11.2937 114.334 11.9144 114.236 12.6797 114.236H14.6817V115.51H12.9177C12.4044 115.51 12.0497 115.594 11.8537 115.762C11.6671 115.93 11.5737 116.14 11.5737 116.392C11.5737 116.672 11.6811 116.896 11.8957 117.064C12.1197 117.223 12.4231 117.302 12.8057 117.302C13.1697 117.302 13.4964 117.218 13.7857 117.05C14.0751 116.873 14.2851 116.616 14.4157 116.28L14.7517 117.288C14.5931 117.774 14.3037 118.142 13.8837 118.394C13.4637 118.646 12.9224 118.772 12.2597 118.772ZM18.8424 118.66V110.96C18.8424 110.111 19.0944 109.434 19.5984 108.93C20.1024 108.417 20.821 108.16 21.7544 108.16C22.0717 108.16 22.375 108.193 22.6644 108.258C22.963 108.324 23.215 108.426 23.4204 108.566L22.8464 110.148C22.725 110.064 22.5897 109.999 22.4404 109.952C22.291 109.906 22.1324 109.882 21.9644 109.882C21.647 109.882 21.3997 109.976 21.2224 110.162C21.0544 110.34 20.9704 110.61 20.9704 110.974V111.674L21.0264 112.612V118.66H18.8424ZM17.6804 112.976V111.296H22.9024V112.976H17.6804ZM27.6327 118.772C26.7741 118.772 26.0181 118.604 25.3647 118.268C24.7207 117.932 24.2214 117.475 23.8667 116.896C23.5121 116.308 23.3347 115.641 23.3347 114.894C23.3347 114.138 23.5074 113.471 23.8527 112.892C24.2074 112.304 24.6881 111.847 25.2947 111.52C25.9014 111.184 26.5874 111.016 27.3527 111.016C28.0901 111.016 28.7527 111.175 29.3407 111.492C29.9381 111.8 30.4094 112.248 30.7547 112.836C31.1001 113.415 31.2727 114.11 31.2727 114.922C31.2727 115.006 31.2681 115.104 31.2587 115.216C31.2494 115.319 31.2401 115.417 31.2307 115.51H25.1127V114.236H30.0827L29.2427 114.614C29.2427 114.222 29.1634 113.882 29.0047 113.592C28.8461 113.303 28.6267 113.079 28.3467 112.92C28.0667 112.752 27.7401 112.668 27.3667 112.668C26.9934 112.668 26.6621 112.752 26.3727 112.92C26.0927 113.079 25.8734 113.308 25.7147 113.606C25.5561 113.896 25.4767 114.241 25.4767 114.642V114.978C25.4767 115.389 25.5654 115.753 25.7427 116.07C25.9294 116.378 26.1861 116.616 26.5127 116.784C26.8487 116.943 27.2407 117.022 27.6887 117.022C28.0901 117.022 28.4401 116.962 28.7387 116.84C29.0467 116.719 29.3267 116.537 29.5787 116.294L30.7407 117.554C30.3954 117.946 29.9614 118.25 29.4387 118.464C28.9161 118.67 28.3141 118.772 27.6327 118.772ZM36.2688 121.488C35.5594 121.488 34.8734 121.4 34.2108 121.222C33.5574 121.054 33.0114 120.798 32.5728 120.452L33.4408 118.884C33.7581 119.146 34.1594 119.351 34.6448 119.5C35.1394 119.659 35.6248 119.738 36.1008 119.738C36.8754 119.738 37.4354 119.566 37.7808 119.22C38.1354 118.875 38.3128 118.362 38.3128 117.68V116.546L38.4528 114.656L38.4248 112.752V111.128H40.4968V117.4C40.4968 118.8 40.1328 119.832 39.4048 120.494C38.6768 121.157 37.6314 121.488 36.2688 121.488ZM35.9328 118.296C35.2328 118.296 34.5981 118.147 34.0288 117.848C33.4688 117.54 33.0161 117.116 32.6708 116.574C32.3348 116.024 32.1668 115.384 32.1668 114.656C32.1668 113.919 32.3348 113.28 32.6708 112.738C33.0161 112.188 33.4688 111.763 34.0288 111.464C34.5981 111.166 35.2328 111.016 35.9328 111.016C36.5674 111.016 37.1274 111.147 37.6128 111.408C38.0981 111.66 38.4761 112.057 38.7468 112.598C39.0174 113.13 39.1528 113.816 39.1528 114.656C39.1528 115.487 39.0174 116.173 38.7468 116.714C38.4761 117.246 38.0981 117.643 37.6128 117.904C37.1274 118.166 36.5674 118.296 35.9328 118.296ZM36.3668 116.504C36.7494 116.504 37.0901 116.43 37.3888 116.28C37.6874 116.122 37.9208 115.902 38.0888 115.622C38.2568 115.342 38.3408 115.02 38.3408 114.656C38.3408 114.283 38.2568 113.961 38.0888 113.69C37.9208 113.41 37.6874 113.196 37.3888 113.046C37.0901 112.888 36.7494 112.808 36.3668 112.808C35.9841 112.808 35.6434 112.888 35.3448 113.046C35.0461 113.196 34.8081 113.41 34.6308 113.69C34.4628 113.961 34.3788 114.283 34.3788 114.656C34.3788 115.02 34.4628 115.342 34.6308 115.622C34.8081 115.902 35.0461 116.122 35.3448 116.28C35.6434 116.43 35.9841 116.504 36.3668 116.504ZM45.7075 118.772C45.0822 118.772 44.5222 118.651 44.0275 118.408C43.5422 118.166 43.1642 117.797 42.8935 117.302C42.6228 116.798 42.4875 116.159 42.4875 115.384V111.128H44.6715V115.062C44.6715 115.688 44.8022 116.15 45.0635 116.448C45.3342 116.738 45.7122 116.882 46.1975 116.882C46.5335 116.882 46.8322 116.812 47.0935 116.672C47.3548 116.523 47.5602 116.299 47.7095 116C47.8588 115.692 47.9335 115.31 47.9335 114.852V111.128H50.1175V118.66H48.0455V116.588L48.4235 117.19C48.1715 117.713 47.7982 118.11 47.3035 118.38C46.8182 118.642 46.2862 118.772 45.7075 118.772ZM56.7608 118.66V117.19L56.6208 116.868V114.236C56.6208 113.77 56.4761 113.406 56.1868 113.144C55.9068 112.883 55.4728 112.752 54.8848 112.752C54.4835 112.752 54.0868 112.818 53.6948 112.948C53.3121 113.07 52.9855 113.238 52.7148 113.452L51.9308 111.926C52.3415 111.637 52.8361 111.413 53.4148 111.254C53.9935 111.096 54.5815 111.016 55.1788 111.016C56.3268 111.016 57.2181 111.287 57.8528 111.828C58.4875 112.37 58.8048 113.214 58.8048 114.362V118.66H56.7608ZM54.4648 118.772C53.8768 118.772 53.3728 118.674 52.9528 118.478C52.5328 118.273 52.2108 117.998 51.9868 117.652C51.7628 117.307 51.6508 116.92 51.6508 116.49C51.6508 116.042 51.7581 115.65 51.9728 115.314C52.1968 114.978 52.5468 114.717 53.0228 114.53C53.4988 114.334 54.1195 114.236 54.8848 114.236H56.8868V115.51H55.1228C54.6095 115.51 54.2548 115.594 54.0588 115.762C53.8721 115.93 53.7788 116.14 53.7788 116.392C53.7788 116.672 53.8861 116.896 54.1008 117.064C54.3248 117.223 54.6281 117.302 55.0108 117.302C55.3748 117.302 55.7015 117.218 55.9908 117.05C56.2801 116.873 56.4901 116.616 56.6208 116.28L56.9568 117.288C56.7981 117.774 56.5088 118.142 56.0888 118.394C55.6688 118.646 55.1275 118.772 54.4648 118.772ZM60.7814 118.66V111.128H62.8674V113.256L62.5734 112.64C62.7974 112.108 63.1568 111.707 63.6514 111.436C64.1461 111.156 64.7481 111.016 65.4574 111.016V113.032C65.3641 113.023 65.2801 113.018 65.2054 113.018C65.1308 113.009 65.0514 113.004 64.9674 113.004C64.3701 113.004 63.8848 113.177 63.5114 113.522C63.1474 113.858 62.9654 114.386 62.9654 115.104V118.66H60.7814ZM69.9354 118.772C69.226 118.772 68.5867 118.614 68.0174 118.296C67.448 117.97 66.9954 117.517 66.6594 116.938C66.3327 116.36 66.1694 115.678 66.1694 114.894C66.1694 114.101 66.3327 113.415 66.6594 112.836C66.9954 112.258 67.448 111.81 68.0174 111.492C68.5867 111.175 69.226 111.016 69.9354 111.016C70.57 111.016 71.1254 111.156 71.6014 111.436C72.0774 111.716 72.446 112.141 72.7074 112.71C72.9687 113.28 73.0994 114.008 73.0994 114.894C73.0994 115.772 72.9734 116.5 72.7214 117.078C72.4694 117.648 72.1054 118.072 71.6294 118.352C71.1627 118.632 70.598 118.772 69.9354 118.772ZM70.3134 116.98C70.668 116.98 70.99 116.896 71.2794 116.728C71.5687 116.56 71.7974 116.322 71.9654 116.014C72.1427 115.697 72.2314 115.324 72.2314 114.894C72.2314 114.456 72.1427 114.082 71.9654 113.774C71.7974 113.466 71.5687 113.228 71.2794 113.06C70.99 112.892 70.668 112.808 70.3134 112.808C69.9494 112.808 69.6227 112.892 69.3334 113.06C69.044 113.228 68.8107 113.466 68.6334 113.774C68.4654 114.082 68.3814 114.456 68.3814 114.894C68.3814 115.324 68.4654 115.697 68.6334 116.014C68.8107 116.322 69.044 116.56 69.3334 116.728C69.6227 116.896 69.9494 116.98 70.3134 116.98ZM72.2874 118.66V117.12L72.3294 114.88L72.1894 112.654V108.272H74.3734V118.66H72.2874ZM76.3947 118.66V111.128H78.5787V118.66H76.3947ZM77.4867 110.078C77.0854 110.078 76.7587 109.962 76.5067 109.728C76.2547 109.495 76.1287 109.206 76.1287 108.86C76.1287 108.515 76.2547 108.226 76.5067 107.992C76.7587 107.759 77.0854 107.642 77.4867 107.642C77.8881 107.642 78.2147 107.754 78.4667 107.978C78.7187 108.193 78.8447 108.473 78.8447 108.818C78.8447 109.182 78.7187 109.486 78.4667 109.728C78.2241 109.962 77.8974 110.078 77.4867 110.078ZM85.1837 111.016C85.781 111.016 86.313 111.138 86.7797 111.38C87.2557 111.614 87.629 111.978 87.8997 112.472C88.1703 112.958 88.3057 113.583 88.3057 114.348V118.66H86.1217V114.684C86.1217 114.078 85.9863 113.63 85.7157 113.34C85.4543 113.051 85.081 112.906 84.5957 112.906C84.2503 112.906 83.9377 112.981 83.6577 113.13C83.387 113.27 83.1723 113.49 83.0137 113.788C82.8643 114.087 82.7897 114.47 82.7897 114.936V118.66H80.6057V111.128H82.6917V113.214L82.2997 112.584C82.5703 112.08 82.9577 111.693 83.4617 111.422C83.9657 111.152 84.5397 111.016 85.1837 111.016ZM93.882 121.488C93.1727 121.488 92.4867 121.4 91.824 121.222C91.1707 121.054 90.6247 120.798 90.186 120.452L91.054 118.884C91.3714 119.146 91.7727 119.351 92.258 119.5C92.7527 119.659 93.238 119.738 93.714 119.738C94.4887 119.738 95.0487 119.566 95.394 119.22C95.7487 118.875 95.926 118.362 95.926 117.68V116.546L96.066 114.656L96.038 112.752V111.128H98.11V117.4C98.11 118.8 97.746 119.832 97.018 120.494C96.29 121.157 95.2447 121.488 93.882 121.488ZM93.546 118.296C92.846 118.296 92.2114 118.147 91.642 117.848C91.082 117.54 90.6294 117.116 90.284 116.574C89.948 116.024 89.78 115.384 89.78 114.656C89.78 113.919 89.948 113.28 90.284 112.738C90.6294 112.188 91.082 111.763 91.642 111.464C92.2114 111.166 92.846 111.016 93.546 111.016C94.1807 111.016 94.7407 111.147 95.226 111.408C95.7114 111.66 96.0894 112.057 96.36 112.598C96.6307 113.13 96.766 113.816 96.766 114.656C96.766 115.487 96.6307 116.173 96.36 116.714C96.0894 117.246 95.7114 117.643 95.226 117.904C94.7407 118.166 94.1807 118.296 93.546 118.296ZM93.98 116.504C94.3627 116.504 94.7034 116.43 95.002 116.28C95.3007 116.122 95.534 115.902 95.702 115.622C95.87 115.342 95.954 115.02 95.954 114.656C95.954 114.283 95.87 113.961 95.702 113.69C95.534 113.41 95.3007 113.196 95.002 113.046C94.7034 112.888 94.3627 112.808 93.98 112.808C93.5974 112.808 93.2567 112.888 92.958 113.046C92.6594 113.196 92.4214 113.41 92.244 113.69C92.076 113.961 91.992 114.283 91.992 114.656C91.992 115.02 92.076 115.342 92.244 115.622C92.4214 115.902 92.6594 116.122 92.958 116.28C93.2567 116.43 93.5974 116.504 93.98 116.504ZM107.482 118.828C106.698 118.828 105.946 118.726 105.228 118.52C104.509 118.306 103.93 118.03 103.492 117.694L104.262 115.986C104.682 116.285 105.176 116.532 105.746 116.728C106.324 116.915 106.908 117.008 107.496 117.008C107.944 117.008 108.303 116.966 108.574 116.882C108.854 116.789 109.059 116.663 109.19 116.504C109.32 116.346 109.386 116.164 109.386 115.958C109.386 115.697 109.283 115.492 109.078 115.342C108.872 115.184 108.602 115.058 108.266 114.964C107.93 114.862 107.556 114.768 107.146 114.684C106.744 114.591 106.338 114.479 105.928 114.348C105.526 114.218 105.158 114.05 104.822 113.844C104.486 113.639 104.21 113.368 103.996 113.032C103.79 112.696 103.688 112.267 103.688 111.744C103.688 111.184 103.837 110.676 104.136 110.218C104.444 109.752 104.901 109.383 105.508 109.112C106.124 108.832 106.894 108.692 107.818 108.692C108.434 108.692 109.04 108.767 109.638 108.916C110.235 109.056 110.762 109.271 111.22 109.56L110.52 111.282C110.062 111.021 109.605 110.83 109.148 110.708C108.69 110.578 108.242 110.512 107.804 110.512C107.365 110.512 107.006 110.564 106.726 110.666C106.446 110.769 106.245 110.904 106.124 111.072C106.002 111.231 105.942 111.418 105.942 111.632C105.942 111.884 106.044 112.09 106.25 112.248C106.455 112.398 106.726 112.519 107.062 112.612C107.398 112.706 107.766 112.799 108.168 112.892C108.578 112.986 108.984 113.093 109.386 113.214C109.796 113.336 110.17 113.499 110.506 113.704C110.842 113.91 111.112 114.18 111.318 114.516C111.532 114.852 111.64 115.277 111.64 115.79C111.64 116.341 111.486 116.845 111.178 117.302C110.87 117.76 110.408 118.128 109.792 118.408C109.185 118.688 108.415 118.828 107.482 118.828ZM116.213 118.772C115.588 118.772 115.028 118.651 114.533 118.408C114.048 118.166 113.67 117.797 113.399 117.302C113.129 116.798 112.993 116.159 112.993 115.384V111.128H115.177V115.062C115.177 115.688 115.308 116.15 115.569 116.448C115.84 116.738 116.218 116.882 116.703 116.882C117.039 116.882 117.338 116.812 117.599 116.672C117.861 116.523 118.066 116.299 118.215 116C118.365 115.692 118.439 115.31 118.439 114.852V111.128H120.623V118.66H118.551V116.588L118.929 117.19C118.677 117.713 118.304 118.11 117.809 118.38C117.324 118.642 116.792 118.772 116.213 118.772ZM127.099 118.772C126.464 118.772 125.909 118.632 125.433 118.352C124.957 118.072 124.583 117.648 124.313 117.078C124.051 116.5 123.921 115.772 123.921 114.894C123.921 114.008 124.047 113.28 124.299 112.71C124.551 112.141 124.915 111.716 125.391 111.436C125.867 111.156 126.436 111.016 127.099 111.016C127.808 111.016 128.443 111.18 129.003 111.506C129.572 111.824 130.02 112.272 130.347 112.85C130.683 113.429 130.851 114.11 130.851 114.894C130.851 115.688 130.683 116.374 130.347 116.952C130.02 117.531 129.572 117.979 129.003 118.296C128.443 118.614 127.808 118.772 127.099 118.772ZM122.647 121.376V111.128H124.733V112.668L124.691 114.908L124.831 117.134V121.376H122.647ZM126.721 116.98C127.085 116.98 127.407 116.896 127.687 116.728C127.976 116.56 128.205 116.322 128.373 116.014C128.55 115.697 128.639 115.324 128.639 114.894C128.639 114.456 128.55 114.082 128.373 113.774C128.205 113.466 127.976 113.228 127.687 113.06C127.407 112.892 127.085 112.808 126.721 112.808C126.357 112.808 126.03 112.892 125.741 113.06C125.451 113.228 125.223 113.466 125.055 113.774C124.887 114.082 124.803 114.456 124.803 114.894C124.803 115.324 124.887 115.697 125.055 116.014C125.223 116.322 125.451 116.56 125.741 116.728C126.03 116.896 126.357 116.98 126.721 116.98ZM136.765 118.772C136.13 118.772 135.575 118.632 135.099 118.352C134.623 118.072 134.249 117.648 133.979 117.078C133.717 116.5 133.587 115.772 133.587 114.894C133.587 114.008 133.713 113.28 133.965 112.71C134.217 112.141 134.581 111.716 135.057 111.436C135.533 111.156 136.102 111.016 136.765 111.016C137.474 111.016 138.109 111.18 138.669 111.506C139.238 111.824 139.686 112.272 140.013 112.85C140.349 113.429 140.517 114.11 140.517 114.894C140.517 115.688 140.349 116.374 140.013 116.952C139.686 117.531 139.238 117.979 138.669 118.296C138.109 118.614 137.474 118.772 136.765 118.772ZM132.313 121.376V111.128H134.399V112.668L134.357 114.908L134.497 117.134V121.376H132.313ZM136.387 116.98C136.751 116.98 137.073 116.896 137.353 116.728C137.642 116.56 137.871 116.322 138.039 116.014C138.216 115.697 138.305 115.324 138.305 114.894C138.305 114.456 138.216 114.082 138.039 113.774C137.871 113.466 137.642 113.228 137.353 113.06C137.073 112.892 136.751 112.808 136.387 112.808C136.023 112.808 135.696 112.892 135.407 113.06C135.117 113.228 134.889 113.466 134.721 113.774C134.553 114.082 134.469 114.456 134.469 114.894C134.469 115.324 134.553 115.697 134.721 116.014C134.889 116.322 135.117 116.56 135.407 116.728C135.696 116.896 136.023 116.98 136.387 116.98ZM141.979 118.66V108.272H144.163V118.66H141.979ZM147.142 121.488C146.75 121.488 146.362 121.428 145.98 121.306C145.597 121.185 145.284 121.017 145.042 120.802L145.84 119.248C146.008 119.398 146.199 119.514 146.414 119.598C146.638 119.682 146.857 119.724 147.072 119.724C147.38 119.724 147.622 119.65 147.8 119.5C147.986 119.36 148.154 119.122 148.304 118.786L148.696 117.862L148.864 117.624L151.566 111.128H153.666L150.264 119.122C150.021 119.729 149.741 120.205 149.424 120.55C149.116 120.896 148.77 121.138 148.388 121.278C148.014 121.418 147.599 121.488 147.142 121.488ZM148.43 118.954L145.07 111.128H147.324L149.928 117.428L148.43 118.954ZM163.366 118.828C162.61 118.828 161.905 118.707 161.252 118.464C160.608 118.212 160.048 117.858 159.572 117.4C159.096 116.943 158.722 116.406 158.452 115.79C158.19 115.174 158.06 114.498 158.06 113.76C158.06 113.023 158.19 112.346 158.452 111.73C158.722 111.114 159.096 110.578 159.572 110.12C160.057 109.663 160.622 109.313 161.266 109.07C161.91 108.818 162.614 108.692 163.38 108.692C164.229 108.692 164.994 108.842 165.676 109.14C166.366 109.43 166.945 109.859 167.412 110.428L165.956 111.772C165.62 111.39 165.246 111.105 164.836 110.918C164.425 110.722 163.977 110.624 163.492 110.624C163.034 110.624 162.614 110.699 162.232 110.848C161.849 110.998 161.518 111.212 161.238 111.492C160.958 111.772 160.738 112.104 160.58 112.486C160.43 112.869 160.356 113.294 160.356 113.76C160.356 114.227 160.43 114.652 160.58 115.034C160.738 115.417 160.958 115.748 161.238 116.028C161.518 116.308 161.849 116.523 162.232 116.672C162.614 116.822 163.034 116.896 163.492 116.896C163.977 116.896 164.425 116.803 164.836 116.616C165.246 116.42 165.62 116.126 165.956 115.734L167.412 117.078C166.945 117.648 166.366 118.082 165.676 118.38C164.994 118.679 164.224 118.828 163.366 118.828ZM173.367 111.016C173.965 111.016 174.497 111.138 174.963 111.38C175.439 111.614 175.813 111.978 176.083 112.472C176.354 112.958 176.489 113.583 176.489 114.348V118.66H174.305V114.684C174.305 114.078 174.17 113.63 173.899 113.34C173.638 113.051 173.265 112.906 172.779 112.906C172.434 112.906 172.121 112.981 171.841 113.13C171.571 113.27 171.356 113.49 171.197 113.788C171.048 114.087 170.973 114.47 170.973 114.936V118.66H168.789V108.272H170.973V113.214L170.483 112.584C170.754 112.08 171.141 111.693 171.645 111.422C172.149 111.152 172.723 111.016 173.367 111.016ZM183.089 118.66V117.19L182.949 116.868V114.236C182.949 113.77 182.804 113.406 182.515 113.144C182.235 112.883 181.801 112.752 181.213 112.752C180.812 112.752 180.415 112.818 180.023 112.948C179.64 113.07 179.314 113.238 179.043 113.452L178.259 111.926C178.67 111.637 179.164 111.413 179.743 111.254C180.322 111.096 180.91 111.016 181.507 111.016C182.655 111.016 183.546 111.287 184.181 111.828C184.816 112.37 185.133 113.214 185.133 114.362V118.66H183.089ZM180.793 118.772C180.205 118.772 179.701 118.674 179.281 118.478C178.861 118.273 178.539 117.998 178.315 117.652C178.091 117.307 177.979 116.92 177.979 116.49C177.979 116.042 178.086 115.65 178.301 115.314C178.525 114.978 178.875 114.717 179.351 114.53C179.827 114.334 180.448 114.236 181.213 114.236H183.215V115.51H181.451C180.938 115.51 180.583 115.594 180.387 115.762C180.2 115.93 180.107 116.14 180.107 116.392C180.107 116.672 180.214 116.896 180.429 117.064C180.653 117.223 180.956 117.302 181.339 117.302C181.703 117.302 182.03 117.218 182.319 117.05C182.608 116.873 182.818 116.616 182.949 116.28L183.285 117.288C183.126 117.774 182.837 118.142 182.417 118.394C181.997 118.646 181.456 118.772 180.793 118.772ZM187.11 118.66V111.128H189.294V118.66H187.11ZM188.202 110.078C187.8 110.078 187.474 109.962 187.222 109.728C186.97 109.495 186.844 109.206 186.844 108.86C186.844 108.515 186.97 108.226 187.222 107.992C187.474 107.759 187.8 107.642 188.202 107.642C188.603 107.642 188.93 107.754 189.182 107.978C189.434 108.193 189.56 108.473 189.56 108.818C189.56 109.182 189.434 109.486 189.182 109.728C188.939 109.962 188.612 110.078 188.202 110.078ZM195.899 111.016C196.496 111.016 197.028 111.138 197.495 111.38C197.971 111.614 198.344 111.978 198.615 112.472C198.885 112.958 199.021 113.583 199.021 114.348V118.66H196.837V114.684C196.837 114.078 196.701 113.63 196.431 113.34C196.169 113.051 195.796 112.906 195.311 112.906C194.965 112.906 194.653 112.981 194.373 113.13C194.102 113.27 193.887 113.49 193.729 113.788C193.579 114.087 193.505 114.47 193.505 114.936V118.66H191.321V111.128H193.407V113.214L193.015 112.584C193.285 112.08 193.673 111.693 194.177 111.422C194.681 111.152 195.255 111.016 195.899 111.016ZM203.534 118.772C202.89 118.772 202.27 118.698 201.672 118.548C201.084 118.39 200.618 118.194 200.272 117.96L201 116.392C201.346 116.607 201.752 116.784 202.218 116.924C202.694 117.055 203.161 117.12 203.618 117.12C204.122 117.12 204.477 117.06 204.682 116.938C204.897 116.817 205.004 116.649 205.004 116.434C205.004 116.257 204.92 116.126 204.752 116.042C204.594 115.949 204.379 115.879 204.108 115.832C203.838 115.786 203.539 115.739 203.212 115.692C202.895 115.646 202.573 115.585 202.246 115.51C201.92 115.426 201.621 115.305 201.35 115.146C201.08 114.988 200.86 114.773 200.692 114.502C200.534 114.232 200.454 113.882 200.454 113.452C200.454 112.976 200.59 112.556 200.86 112.192C201.14 111.828 201.542 111.544 202.064 111.338C202.587 111.124 203.212 111.016 203.94 111.016C204.454 111.016 204.976 111.072 205.508 111.184C206.04 111.296 206.484 111.46 206.838 111.674L206.11 113.228C205.746 113.014 205.378 112.869 205.004 112.794C204.64 112.71 204.286 112.668 203.94 112.668C203.455 112.668 203.1 112.734 202.876 112.864C202.652 112.995 202.54 113.163 202.54 113.368C202.54 113.555 202.62 113.695 202.778 113.788C202.946 113.882 203.166 113.956 203.436 114.012C203.707 114.068 204.001 114.12 204.318 114.166C204.645 114.204 204.972 114.264 205.298 114.348C205.625 114.432 205.919 114.554 206.18 114.712C206.451 114.862 206.67 115.072 206.838 115.342C207.006 115.604 207.09 115.949 207.09 116.378C207.09 116.845 206.95 117.26 206.67 117.624C206.39 117.979 205.984 118.259 205.452 118.464C204.93 118.67 204.29 118.772 203.534 118.772ZM208.06 120.816L208.984 117.456L209.292 118.716C208.89 118.716 208.559 118.6 208.298 118.366C208.046 118.133 207.92 117.811 207.92 117.4C207.92 116.99 208.05 116.663 208.312 116.42C208.573 116.178 208.895 116.056 209.278 116.056C209.67 116.056 209.992 116.182 210.244 116.434C210.496 116.677 210.622 116.999 210.622 117.4C210.622 117.522 210.612 117.643 210.594 117.764C210.575 117.876 210.538 118.016 210.482 118.184C210.435 118.343 210.356 118.548 210.244 118.8L209.446 120.816H208.06ZM220.981 118.828C220.206 118.828 219.487 118.702 218.825 118.45C218.171 118.198 217.602 117.844 217.117 117.386C216.641 116.929 216.267 116.392 215.997 115.776C215.735 115.16 215.605 114.488 215.605 113.76C215.605 113.032 215.735 112.36 215.997 111.744C216.267 111.128 216.645 110.592 217.131 110.134C217.616 109.677 218.185 109.322 218.839 109.07C219.492 108.818 220.201 108.692 220.967 108.692C221.741 108.692 222.451 108.818 223.095 109.07C223.748 109.322 224.313 109.677 224.789 110.134C225.274 110.592 225.652 111.128 225.923 111.744C226.193 112.351 226.329 113.023 226.329 113.76C226.329 114.488 226.193 115.165 225.923 115.79C225.652 116.406 225.274 116.943 224.789 117.4C224.313 117.848 223.748 118.198 223.095 118.45C222.451 118.702 221.746 118.828 220.981 118.828ZM220.967 116.896C221.405 116.896 221.807 116.822 222.171 116.672C222.544 116.523 222.871 116.308 223.151 116.028C223.431 115.748 223.645 115.417 223.795 115.034C223.953 114.652 224.033 114.227 224.033 113.76C224.033 113.294 223.953 112.869 223.795 112.486C223.645 112.104 223.431 111.772 223.151 111.492C222.88 111.212 222.558 110.998 222.185 110.848C221.811 110.699 221.405 110.624 220.967 110.624C220.528 110.624 220.122 110.699 219.749 110.848C219.385 110.998 219.063 111.212 218.783 111.492C218.503 111.772 218.283 112.104 218.125 112.486C217.975 112.869 217.901 113.294 217.901 113.76C217.901 114.218 217.975 114.642 218.125 115.034C218.283 115.417 218.498 115.748 218.769 116.028C219.049 116.308 219.375 116.523 219.749 116.672C220.122 116.822 220.528 116.896 220.967 116.896ZM232.457 111.016C233.054 111.016 233.586 111.138 234.053 111.38C234.529 111.614 234.902 111.978 235.173 112.472C235.444 112.958 235.579 113.583 235.579 114.348V118.66H233.395V114.684C233.395 114.078 233.26 113.63 232.989 113.34C232.728 113.051 232.354 112.906 231.869 112.906C231.524 112.906 231.211 112.981 230.931 113.13C230.66 113.27 230.446 113.49 230.287 113.788C230.138 114.087 230.063 114.47 230.063 114.936V118.66H227.879V111.128H229.965V113.214L229.573 112.584C229.844 112.08 230.231 111.693 230.735 111.422C231.239 111.152 231.813 111.016 232.457 111.016ZM241.351 118.772C240.493 118.772 239.737 118.604 239.083 118.268C238.439 117.932 237.94 117.475 237.585 116.896C237.231 116.308 237.053 115.641 237.053 114.894C237.053 114.138 237.226 113.471 237.571 112.892C237.926 112.304 238.407 111.847 239.013 111.52C239.62 111.184 240.306 111.016 241.071 111.016C241.809 111.016 242.471 111.175 243.059 111.492C243.657 111.8 244.128 112.248 244.473 112.836C244.819 113.415 244.991 114.11 244.991 114.922C244.991 115.006 244.987 115.104 244.977 115.216C244.968 115.319 244.959 115.417 244.949 115.51H238.831V114.236H243.801L242.961 114.614C242.961 114.222 242.882 113.882 242.723 113.592C242.565 113.303 242.345 113.079 242.065 112.92C241.785 112.752 241.459 112.668 241.085 112.668C240.712 112.668 240.381 112.752 240.091 112.92C239.811 113.079 239.592 113.308 239.433 113.606C239.275 113.896 239.195 114.241 239.195 114.642V114.978C239.195 115.389 239.284 115.753 239.461 116.07C239.648 116.378 239.905 116.616 240.231 116.784C240.567 116.943 240.959 117.022 241.407 117.022C241.809 117.022 242.159 116.962 242.457 116.84C242.765 116.719 243.045 116.537 243.297 116.294L244.459 117.554C244.114 117.946 243.68 118.25 243.157 118.464C242.635 118.67 242.033 118.772 241.351 118.772ZM255.31 118.828C254.545 118.828 253.831 118.702 253.168 118.45C252.515 118.198 251.946 117.844 251.46 117.386C250.984 116.929 250.611 116.392 250.34 115.776C250.079 115.16 249.948 114.488 249.948 113.76C249.948 113.032 250.079 112.36 250.34 111.744C250.611 111.128 250.989 110.592 251.474 110.134C251.96 109.677 252.529 109.322 253.182 109.07C253.836 108.818 254.545 108.692 255.31 108.692C256.085 108.692 256.794 108.818 257.438 109.07C258.092 109.322 258.656 109.677 259.132 110.134C259.618 110.582 259.996 111.114 260.266 111.73C260.537 112.346 260.672 113.023 260.672 113.76C260.672 114.488 260.537 115.165 260.266 115.79C259.996 116.406 259.618 116.943 259.132 117.4C258.656 117.848 258.092 118.198 257.438 118.45C256.794 118.702 256.085 118.828 255.31 118.828ZM258.516 120.914C258.134 120.914 257.77 120.872 257.424 120.788C257.088 120.704 256.752 120.569 256.416 120.382C256.09 120.196 255.744 119.944 255.38 119.626C255.026 119.309 254.638 118.917 254.218 118.45L256.598 117.848C256.85 118.194 257.084 118.469 257.298 118.674C257.513 118.88 257.718 119.024 257.914 119.108C258.12 119.192 258.334 119.234 258.558 119.234C259.156 119.234 259.688 118.992 260.154 118.506L261.162 119.71C260.5 120.513 259.618 120.914 258.516 120.914ZM255.31 116.896C255.749 116.896 256.15 116.822 256.514 116.672C256.888 116.523 257.214 116.308 257.494 116.028C257.774 115.748 257.989 115.417 258.138 115.034C258.297 114.642 258.376 114.218 258.376 113.76C258.376 113.294 258.297 112.869 258.138 112.486C257.989 112.104 257.774 111.772 257.494 111.492C257.214 111.212 256.888 110.998 256.514 110.848C256.15 110.699 255.749 110.624 255.31 110.624C254.872 110.624 254.466 110.699 254.092 110.848C253.719 110.998 253.392 111.212 253.112 111.492C252.842 111.772 252.627 112.104 252.468 112.486C252.319 112.869 252.244 113.294 252.244 113.76C252.244 114.218 252.319 114.642 252.468 115.034C252.627 115.417 252.842 115.748 253.112 116.028C253.392 116.308 253.719 116.523 254.092 116.672C254.466 116.822 254.872 116.896 255.31 116.896ZM262.377 118.66V108.86H266.619C267.496 108.86 268.252 109.005 268.887 109.294C269.522 109.574 270.012 109.98 270.357 110.512C270.702 111.044 270.875 111.679 270.875 112.416C270.875 113.144 270.702 113.774 270.357 114.306C270.012 114.829 269.522 115.23 268.887 115.51C268.252 115.79 267.496 115.93 266.619 115.93H263.637L264.645 114.936V118.66H262.377ZM268.607 118.66L266.157 115.104H268.579L271.057 118.66H268.607ZM264.645 115.188L263.637 114.124H266.493C267.193 114.124 267.716 113.975 268.061 113.676C268.406 113.368 268.579 112.948 268.579 112.416C268.579 111.875 268.406 111.455 268.061 111.156C267.716 110.858 267.193 110.708 266.493 110.708H263.637L264.645 109.63V115.188ZM281.327 118.828C280.571 118.828 279.866 118.707 279.213 118.464C278.569 118.212 278.009 117.858 277.533 117.4C277.057 116.943 276.683 116.406 276.413 115.79C276.151 115.174 276.021 114.498 276.021 113.76C276.021 113.023 276.151 112.346 276.413 111.73C276.683 111.114 277.057 110.578 277.533 110.12C278.018 109.663 278.583 109.313 279.227 109.07C279.871 108.818 280.575 108.692 281.341 108.692C282.19 108.692 282.955 108.842 283.637 109.14C284.327 109.43 284.906 109.859 285.373 110.428L283.917 111.772C283.581 111.39 283.207 111.105 282.797 110.918C282.386 110.722 281.938 110.624 281.453 110.624C280.995 110.624 280.575 110.699 280.193 110.848C279.81 110.998 279.479 111.212 279.199 111.492C278.919 111.772 278.699 112.104 278.541 112.486C278.391 112.869 278.317 113.294 278.317 113.76C278.317 114.227 278.391 114.652 278.541 115.034C278.699 115.417 278.919 115.748 279.199 116.028C279.479 116.308 279.81 116.523 280.193 116.672C280.575 116.822 280.995 116.896 281.453 116.896C281.938 116.896 282.386 116.803 282.797 116.616C283.207 116.42 283.581 116.126 283.917 115.734L285.373 117.078C284.906 117.648 284.327 118.082 283.637 118.38C282.955 118.679 282.185 118.828 281.327 118.828ZM290.074 118.772C289.272 118.772 288.558 118.604 287.932 118.268C287.316 117.932 286.826 117.475 286.462 116.896C286.108 116.308 285.93 115.641 285.93 114.894C285.93 114.138 286.108 113.471 286.462 112.892C286.826 112.304 287.316 111.847 287.932 111.52C288.558 111.184 289.272 111.016 290.074 111.016C290.868 111.016 291.577 111.184 292.202 111.52C292.828 111.847 293.318 112.3 293.672 112.878C294.027 113.457 294.204 114.129 294.204 114.894C294.204 115.641 294.027 116.308 293.672 116.896C293.318 117.475 292.828 117.932 292.202 118.268C291.577 118.604 290.868 118.772 290.074 118.772ZM290.074 116.98C290.438 116.98 290.765 116.896 291.054 116.728C291.344 116.56 291.572 116.322 291.74 116.014C291.908 115.697 291.992 115.324 291.992 114.894C291.992 114.456 291.908 114.082 291.74 113.774C291.572 113.466 291.344 113.228 291.054 113.06C290.765 112.892 290.438 112.808 290.074 112.808C289.71 112.808 289.384 112.892 289.094 113.06C288.805 113.228 288.572 113.466 288.394 113.774C288.226 114.082 288.142 114.456 288.142 114.894C288.142 115.324 288.226 115.697 288.394 116.014C288.572 116.322 288.805 116.56 289.094 116.728C289.384 116.896 289.71 116.98 290.074 116.98ZM298.898 118.772C298.189 118.772 297.55 118.614 296.98 118.296C296.411 117.97 295.958 117.517 295.622 116.938C295.296 116.36 295.132 115.678 295.132 114.894C295.132 114.101 295.296 113.415 295.622 112.836C295.958 112.258 296.411 111.81 296.98 111.492C297.55 111.175 298.189 111.016 298.898 111.016C299.533 111.016 300.088 111.156 300.564 111.436C301.04 111.716 301.409 112.141 301.67 112.71C301.932 113.28 302.062 114.008 302.062 114.894C302.062 115.772 301.936 116.5 301.684 117.078C301.432 117.648 301.068 118.072 300.592 118.352C300.126 118.632 299.561 118.772 298.898 118.772ZM299.276 116.98C299.631 116.98 299.953 116.896 300.242 116.728C300.532 116.56 300.76 116.322 300.928 116.014C301.106 115.697 301.194 115.324 301.194 114.894C301.194 114.456 301.106 114.082 300.928 113.774C300.76 113.466 300.532 113.228 300.242 113.06C299.953 112.892 299.631 112.808 299.276 112.808C298.912 112.808 298.586 112.892 298.296 113.06C298.007 113.228 297.774 113.466 297.596 113.774C297.428 114.082 297.344 114.456 297.344 114.894C297.344 115.324 297.428 115.697 297.596 116.014C297.774 116.322 298.007 116.56 298.296 116.728C298.586 116.896 298.912 116.98 299.276 116.98ZM301.25 118.66V117.12L301.292 114.88L301.152 112.654V108.272H303.336V118.66H301.25ZM309.096 118.772C308.237 118.772 307.481 118.604 306.828 118.268C306.184 117.932 305.684 117.475 305.33 116.896C304.975 116.308 304.798 115.641 304.798 114.894C304.798 114.138 304.97 113.471 305.316 112.892C305.67 112.304 306.151 111.847 306.758 111.52C307.364 111.184 308.05 111.016 308.816 111.016C309.553 111.016 310.216 111.175 310.804 111.492C311.401 111.8 311.872 112.248 312.218 112.836C312.563 113.415 312.736 114.11 312.736 114.922C312.736 115.006 312.731 115.104 312.722 115.216C312.712 115.319 312.703 115.417 312.694 115.51H306.576V114.236H311.546L310.706 114.614C310.706 114.222 310.626 113.882 310.468 113.592C310.309 113.303 310.09 113.079 309.81 112.92C309.53 112.752 309.203 112.668 308.83 112.668C308.456 112.668 308.125 112.752 307.836 112.92C307.556 113.079 307.336 113.308 307.178 113.606C307.019 113.896 306.94 114.241 306.94 114.642V114.978C306.94 115.389 307.028 115.753 307.206 116.07C307.392 116.378 307.649 116.616 307.976 116.784C308.312 116.943 308.704 117.022 309.152 117.022C309.553 117.022 309.903 116.962 310.202 116.84C310.51 116.719 310.79 116.537 311.042 116.294L312.204 117.554C311.858 117.946 311.424 118.25 310.902 118.464C310.379 118.67 309.777 118.772 309.096 118.772ZM322.774 118.66V117.19L322.634 116.868V114.236C322.634 113.77 322.49 113.406 322.2 113.144C321.92 112.883 321.486 112.752 320.898 112.752C320.497 112.752 320.1 112.818 319.708 112.948C319.326 113.07 318.999 113.238 318.728 113.452L317.944 111.926C318.355 111.637 318.85 111.413 319.428 111.254C320.007 111.096 320.595 111.016 321.192 111.016C322.34 111.016 323.232 111.287 323.866 111.828C324.501 112.37 324.818 113.214 324.818 114.362V118.66H322.774ZM320.478 118.772C319.89 118.772 319.386 118.674 318.966 118.478C318.546 118.273 318.224 117.998 318 117.652C317.776 117.307 317.664 116.92 317.664 116.49C317.664 116.042 317.772 115.65 317.986 115.314C318.21 114.978 318.56 114.717 319.036 114.53C319.512 114.334 320.133 114.236 320.898 114.236H322.9V115.51H321.136C320.623 115.51 320.268 115.594 320.072 115.762C319.886 115.93 319.792 116.14 319.792 116.392C319.792 116.672 319.9 116.896 320.114 117.064C320.338 117.223 320.642 117.302 321.024 117.302C321.388 117.302 321.715 117.218 322.004 117.05C322.294 116.873 322.504 116.616 322.634 116.28L322.97 117.288C322.812 117.774 322.522 118.142 322.102 118.394C321.682 118.646 321.141 118.772 320.478 118.772ZM329.875 118.772C328.988 118.772 328.298 118.548 327.803 118.1C327.308 117.643 327.061 116.966 327.061 116.07V109.462H329.245V116.042C329.245 116.36 329.329 116.607 329.497 116.784C329.665 116.952 329.894 117.036 330.183 117.036C330.528 117.036 330.822 116.943 331.065 116.756L331.653 118.296C331.429 118.455 331.158 118.576 330.841 118.66C330.533 118.735 330.211 118.772 329.875 118.772ZM325.899 112.976V111.296H331.121V112.976H325.899ZM5.628 135.66V134.19L5.488 133.868V131.236C5.488 130.77 5.34333 130.406 5.054 130.144C4.774 129.883 4.34 129.752 3.752 129.752C3.35067 129.752 2.954 129.818 2.562 129.948C2.17933 130.07 1.85267 130.238 1.582 130.452L0.798 128.926C1.20867 128.637 1.70333 128.413 2.282 128.254C2.86067 128.096 3.44867 128.016 4.046 128.016C5.194 128.016 6.08533 128.287 6.72 128.828C7.35467 129.37 7.672 130.214 7.672 131.362V135.66H5.628ZM3.332 135.772C2.744 135.772 2.24 135.674 1.82 135.478C1.4 135.273 1.078 134.998 0.854 134.652C0.63 134.307 0.518 133.92 0.518 133.49C0.518 133.042 0.625333 132.65 0.84 132.314C1.064 131.978 1.414 131.717 1.89 131.53C2.366 131.334 2.98667 131.236 3.752 131.236H5.754V132.51H3.99C3.47667 132.51 3.122 132.594 2.926 132.762C2.73933 132.93 2.646 133.14 2.646 133.392C2.646 133.672 2.75333 133.896 2.968 134.064C3.192 134.223 3.49533 134.302 3.878 134.302C4.242 134.302 4.56867 134.218 4.858 134.05C5.14733 133.873 5.35733 133.616 5.488 133.28L5.824 134.288C5.66533 134.774 5.376 135.142 4.956 135.394C4.536 135.646 3.99467 135.772 3.332 135.772ZM15.7975 135.66V127.708H12.6615V125.86H21.2015V127.708H18.0655V135.66H15.7975ZM22.2678 135.66V128.128H24.4518V135.66H22.2678ZM23.3598 127.078C22.9584 127.078 22.6318 126.962 22.3798 126.728C22.1278 126.495 22.0018 126.206 22.0018 125.86C22.0018 125.515 22.1278 125.226 22.3798 124.992C22.6318 124.759 22.9584 124.642 23.3598 124.642C23.7611 124.642 24.0878 124.754 24.3398 124.978C24.5918 125.193 24.7178 125.473 24.7178 125.818C24.7178 126.182 24.5918 126.486 24.3398 126.728C24.0971 126.962 23.7704 127.078 23.3598 127.078ZM36.1247 128.016C36.722 128.016 37.2494 128.138 37.7067 128.38C38.1734 128.614 38.5374 128.978 38.7987 129.472C39.0694 129.958 39.2047 130.583 39.2047 131.348V135.66H37.0207V131.684C37.0207 131.078 36.8947 130.63 36.6427 130.34C36.3907 130.051 36.036 129.906 35.5787 129.906C35.2614 129.906 34.9767 129.981 34.7247 130.13C34.4727 130.27 34.2767 130.485 34.1367 130.774C33.9967 131.064 33.9267 131.432 33.9267 131.88V135.66H31.7427V131.684C31.7427 131.078 31.6167 130.63 31.3647 130.34C31.122 130.051 30.772 129.906 30.3147 129.906C29.9974 129.906 29.7127 129.981 29.4607 130.13C29.2087 130.27 29.0127 130.485 28.8727 130.774C28.7327 131.064 28.6627 131.432 28.6627 131.88V135.66H26.4787V128.128H28.5647V130.186L28.1727 129.584C28.434 129.071 28.8027 128.684 29.2787 128.422C29.764 128.152 30.3147 128.016 30.9307 128.016C31.6214 128.016 32.2234 128.194 32.7367 128.548C33.2594 128.894 33.6047 129.426 33.7727 130.144L33.0027 129.934C33.2547 129.346 33.656 128.88 34.2067 128.534C34.7667 128.189 35.406 128.016 36.1247 128.016ZM44.955 135.772C44.0963 135.772 43.3403 135.604 42.687 135.268C42.043 134.932 41.5437 134.475 41.189 133.896C40.8343 133.308 40.657 132.641 40.657 131.894C40.657 131.138 40.8297 130.471 41.175 129.892C41.5297 129.304 42.0103 128.847 42.617 128.52C43.2237 128.184 43.9097 128.016 44.675 128.016C45.4123 128.016 46.075 128.175 46.663 128.492C47.2603 128.8 47.7317 129.248 48.077 129.836C48.4223 130.415 48.595 131.11 48.595 131.922C48.595 132.006 48.5903 132.104 48.581 132.216C48.5717 132.319 48.5623 132.417 48.553 132.51H42.435V131.236H47.405L46.565 131.614C46.565 131.222 46.4857 130.882 46.327 130.592C46.1683 130.303 45.949 130.079 45.669 129.92C45.389 129.752 45.0623 129.668 44.689 129.668C44.3157 129.668 43.9843 129.752 43.695 129.92C43.415 130.079 43.1957 130.308 43.037 130.606C42.8783 130.896 42.799 131.241 42.799 131.642V131.978C42.799 132.389 42.8877 132.753 43.065 133.07C43.2517 133.378 43.5083 133.616 43.835 133.784C44.171 133.943 44.563 134.022 45.011 134.022C45.4123 134.022 45.7623 133.962 46.061 133.84C46.369 133.719 46.649 133.537 46.901 133.294L48.063 134.554C47.7177 134.946 47.2837 135.25 46.761 135.464C46.2383 135.67 45.6363 135.772 44.955 135.772ZM50.875 135.772C50.5017 135.772 50.1797 135.646 49.909 135.394C49.6477 135.133 49.517 134.802 49.517 134.4C49.517 133.999 49.6477 133.677 49.909 133.434C50.1797 133.182 50.5017 133.056 50.875 133.056C51.2577 133.056 51.5797 133.182 51.841 133.434C52.1023 133.677 52.233 133.999 52.233 134.4C52.233 134.802 52.1023 135.133 51.841 135.394C51.5797 135.646 51.2577 135.772 50.875 135.772Z" fill="white"/>
<defs>
<filter id="filter0_d_1_57" x="1" y="28.6604" width="58" height="61" filterUnits="userSpaceOnUse" color-interpolation-filters="sRGB">
<feFlood flood-opacity="0" result="BackgroundImageFix"/>
<feColorMatrix in="SourceAlpha" type="matrix" values="0 0 0 0 0 0 0 0 0 0 0 0 0 0 0 0 0 0 127 0" result="hardAlpha"/>
<feOffset dx="4" dy="4"/>
<feComposite in2="hardAlpha" operator="out"/>
<feColorMatrix type="matrix" values="0 0 0 0 0 0 0 0 0 0 0 0 0 0 0 0 0 0 1 0"/>
<feBlend mode="normal" in2="BackgroundImageFix" result="effect1_dropShadow_1_57"/>
<feBlend mode="normal" in="SourceGraphic" in2="effect1_dropShadow_1_57" result="shape"/>
</filter>
</defs>
</svg>
