<svg width="179" height="26" viewBox="0 0 179 26" fill="none" xmlns="http://www.w3.org/2000/svg">
<mask id="path-1-outside-1_1_339" maskUnits="userSpaceOnUse" x="-1" y="-1" width="182" height="28" fill="black">
<rect fill="white" x="-1" y="-1" width="182" height="28"/>
<path d="M25.976 9.512C25.976 11.368 25.5173 12.936 24.6 14.216C23.704 15.496 22.1573 16.424 19.96 17C20.216 17.3413 20.3973 17.608 20.504 17.8L25.688 25H16.984C16.0453 23.2507 14.5627 20.776 12.536 17.576H7.832V25H0.28C0.450667 20.8613 0.536 16.9893 0.536 13.384C0.536 9.77867 0.450667 5.90667 0.28 1.768H7.832V1.8H14.392C18.7013 1.8 21.7093 2.49333 23.416 3.88C25.1227 5.26667 25.976 7.144 25.976 9.512ZM7.832 7.944V11.592H12.152C13.9653 11.592 15.3307 11.5387 16.248 11.432C17.1867 11.304 17.8373 11.112 18.2 10.856C18.5627 10.6 18.744 10.2267 18.744 9.736C18.744 9.26667 18.5733 8.904 18.232 8.648C17.8907 8.392 17.2507 8.21067 16.312 8.104C15.3733 7.99733 13.9867 7.944 12.152 7.944H7.832ZM47.3843 17H36.9523C37.1229 17.9387 37.5389 18.7067 38.2003 19.304C38.8829 19.88 39.8429 20.168 41.0803 20.168C41.9763 20.168 42.8189 19.9973 43.6083 19.656C44.3976 19.2933 45.0269 18.792 45.4963 18.152C46.9256 18.856 48.8243 19.6133 51.1923 20.424C50.5309 21.9173 49.3256 23.112 47.5763 24.008C45.8483 24.8827 43.5869 25.32 40.7923 25.32C37.1656 25.32 34.4776 24.488 32.7283 22.824C31.0003 21.1387 30.1363 18.9307 30.1363 16.2C30.1363 13.5333 31.0003 11.368 32.7283 9.704C34.4563 8.04 37.1443 7.208 40.7923 7.208C42.9683 7.208 44.8563 7.57067 46.4563 8.296C48.0563 9.02133 49.2829 10.0347 50.1363 11.336C50.9896 12.616 51.4163 14.088 51.4163 15.752C51.4163 16.3067 51.3949 16.7227 51.3523 17H47.3843ZM41.2403 12.04C40.1736 12.04 39.2989 12.2427 38.6163 12.648C37.9336 13.0533 37.4536 13.608 37.1763 14.312H44.7283C44.4723 13.6293 44.0563 13.0853 43.4803 12.68C42.9043 12.2533 42.1576 12.04 41.2403 12.04ZM63.6598 16.264C63.7024 17.352 64.0438 18.2267 64.6838 18.888C65.3451 19.5493 66.3158 19.88 67.5958 19.88C68.2998 19.88 68.9291 19.752 69.4838 19.496C70.0384 19.2187 70.5504 18.8133 71.0198 18.28C72.8331 18.984 74.9558 19.592 77.3878 20.104C76.6838 21.7467 75.4891 23.0267 73.8038 23.944C72.1398 24.8613 69.9744 25.32 67.3078 25.32C63.7451 25.32 61.1104 24.488 59.4038 22.824C57.6971 21.16 56.8438 18.9733 56.8438 16.264C56.8438 13.5547 57.6971 11.368 59.4038 9.704C61.1104 8.04 63.7451 7.208 67.3078 7.208C69.9744 7.208 72.1398 7.66667 73.8038 8.584C75.4891 9.50133 76.6838 10.7813 77.3878 12.424C75.4891 12.8293 73.3664 13.4373 71.0198 14.248C70.5504 13.7147 70.0384 13.32 69.4838 13.064C68.9291 12.7867 68.2998 12.648 67.5958 12.648C66.3158 12.648 65.3451 12.9787 64.6838 13.64C64.0438 14.3013 63.7024 15.176 63.6598 16.264ZM93.6127 25.32C89.9647 25.32 87.2767 24.488 85.5487 22.824C83.8421 21.1387 82.9887 18.9307 82.9887 16.2C82.9887 13.5333 83.8421 11.368 85.5487 9.704C87.2767 8.04 89.9647 7.208 93.6127 7.208C96.0661 7.208 98.1141 7.61333 99.7567 8.424C101.421 9.21333 102.647 10.2907 103.437 11.656C104.226 13 104.621 14.5147 104.621 16.2C104.621 18.952 103.703 21.16 101.869 22.824C100.055 24.488 97.3034 25.32 93.6127 25.32ZM93.7407 19.88C95.1274 19.88 96.1621 19.5493 96.8447 18.888C97.5274 18.2267 97.8687 17.3413 97.8687 16.232C97.8687 15.1867 97.5274 14.3333 96.8447 13.672C96.1621 12.9893 95.1274 12.648 93.7407 12.648C92.3541 12.648 91.3407 12.9787 90.7007 13.64C90.0607 14.3013 89.7407 15.1653 89.7407 16.232C89.7407 17.3413 90.0607 18.2267 90.7007 18.888C91.3407 19.5493 92.3541 19.88 93.7407 19.88ZM117.815 12.264C118.711 9.04267 120.941 7.432 124.503 7.432C125.122 7.432 125.719 7.47467 126.295 7.56L125.271 14.728C123.735 14.152 122.477 13.864 121.495 13.864C120.279 13.864 119.383 14.2267 118.807 14.952C118.231 15.6773 117.943 16.648 117.943 17.864V17.832L117.911 19.944C117.911 21.4587 117.954 23.144 118.039 25H110.391C110.562 21.928 110.647 19.0267 110.647 16.296C110.647 13.5653 110.562 10.6427 110.391 7.528C111.799 7.592 112.877 7.624 113.623 7.624C114.413 7.624 115.49 7.592 116.855 7.528L117.815 12.264ZM152.339 0.103998C152.211 4.072 152.147 8.22133 152.147 12.552C152.147 16.84 152.211 20.9893 152.339 25H145.107L145.203 21.16C144.585 22.5893 143.689 23.6453 142.515 24.328C141.342 24.9893 139.955 25.32 138.355 25.32C136.969 25.32 135.721 24.9253 134.611 24.136C133.502 23.3467 132.638 22.28 132.019 20.936C131.401 19.5707 131.091 18.0773 131.091 16.456C131.091 14.856 131.401 13.352 132.019 11.944C132.638 10.5147 133.502 9.37333 134.611 8.52C135.742 7.64533 137.022 7.208 138.451 7.208C140.115 7.208 141.534 7.56 142.707 8.264C143.902 8.94667 144.787 10.0133 145.363 11.464C145.363 10.248 145.321 8.296 145.235 5.608C145.15 3.00533 145.107 1.17067 145.107 0.103998H152.339ZM141.715 19.944C142.761 19.944 143.614 19.656 144.275 19.08C144.937 18.4827 145.267 17.544 145.267 16.264C145.267 15.1333 144.937 14.3013 144.275 13.768C143.614 13.2347 142.782 12.968 141.779 12.968C140.819 12.968 140.009 13.2773 139.347 13.896C138.707 14.4933 138.387 15.2827 138.387 16.264C138.387 17.352 138.686 18.2373 139.283 18.92C139.881 19.6027 140.691 19.944 141.715 19.944ZM168.767 25.32C166.975 25.32 165.151 25.0747 163.295 24.584C161.461 24.072 159.733 23.304 158.111 22.28L161.471 17.704C162.453 18.408 163.637 18.9627 165.023 19.368C166.41 19.752 167.605 19.944 168.607 19.944C169.567 19.944 170.303 19.816 170.815 19.56C171.349 19.2827 171.615 18.9307 171.615 18.504C171.615 18.1627 171.487 17.896 171.231 17.704C170.975 17.512 170.623 17.416 170.175 17.416C169.898 17.416 169.578 17.4267 169.215 17.448C168.874 17.4693 168.597 17.4907 168.383 17.512C167.274 17.64 166.133 17.704 164.959 17.704C163.061 17.704 161.514 17.352 160.319 16.648C159.146 15.9227 158.559 14.7493 158.559 13.128C158.559 11.2507 159.445 9.8 161.215 8.776C162.986 7.73067 165.589 7.208 169.023 7.208C170.709 7.208 172.405 7.45333 174.111 7.944C175.839 8.41333 177.365 9.128 178.687 10.088L175.007 13.8C173.791 13.16 172.65 12.712 171.583 12.456C170.538 12.1787 169.482 12.04 168.415 12.04C167.669 12.04 167.029 12.1893 166.495 12.488C165.962 12.7867 165.695 13.128 165.695 13.512C165.695 13.8107 165.802 14.0453 166.015 14.216C166.25 14.3867 166.549 14.472 166.911 14.472C167.274 14.472 167.775 14.44 168.415 14.376C169.973 14.2693 171.135 14.216 171.903 14.216C174.122 14.216 175.839 14.5893 177.055 15.336C178.271 16.0827 178.879 17.224 178.879 18.76C178.879 21.064 177.983 22.7387 176.191 23.784C174.399 24.808 171.925 25.32 168.767 25.32Z"/>
</mask>
<path d="M24.6 14.216L23.7871 13.6334L23.7808 13.6425L24.6 14.216ZM19.96 17L19.7064 16.0327L18.2674 16.4099L19.16 17.6L19.96 17ZM20.504 17.8L19.6298 18.2856L19.6583 18.3368L19.6925 18.3843L20.504 17.8ZM25.688 25V26H27.6402L26.4995 24.4157L25.688 25ZM16.984 25L16.1028 25.4728L16.3857 26H16.984V25ZM12.536 17.576L13.3808 17.0409L13.0864 16.576H12.536V17.576ZM7.832 17.576V16.576H6.832V17.576H7.832ZM7.832 25V26H8.832V25H7.832ZM0.28 25L-0.719151 24.9588L-0.762087 26H0.28V25ZM0.28 1.768V0.768H-0.762087L-0.719151 1.8092L0.28 1.768ZM7.832 1.768H8.832V0.768H7.832V1.768ZM7.832 1.8H6.832V2.8H7.832V1.8ZM23.416 3.88L22.7854 4.65611L23.416 3.88ZM7.832 7.944V6.944H6.832V7.944H7.832ZM7.832 11.592H6.832V12.592H7.832V11.592ZM16.248 11.432L16.3635 12.4253L16.3733 12.4242L16.3831 12.4228L16.248 11.432ZM18.2 10.856L17.6233 10.039V10.039L18.2 10.856ZM18.232 8.648L18.832 7.848V7.848L18.232 8.648ZM16.312 8.104L16.1991 9.0976H16.1991L16.312 8.104ZM24.976 9.512C24.976 11.1974 24.5622 12.5521 23.7872 13.6335L25.4128 14.7985C26.4725 13.3199 26.976 11.5386 26.976 9.512H24.976ZM23.7808 13.6425C23.0708 14.6568 21.7762 15.4901 19.7064 16.0327L20.2136 17.9673C22.5385 17.3579 24.3372 16.3352 25.4192 14.7895L23.7808 13.6425ZM19.16 17.6C19.4091 17.9321 19.5572 18.1549 19.6298 18.2856L21.3782 17.3144C21.2375 17.0611 21.0229 16.7506 20.76 16.4L19.16 17.6ZM19.6925 18.3843L24.8765 25.5843L26.4995 24.4157L21.3155 17.2157L19.6925 18.3843ZM25.688 24H16.984V26H25.688V24ZM17.8652 24.5272C16.9091 22.7455 15.4111 20.2466 13.3808 17.0409L11.6912 18.1111C13.7143 21.3054 15.1815 23.7558 16.1028 25.4728L17.8652 24.5272ZM12.536 16.576H7.832V18.576H12.536V16.576ZM6.832 17.576V25H8.832V17.576H6.832ZM7.832 24H0.28V26H7.832V24ZM1.27915 25.0412C1.4503 20.8908 1.536 17.0049 1.536 13.384H-0.464C-0.464 16.9738 -0.548969 20.8319 -0.719151 24.9588L1.27915 25.0412ZM1.536 13.384C1.536 9.76309 1.4503 5.87722 1.27915 1.7268L-0.719151 1.8092C-0.548969 5.93611 -0.464 9.79424 -0.464 13.384H1.536ZM0.28 2.768H7.832V0.768H0.28V2.768ZM6.832 1.768V1.8H8.832V1.768H6.832ZM7.832 2.8H14.392V0.799999H7.832V2.8ZM14.392 2.8C18.6596 2.8 21.3623 3.49983 22.7854 4.65611L24.0466 3.10389C22.0564 1.48684 18.743 0.799999 14.392 0.799999V2.8ZM22.7854 4.65611C24.2386 5.83679 24.976 7.41864 24.976 9.512H26.976C26.976 6.86936 26.0068 4.69654 24.0466 3.10388L22.7854 4.65611ZM6.832 7.944V11.592H8.832V7.944H6.832ZM7.832 12.592H12.152V10.592H7.832V12.592ZM12.152 12.592C13.9747 12.592 15.3869 12.5389 16.3635 12.4253L16.1325 10.4387C15.2744 10.5385 13.956 10.592 12.152 10.592V12.592ZM16.3831 12.4228C17.3394 12.2924 18.202 12.0786 18.7767 11.673L17.6233 10.039C17.4727 10.1454 17.0339 10.3156 16.1129 10.4412L16.3831 12.4228ZM18.7767 11.673C19.4358 11.2077 19.744 10.5117 19.744 9.736H17.744C17.744 9.94162 17.6895 9.99228 17.6233 10.039L18.7767 11.673ZM19.744 9.736C19.744 8.98824 19.4529 8.31364 18.832 7.848L17.632 9.448C17.6938 9.49436 17.744 9.5451 17.744 9.736H19.744ZM18.832 7.848C18.2569 7.41664 17.3738 7.21822 16.4249 7.1104L16.1991 9.0976C17.1276 9.20311 17.5245 9.36736 17.632 9.448L18.832 7.848ZM16.4249 7.1104C15.4286 6.99717 13.9963 6.944 12.152 6.944V8.944C13.977 8.944 15.3181 8.99749 16.1991 9.0976L16.4249 7.1104ZM12.152 6.944H7.832V8.944H12.152V6.944ZM36.9523 17V16H35.754L35.9684 17.1789L36.9523 17ZM38.2002 19.304L37.53 20.0461L37.5425 20.0574L37.5554 20.0683L38.2002 19.304ZM43.6083 19.656L44.0052 20.5739L44.0155 20.5694L44.0258 20.5647L43.6083 19.656ZM45.4963 18.152L45.9381 17.2549L45.1858 16.8844L44.6898 17.5606L45.4963 18.152ZM51.1923 20.424L52.1066 20.8289L52.5484 19.8313L51.5161 19.4779L51.1923 20.424ZM47.5763 24.008L48.0279 24.9002L48.0321 24.898L47.5763 24.008ZM32.7283 22.824L32.03 23.5399L32.039 23.5486L32.7283 22.824ZM32.7283 9.704L33.4219 10.4243L32.7283 9.704ZM46.4563 8.296L46.0434 9.20678L46.4563 8.296ZM50.1363 11.336L49.3 11.8844L49.3042 11.8907L50.1363 11.336ZM51.3522 17V18H52.2102L52.3406 17.1521L51.3522 17ZM38.6162 12.648L39.1268 13.5079L38.6162 12.648ZM37.1763 14.312L36.2458 13.9455L35.7075 15.312H37.1763V14.312ZM44.7283 14.312V15.312H46.1713L45.6646 13.9609L44.7283 14.312ZM43.4803 12.68L42.885 13.4836L42.8948 13.4908L42.9048 13.4978L43.4803 12.68ZM47.3843 16H36.9523V18H47.3843V16ZM35.9684 17.1789C36.1756 18.3184 36.6929 19.29 37.53 20.0461L38.8705 18.5619C38.385 18.1233 38.0703 17.5589 37.9361 16.8211L35.9684 17.1789ZM37.5554 20.0683C38.4772 20.8461 39.6973 21.168 41.0802 21.168V19.168C39.9885 19.168 39.2886 18.9139 38.8451 18.5397L37.5554 20.0683ZM41.0802 21.168C42.1069 21.168 43.0853 20.9716 44.0052 20.5739L43.2113 18.7381C42.5526 19.023 41.8456 19.168 41.0802 19.168V21.168ZM44.0258 20.5647C44.9546 20.1379 45.7235 19.5332 46.3027 18.7434L44.6898 17.5606C44.3304 18.0508 43.8406 18.4488 43.1908 18.7473L44.0258 20.5647ZM45.0544 19.0491C46.5371 19.7794 48.48 20.5525 50.8684 21.3701L51.5161 19.4779C49.1685 18.6742 47.3141 17.9326 45.9381 17.2549L45.0544 19.0491ZM50.2779 20.0191C49.7272 21.2627 48.7089 22.3043 47.1204 23.118L48.0321 24.898C49.9423 23.9197 51.3347 22.572 52.1066 20.8289L50.2779 20.0191ZM47.1246 23.1158C45.5847 23.8953 43.4946 24.32 40.7923 24.32V26.32C43.6792 26.32 46.1118 25.8701 48.0279 24.9002L47.1246 23.1158ZM40.7923 24.32C37.2959 24.32 34.9061 23.5154 33.4175 22.0994L32.039 23.5486C34.0491 25.4606 37.0353 26.32 40.7923 26.32V24.32ZM33.4265 22.1081C31.9175 20.6364 31.1362 18.6998 31.1362 16.2H29.1362C29.1362 19.1615 30.083 21.6409 32.03 23.5399L33.4265 22.1081ZM31.1362 16.2C31.1362 13.7717 31.9125 11.8778 33.4219 10.4243L32.0346 8.98368C30.088 10.8582 29.1362 13.295 29.1362 16.2H31.1362ZM33.4219 10.4243C34.8865 9.01399 37.2713 8.208 40.7923 8.208V6.208C37.0172 6.208 34.026 7.06601 32.0346 8.98368L33.4219 10.4243ZM40.7923 8.208C42.8589 8.208 44.6002 8.55253 46.0434 9.20678L46.8691 7.38522C45.1123 6.5888 43.0776 6.208 40.7923 6.208V8.208ZM46.0434 9.20678C47.4936 9.86424 48.5636 10.7613 49.3 11.8844L50.9725 10.7876C50.0023 9.30805 48.6189 8.17843 46.8691 7.38522L46.0434 9.20678ZM49.3042 11.8907C50.039 12.9929 50.4163 14.2686 50.4163 15.752H52.4163C52.4163 13.9074 51.9401 12.2391 50.9683 10.7813L49.3042 11.8907ZM50.4163 15.752C50.4163 16.2948 50.3945 16.6486 50.3639 16.8479L52.3406 17.1521C52.3953 16.7967 52.4163 16.3185 52.4163 15.752H50.4163ZM51.3522 16H47.3843V18H51.3522V16ZM41.2402 11.04C40.0536 11.04 38.9872 11.2648 38.1057 11.7881L39.1268 13.5079C39.6107 13.2206 40.2936 13.04 41.2402 13.04V11.04ZM38.1057 11.7881C37.2423 12.3008 36.6087 13.0243 36.2458 13.9455L38.1067 14.6785C38.2985 14.1917 38.6248 13.8059 39.1268 13.5079L38.1057 11.7881ZM37.1763 15.312H44.7283V13.312H37.1763V15.312ZM45.6646 13.9609C45.3406 13.0969 44.8022 12.3875 44.0557 11.8622L42.9048 13.4978C43.3103 13.7832 43.6039 14.1617 43.7919 14.6631L45.6646 13.9609ZM44.0755 11.8764C43.2844 11.2905 42.3116 11.04 41.2402 11.04V13.04C42.0035 13.04 42.5241 13.2162 42.885 13.4836L44.0755 11.8764ZM63.6598 16.264L62.6605 16.2248L62.659 16.264L62.6605 16.3032L63.6598 16.264ZM64.6838 18.888L63.9651 19.5834L63.9708 19.5893L63.9766 19.5951L64.6838 18.888ZM69.4837 19.496L69.9028 20.404L69.917 20.3974L69.931 20.3904L69.4837 19.496ZM71.0198 18.28L71.3817 17.3478L70.7305 17.095L70.269 17.6194L71.0198 18.28ZM77.3878 20.104L78.3069 20.4979L78.7874 19.3767L77.5938 19.1255L77.3878 20.104ZM73.8037 23.944L73.3257 23.0657L73.321 23.0683L73.8037 23.944ZM59.4038 22.824L58.7057 23.54L59.4038 22.824ZM59.4038 9.704L60.1019 10.42L59.4038 9.704ZM73.8037 8.584L73.321 9.45975L73.3257 9.46232L73.8037 8.584ZM77.3878 12.424L77.5965 13.402L78.786 13.148L78.3069 12.0301L77.3878 12.424ZM71.0198 14.248L70.269 14.9086L70.7122 15.4122L71.3463 15.1932L71.0198 14.248ZM69.4837 13.064L69.0365 13.9584L69.0505 13.9654L69.0647 13.972L69.4837 13.064ZM64.6838 13.64L63.9766 12.9329L63.9708 12.9387L63.9651 12.9446L64.6838 13.64ZM62.6605 16.3032C62.711 17.5894 63.1236 18.7138 63.9651 19.5834L65.4024 18.1926C64.9639 17.7395 64.6939 17.1146 64.659 16.2248L62.6605 16.3032ZM63.9766 19.5951C64.8861 20.5045 66.1506 20.88 67.5957 20.88V18.88C66.4809 18.88 65.8041 18.5941 65.3909 18.1809L63.9766 19.5951ZM67.5957 20.88C68.4225 20.88 69.1982 20.7292 69.9028 20.404L69.0647 18.588C68.66 18.7748 68.177 18.88 67.5957 18.88V20.88ZM69.931 20.3904C70.6165 20.0477 71.2283 19.5568 71.7705 18.9406L70.269 17.6194C69.8726 18.0699 69.4604 18.3897 69.0365 18.6016L69.931 20.3904ZM70.6578 19.2122C72.5334 19.9404 74.7104 20.5623 77.1817 21.0826L77.5938 19.1255C75.2011 18.6217 73.1327 18.0276 71.3817 17.3478L70.6578 19.2122ZM76.4686 19.7101C75.8598 21.1306 74.8293 22.2473 73.3257 23.0657L74.2818 24.8223C76.1489 23.8061 77.5077 22.3627 78.3069 20.4979L76.4686 19.7101ZM73.321 23.0683C71.8525 23.8778 69.87 24.32 67.3078 24.32V26.32C70.0788 26.32 72.427 25.8449 74.2865 24.8197L73.321 23.0683ZM67.3078 24.32C63.8787 24.32 61.5471 23.5171 60.1019 22.108L58.7057 23.54C60.6737 25.4589 63.6114 26.32 67.3078 26.32V24.32ZM60.1019 22.108C58.6153 20.6586 57.8438 18.744 57.8438 16.264H55.8438C55.8438 19.2027 56.7789 21.6614 58.7057 23.54L60.1019 22.108ZM57.8438 16.264C57.8438 13.784 58.6153 11.8694 60.1019 10.42L58.7057 8.988C56.7789 10.8666 55.8438 13.3253 55.8438 16.264H57.8438ZM60.1019 10.42C61.5471 9.01089 63.8787 8.208 67.3078 8.208V6.208C63.6114 6.208 60.6737 7.06911 58.7057 8.988L60.1019 10.42ZM67.3078 8.208C69.87 8.208 71.8525 8.6502 73.321 9.45974L74.2865 7.70826C72.427 6.68313 70.0788 6.208 67.3078 6.208V8.208ZM73.3257 9.46232C74.8293 10.2807 75.8598 11.3974 76.4686 12.8179L78.3069 12.0301C77.5077 10.1653 76.1489 8.72192 74.2818 7.70568L73.3257 9.46232ZM77.179 11.446C75.2312 11.8618 73.0684 12.4823 70.6932 13.3028L71.3463 15.1932C73.6644 14.3924 75.7469 13.7968 77.5965 13.402L77.179 11.446ZM71.7705 13.5874C71.2239 12.9663 70.603 12.4792 69.9028 12.156L69.0647 13.972C69.4738 14.1608 69.8769 14.463 70.269 14.9086L71.7705 13.5874ZM69.931 12.1696C69.2197 11.8139 68.4339 11.648 67.5957 11.648V13.648C68.1656 13.648 68.6385 13.7594 69.0365 13.9584L69.931 12.1696ZM67.5957 11.648C66.1506 11.648 64.8861 12.0235 63.9766 12.9329L65.3909 14.3471C65.8041 13.9339 66.4809 13.648 67.5957 13.648V11.648ZM63.9651 12.9446C63.1236 13.8142 62.711 14.9386 62.6605 16.2248L64.659 16.3032C64.6939 15.4134 64.9639 14.7885 65.4024 14.3354L63.9651 12.9446ZM85.5487 22.824L84.846 23.5356L84.8551 23.5443L85.5487 22.824ZM85.5487 9.704L84.8551 8.98367L84.8506 8.988L85.5487 9.704ZM99.7567 8.424L99.3142 9.32074L99.3212 9.32418L99.3282 9.3275L99.7567 8.424ZM103.437 11.656L102.571 12.1565L102.574 12.1624L103.437 11.656ZM101.869 22.824L101.197 22.0833L101.193 22.0872L101.869 22.824ZM96.8447 13.672L96.1376 14.3791L96.1433 14.3847L96.149 14.3902L96.8447 13.672ZM90.7007 13.64L89.9821 12.9446L90.7007 13.64ZM90.7007 18.888L91.4193 18.1926L90.7007 18.888ZM93.6127 24.32C90.0918 24.32 87.707 23.514 86.2424 22.1037L84.8551 23.5443C86.8465 25.462 89.8377 26.32 93.6127 26.32V24.32ZM86.2514 22.1125C84.7619 20.6416 83.9887 18.7036 83.9887 16.2H81.9887C81.9887 19.1577 82.9223 21.6357 84.8461 23.5355L86.2514 22.1125ZM83.9887 16.2C83.9887 13.7678 84.757 11.8726 86.2468 10.42L84.8506 8.988C82.9272 10.8634 81.9887 13.2989 81.9887 16.2H83.9887ZM86.2424 10.4243C87.707 9.01399 90.0918 8.208 93.6127 8.208V6.208C89.8377 6.208 86.8465 7.06601 84.8551 8.98368L86.2424 10.4243ZM93.6127 8.208C95.9623 8.208 97.8477 8.59701 99.3142 9.32074L100.199 7.52726C98.3805 6.62966 96.1699 6.208 93.6127 6.208V8.208ZM99.3282 9.3275C100.841 10.0449 101.899 10.9947 102.571 12.1565L104.302 11.1555C103.395 9.58661 102.001 8.38176 100.185 7.5205L99.3282 9.3275ZM102.574 12.1624C103.266 13.3405 103.621 14.6778 103.621 16.2H105.621C105.621 14.3516 105.186 12.6595 104.299 11.1496L102.574 12.1624ZM103.621 16.2C103.621 18.7047 102.798 20.6311 101.197 22.0833L102.541 23.5647C104.609 21.6889 105.621 19.1993 105.621 16.2H103.621ZM101.193 22.0872C99.6374 23.5144 97.1751 24.32 93.6127 24.32V26.32C97.4317 26.32 100.473 25.4616 102.545 23.5608L101.193 22.0872ZM93.7407 20.88C95.2686 20.88 96.6007 20.5167 97.5405 19.6062L96.149 18.1698C95.7234 18.582 94.9862 18.88 93.7407 18.88V20.88ZM97.5405 19.6062C98.4503 18.7249 98.8688 17.563 98.8688 16.232H96.8688C96.8688 17.1197 96.6045 17.7284 96.149 18.1698L97.5405 19.6062ZM98.8688 16.232C98.8688 14.9458 98.4381 13.8233 97.5405 12.9538L96.149 14.3902C96.6167 14.8434 96.8688 15.4276 96.8688 16.232H98.8688ZM97.5519 12.9649C96.6129 12.0259 95.2763 11.648 93.7407 11.648V13.648C94.9785 13.648 95.7113 13.9527 96.1376 14.3791L97.5519 12.9649ZM93.7407 11.648C92.2193 11.648 90.8878 12.0087 89.9821 12.9446L91.4193 14.3354C91.7937 13.9486 92.4889 13.648 93.7407 13.648V11.648ZM89.9821 12.9446C89.1329 13.8221 88.7407 14.9502 88.7407 16.232H90.7407C90.7407 15.3804 90.9885 14.7806 91.4193 14.3354L89.9821 12.9446ZM88.7407 16.232C88.7407 17.5442 89.1257 18.6985 89.9821 19.5834L91.4193 18.1926C90.9958 17.7549 90.7407 17.1385 90.7407 16.232H88.7407ZM89.9821 19.5834C90.8878 20.5193 92.2193 20.88 93.7407 20.88V18.88C92.4889 18.88 91.7937 18.5794 91.4193 18.1926L89.9821 19.5834ZM117.815 12.264L116.835 12.4627L118.779 12.532L117.815 12.264ZM126.295 7.56L127.285 7.70142L127.426 6.71659L126.442 6.5708L126.295 7.56ZM125.271 14.728L124.92 15.6643L126.085 16.1012L126.261 14.8694L125.271 14.728ZM118.807 14.952L118.024 14.3301L118.807 14.952ZM117.943 17.832H118.943L116.943 17.8169L117.943 17.832ZM117.911 19.944L116.911 19.9289L116.911 19.9364V19.944H117.911ZM118.039 25V26H119.086L119.038 24.9541L118.039 25ZM110.391 25L109.393 24.9445L109.334 26H110.391V25ZM110.391 7.528L110.437 6.52903L109.332 6.47883L109.393 7.58271L110.391 7.528ZM116.855 7.528L117.835 7.32934L117.665 6.48895L116.808 6.5291L116.855 7.528ZM118.779 12.532C119.179 11.0911 119.851 10.0963 120.745 9.45058C121.645 8.80032 122.87 8.432 124.503 8.432V6.432C122.574 6.432 120.903 6.86901 119.574 7.82942C118.238 8.79438 117.347 10.2155 116.852 11.996L118.779 12.532ZM124.503 8.432C125.076 8.432 125.624 8.47149 126.149 8.5492L126.442 6.5708C125.814 6.47784 125.168 6.432 124.503 6.432V8.432ZM125.305 7.41858L124.281 14.5866L126.261 14.8694L127.285 7.70142L125.305 7.41858ZM125.622 13.7917C124.039 13.198 122.65 12.864 121.495 12.864V14.864C122.303 14.864 123.431 15.106 124.92 15.6643L125.622 13.7917ZM121.495 12.864C120.077 12.864 118.846 13.2954 118.024 14.3301L119.59 15.5739C119.921 15.1579 120.481 14.864 121.495 14.864V12.864ZM118.024 14.3301C117.269 15.2809 116.943 16.4932 116.943 17.864H118.943C118.943 16.8028 119.193 16.0738 119.59 15.5739L118.024 14.3301ZM118.943 17.864V17.832H116.943V17.864H118.943ZM116.943 17.8169L116.911 19.9289L118.911 19.9592L118.943 17.8471L116.943 17.8169ZM116.911 19.944C116.911 21.4769 116.954 23.1779 117.04 25.0459L119.038 24.9541C118.953 23.1101 118.911 21.4404 118.911 19.944H116.911ZM118.039 24H110.391V26H118.039V24ZM111.39 25.0555C111.561 21.9673 111.647 19.0473 111.647 16.296H109.647C109.647 19.006 109.563 21.8887 109.393 24.9445L111.39 25.0555ZM111.647 16.296C111.647 13.5447 111.561 10.6037 111.39 7.47329L109.393 7.58271C109.563 10.6817 109.647 13.5859 109.647 16.296H111.647ZM110.346 8.52697C111.758 8.59117 112.854 8.624 113.623 8.624V6.624C112.9 6.624 111.84 6.59283 110.437 6.52903L110.346 8.52697ZM113.623 8.624C114.435 8.624 115.531 8.59119 116.902 8.5269L116.808 6.5291C115.449 6.59281 114.39 6.624 113.623 6.624V8.624ZM115.875 7.72666L116.835 12.4627L118.795 12.0653L117.835 7.32934L115.875 7.72666ZM152.339 0.103998L153.339 0.136239L153.372 -0.896002H152.339V0.103998ZM152.339 25V26H153.372L153.339 24.9681L152.339 25ZM145.107 25L144.108 24.975L144.082 26H145.107V25ZM145.203 21.16L146.203 21.185L144.286 20.7628L145.203 21.16ZM142.515 24.328L143.006 25.1992L143.018 25.1923L142.515 24.328ZM134.611 24.136L134.031 24.9508L134.611 24.136ZM132.019 20.936L131.108 21.3487L131.111 21.3541L132.019 20.936ZM132.019 11.944L132.935 12.3463L132.937 12.3412L132.019 11.944ZM134.611 8.52L135.221 9.31263L135.223 9.31096L134.611 8.52ZM142.707 8.264L142.193 9.12149L142.202 9.12696L142.211 9.13224L142.707 8.264ZM145.363 11.464L144.434 11.833L146.363 11.464H145.363ZM145.235 5.608L146.235 5.57627L146.235 5.57523L145.235 5.608ZM145.107 0.103998V-0.896002H144.107V0.103998H145.107ZM144.275 19.08L144.932 19.8341L144.939 19.8282L144.946 19.8221L144.275 19.08ZM144.275 13.768L144.903 12.9896L144.275 13.768ZM139.347 13.896L140.03 14.6271L140.03 14.6263L139.347 13.896ZM151.34 0.0717573C151.211 4.05141 151.147 8.21154 151.147 12.552H153.147C153.147 8.23113 153.211 4.09258 153.339 0.136239L151.34 0.0717573ZM151.147 12.552C151.147 16.8499 151.211 21.0099 151.34 25.0319L153.339 24.9681C153.211 20.9688 153.147 16.8301 153.147 12.552H151.147ZM152.339 24H145.107V26H152.339V24ZM146.107 25.025L146.203 21.185L144.204 21.135L144.108 24.975L146.107 25.025ZM144.286 20.7628C143.739 22.0261 142.975 22.9038 142.012 23.4636L143.018 25.1923C144.403 24.3869 145.43 23.1525 146.121 21.5572L144.286 20.7628ZM142.024 23.4568C141.027 24.0191 139.816 24.32 138.355 24.32V26.32C140.095 26.32 141.657 25.9596 143.006 25.1992L142.024 23.4568ZM138.355 24.32C137.172 24.32 136.128 23.9877 135.191 23.3212L134.031 24.9508C135.313 25.863 136.765 26.32 138.355 26.32V24.32ZM135.191 23.3212C134.236 22.6418 133.48 21.7174 132.928 20.5179L131.111 21.3541C131.796 22.8426 132.768 24.0515 134.031 24.9508L135.191 23.3212ZM132.93 20.5233C132.375 19.2979 132.091 17.9468 132.091 16.456H130.091C130.091 18.2079 130.426 19.8434 131.108 21.3487L132.93 20.5233ZM132.091 16.456C132.091 14.9888 132.374 13.6223 132.935 12.3463L131.104 11.5417C130.427 13.0817 130.091 14.7232 130.091 16.456H132.091ZM132.937 12.3412C133.496 11.0498 134.261 10.0511 135.221 9.31262L134.002 7.72738C132.743 8.69552 131.78 9.97957 131.102 11.5468L132.937 12.3412ZM135.223 9.31096C136.179 8.57179 137.243 8.208 138.451 8.208V6.208C136.8 6.208 135.305 6.71887 133.999 7.72904L135.223 9.31096ZM138.451 8.208C139.973 8.208 141.205 8.52902 142.193 9.12149L143.222 7.40651C141.863 6.59098 140.257 6.208 138.451 6.208V8.208ZM142.211 9.13224C143.183 9.68747 143.93 10.5632 144.434 11.833L146.293 11.095C145.645 9.46344 144.621 8.20586 143.203 7.39576L142.211 9.13224ZM146.363 11.464C146.363 10.2309 146.32 8.26536 146.235 5.57627L144.236 5.63973C144.321 8.32664 144.363 10.2651 144.363 11.464H146.363ZM146.235 5.57523C146.149 2.97242 146.107 1.1525 146.107 0.103998H144.107C144.107 1.18883 144.15 3.03825 144.236 5.64077L146.235 5.57523ZM145.107 1.104H152.339V-0.896002H145.107V1.104ZM141.715 20.944C142.953 20.944 144.055 20.598 144.932 19.8341L143.618 18.3259C143.173 18.714 142.568 18.944 141.715 18.944V20.944ZM144.946 19.8221C145.895 18.9645 146.267 17.7008 146.267 16.264H144.267C144.267 17.3872 143.978 18.0008 143.605 18.3379L144.946 19.8221ZM146.267 16.264C146.267 14.9381 145.872 13.7711 144.903 12.9896L143.648 14.5464C144.001 14.8315 144.267 15.3286 144.267 16.264H146.267ZM144.903 12.9896C144.033 12.2881 142.967 11.968 141.779 11.968V13.968C142.596 13.968 143.195 14.1813 143.648 14.5464L144.903 12.9896ZM141.779 11.968C140.582 11.968 139.523 12.3626 138.664 13.1657L140.03 14.6263C140.495 14.192 141.056 13.968 141.779 13.968V11.968ZM138.665 13.1649C137.797 13.9753 137.387 15.0425 137.387 16.264H139.387C139.387 15.5228 139.618 15.0114 140.03 14.6271L138.665 13.1649ZM137.387 16.264C137.387 17.5435 137.743 18.6787 138.531 19.5785L140.036 18.2615C139.628 17.796 139.387 17.1605 139.387 16.264H137.387ZM138.531 19.5785C139.344 20.5075 140.444 20.944 141.715 20.944V18.944C140.938 18.944 140.418 18.6978 140.036 18.2615L138.531 19.5785ZM163.295 24.584L163.026 25.5473L163.04 25.5508L163.295 24.584ZM158.111 22.28L157.305 21.6881L156.67 22.5527L157.577 23.1255L158.111 22.28ZM161.471 17.704L162.054 16.8915L161.251 16.315L160.665 17.1121L161.471 17.704ZM165.023 19.368L164.743 20.3278L164.75 20.3298L164.756 20.3317L165.023 19.368ZM170.815 19.56L171.262 20.4544L171.27 20.4509L171.277 20.4472L170.815 19.56ZM169.215 17.448L169.157 16.4497L169.153 16.4499L169.215 17.448ZM168.383 17.512L168.284 16.517L168.276 16.5177L168.269 16.5186L168.383 17.512ZM160.319 16.648L159.793 17.4986L159.802 17.5042L159.812 17.5095L160.319 16.648ZM161.215 8.776L161.716 9.6417L161.724 9.63713L161.215 8.776ZM174.111 7.944L173.835 8.90507L173.842 8.9071L173.849 8.90904L174.111 7.944ZM178.687 10.088L179.397 10.792L180.219 9.96378L179.275 9.2787L178.687 10.088ZM175.007 13.8L174.542 14.6849L175.196 15.0296L175.717 14.504L175.007 13.8ZM171.583 12.456L171.327 13.4226L171.338 13.4256L171.35 13.4284L171.583 12.456ZM166.495 12.488L166.007 11.6155L166.495 12.488ZM166.015 14.216L165.391 14.9969L165.408 15.0112L165.427 15.0247L166.015 14.216ZM168.415 14.376L168.347 13.3783L168.331 13.3794L168.316 13.381L168.415 14.376ZM177.055 15.336L177.579 14.4838L177.055 15.336ZM176.191 23.784L176.687 24.6523L176.695 24.6478L176.191 23.784ZM168.767 24.32C167.067 24.32 165.329 24.0874 163.551 23.6172L163.04 25.5508C164.973 26.0619 166.883 26.32 168.767 26.32V24.32ZM163.564 23.6208C161.824 23.1351 160.185 22.4069 158.645 21.4345L157.577 23.1255C159.28 24.2011 161.097 25.0089 163.026 25.5472L163.564 23.6208ZM158.917 22.8719L162.277 18.2959L160.665 17.1121L157.305 21.6881L158.917 22.8719ZM160.888 18.5165C161.977 19.2978 163.268 19.8969 164.743 20.3278L165.304 18.4082C164.005 18.0285 162.928 17.5182 162.054 16.8915L160.888 18.5165ZM164.756 20.3317C166.196 20.7303 167.485 20.944 168.607 20.944V18.944C167.725 18.944 166.624 18.7737 165.29 18.4043L164.756 20.3317ZM168.607 20.944C169.631 20.944 170.548 20.8118 171.262 20.4544L170.368 18.6656C170.059 18.8202 169.504 18.944 168.607 18.944V20.944ZM171.277 20.4472C171.987 20.0778 172.615 19.4501 172.615 18.504H170.615C170.615 18.5045 170.615 18.4968 170.619 18.486C170.623 18.4756 170.625 18.4747 170.618 18.4841C170.601 18.5073 170.534 18.5791 170.354 18.6728L171.277 20.4472ZM172.615 18.504C172.615 17.8723 172.358 17.299 171.831 16.904L170.631 18.504C170.638 18.5091 170.637 18.5095 170.632 18.5039C170.63 18.5013 170.628 18.4978 170.625 18.4936C170.622 18.4894 170.62 18.485 170.618 18.4807C170.613 18.4716 170.612 18.4665 170.613 18.468C170.613 18.47 170.615 18.4812 170.615 18.504H172.615ZM171.831 16.904C171.345 16.5393 170.755 16.416 170.175 16.416V18.416C170.491 18.416 170.606 18.4847 170.631 18.504L171.831 16.904ZM170.175 16.416C169.873 16.416 169.533 16.4276 169.157 16.4497L169.274 18.4463C169.623 18.4258 169.922 18.416 170.175 18.416V16.416ZM169.153 16.4499C168.805 16.4717 168.514 16.4939 168.284 16.517L168.483 18.507C168.679 18.4874 168.942 18.467 169.278 18.4461L169.153 16.4499ZM168.269 16.5186C167.199 16.642 166.096 16.704 164.959 16.704V18.704C166.169 18.704 167.349 18.638 168.498 18.5054L168.269 16.5186ZM164.959 16.704C163.176 16.704 161.821 16.3723 160.827 15.7865L159.812 17.5095C161.207 18.3317 162.945 18.704 164.959 18.704V16.704ZM160.845 15.7974C160.022 15.2889 159.559 14.4741 159.559 13.128H157.559C157.559 15.0246 158.269 16.5565 159.793 17.4986L160.845 15.7974ZM159.559 13.128C159.559 11.6449 160.221 10.5064 161.716 9.64166L160.715 7.91034C158.669 9.09361 157.559 10.8564 157.559 13.128H159.559ZM161.724 9.63713C163.269 8.72476 165.661 8.208 169.023 8.208V6.208C165.516 6.208 162.703 6.73657 160.707 7.91487L161.724 9.63713ZM169.023 8.208C170.61 8.208 172.213 8.43884 173.835 8.90507L174.388 6.98293C172.596 6.46782 170.807 6.208 169.023 6.208V8.208ZM173.849 8.90904C175.471 9.34964 176.884 10.015 178.1 10.8973L179.275 9.2787C177.845 8.24099 176.207 7.47702 174.373 6.97896L173.849 8.90904ZM177.977 9.38396L174.297 13.096L175.717 14.504L179.397 10.792L177.977 9.38396ZM175.473 12.9151C174.201 12.2457 172.981 11.7632 171.817 11.4836L171.35 13.4284C172.318 13.6608 173.381 14.0743 174.542 14.6849L175.473 12.9151ZM171.84 11.4894C170.712 11.1902 169.57 11.04 168.415 11.04V13.04C169.394 13.04 170.364 13.1671 171.327 13.4226L171.84 11.4894ZM168.415 11.04C167.535 11.04 166.719 11.2166 166.007 11.6155L166.984 13.3605C167.338 13.1621 167.802 13.04 168.415 13.04V11.04ZM166.007 11.6155C165.357 11.9795 164.695 12.5843 164.695 13.512H166.695C166.695 13.5345 166.691 13.5579 166.684 13.5771C166.677 13.5949 166.673 13.5969 166.683 13.5836C166.709 13.5513 166.789 13.4697 166.984 13.3605L166.007 11.6155ZM164.695 13.512C164.695 14.0821 164.916 14.6171 165.391 14.9969L166.64 13.4351C166.643 13.4372 166.65 13.444 166.66 13.4564C166.67 13.4689 166.679 13.4833 166.686 13.4982C166.7 13.5299 166.695 13.5411 166.695 13.512H164.695ZM165.427 15.0247C165.871 15.3478 166.391 15.472 166.911 15.472V13.472C166.707 13.472 166.629 13.4255 166.603 13.4073L165.427 15.0247ZM166.911 15.472C167.323 15.472 167.863 15.4362 168.515 15.371L168.316 13.381C167.688 13.4438 167.225 13.472 166.911 13.472V15.472ZM168.484 15.3737C170.036 15.2673 171.171 15.216 171.903 15.216V13.216C171.1 13.216 169.909 13.2714 168.347 13.3783L168.484 15.3737ZM171.903 15.216C174.031 15.216 175.538 15.5777 176.532 16.1882L177.579 14.4838C176.141 13.6009 174.213 13.216 171.903 13.216V15.216ZM176.532 16.1882C177.425 16.7368 177.879 17.5396 177.879 18.76H179.879C179.879 16.9084 179.117 15.4285 177.579 14.4838L176.532 16.1882ZM177.879 18.76C177.879 20.7558 177.133 22.0768 175.687 22.9202L176.695 24.6478C178.833 23.4005 179.879 21.3722 179.879 18.76H177.879ZM175.695 22.9158C174.114 23.8194 171.835 24.32 168.767 24.32V26.32C172.014 26.32 174.685 25.7966 176.687 24.6522L175.695 22.9158Z" fill="white" mask="url(#path-1-outside-1_1_339)"/>
</svg>
