<svg width="155" height="25" viewBox="0 0 155 25" fill="none" xmlns="http://www.w3.org/2000/svg">
<mask id="path-1-outside-1_1_259" maskUnits="userSpaceOnUse" x="-2" y="-1" width="158" height="27" fill="black">
<rect fill="white" x="-2" y="-1" width="158" height="27"/>
<path d="M0.28 21.248C1.00533 20.16 1.60267 19.1467 2.072 18.208C2.56267 17.2693 3.032 16.1813 3.48 14.944C4.99467 15.8187 6.75467 16.5013 8.76 16.992C10.7653 17.4827 12.632 17.728 14.36 17.728C16.1307 17.728 17.3787 17.5787 18.104 17.28C18.8293 16.96 19.192 16.6187 19.192 16.256C19.192 14.9547 17.208 14.304 13.24 14.304C8.888 14.304 5.73067 13.856 3.768 12.96C1.80533 12.0427 0.824 10.5707 0.824 8.544C0.824 5.664 2.01867 3.54133 4.408 2.176C6.79733 0.810665 9.90133 0.127998 13.72 0.127998C15.9387 0.127998 18.2107 0.415998 20.536 0.991999C22.8827 1.54667 24.9947 2.31467 26.872 3.296C26.2533 4.704 25.6027 6.42133 24.92 8.448C24.792 8.87467 24.6853 9.19467 24.6 9.408C23.512 8.53333 21.8693 7.808 19.672 7.232C17.4747 6.63467 15.5333 6.336 13.848 6.336C11.8213 6.336 10.456 6.47467 9.752 6.752C9.048 7.008 8.696 7.392 8.696 7.904C8.696 8.416 9.176 8.832 10.136 9.152C11.1173 9.45067 12.5253 9.6 14.36 9.6C18.8827 9.6 22.168 10.1227 24.216 11.168C26.264 12.192 27.288 13.7707 27.288 15.904C27.288 18.8907 26.2 21.0453 24.024 22.368C21.848 23.6693 18.552 24.32 14.136 24.32C11.768 24.32 9.35733 24.064 6.904 23.552C4.45067 23.0187 2.24267 22.2507 0.28 21.248ZM43.6665 24.32C40.0185 24.32 37.3305 23.488 35.6025 21.824C33.8958 20.1387 33.0425 17.9307 33.0425 15.2C33.0425 12.5333 33.8958 10.368 35.6025 8.704C37.3305 7.04 40.0185 6.208 43.6665 6.208C46.1198 6.208 48.1678 6.61333 49.8105 7.424C51.4745 8.21333 52.7012 9.29067 53.4905 10.656C54.2798 12 54.6745 13.5147 54.6745 15.2C54.6745 17.952 53.7572 20.16 51.9225 21.824C50.1092 23.488 47.3572 24.32 43.6665 24.32ZM43.7945 18.88C45.1812 18.88 46.2158 18.5493 46.8985 17.888C47.5812 17.2267 47.9225 16.3413 47.9225 15.232C47.9225 14.1867 47.5812 13.3333 46.8985 12.672C46.2158 11.9893 45.1812 11.648 43.7945 11.648C42.4078 11.648 41.3945 11.9787 40.7545 12.64C40.1145 13.3013 39.7945 14.1653 39.7945 15.232C39.7945 16.3413 40.1145 17.2267 40.7545 17.888C41.3945 18.5493 42.4078 18.88 43.7945 18.88ZM80.125 6.528C79.9757 9.216 79.901 12.1173 79.901 15.232C79.901 18.368 79.9757 21.2907 80.125 24C78.7597 23.936 77.6823 23.904 76.893 23.904C76.1463 23.904 75.069 23.936 73.661 24L72.733 19.296C72.2423 21.0027 71.4743 22.272 70.429 23.104C69.3837 23.9147 68.1677 24.32 66.781 24.32C65.501 24.32 64.3917 24.0427 63.453 23.488C62.5143 22.912 61.7997 22.144 61.309 21.184C60.8397 20.224 60.605 19.1467 60.605 17.952V13.344C60.605 10.5067 60.5517 8.23467 60.445 6.528H67.645C67.517 9.664 67.453 12.768 67.453 15.84C67.453 16.7787 67.677 17.5253 68.125 18.08C68.5943 18.6347 69.181 18.912 69.885 18.912C70.5463 18.912 71.1223 18.624 71.613 18.048C72.125 17.4507 72.4343 16.64 72.541 15.616V14.88C72.5837 13.216 72.605 12.064 72.605 11.424C72.605 9.952 72.5623 8.32 72.477 6.528H80.125ZM93.639 11.264C94.535 8.04267 96.7643 6.432 100.327 6.432C100.946 6.432 101.543 6.47467 102.119 6.56L101.095 13.728C99.559 13.152 98.3003 12.864 97.319 12.864C96.103 12.864 95.207 13.2267 94.631 13.952C94.055 14.6773 93.767 15.648 93.767 16.864V16.832L93.735 18.944C93.735 20.4587 93.7777 22.144 93.863 24H86.215C86.3857 20.928 86.471 18.0267 86.471 15.296C86.471 12.5653 86.3857 9.64267 86.215 6.528C87.623 6.592 88.7003 6.624 89.447 6.624C90.2363 6.624 91.3137 6.592 92.679 6.528L93.639 11.264ZM113.731 15.264C113.774 16.352 114.115 17.2267 114.755 17.888C115.416 18.5493 116.387 18.88 117.667 18.88C118.371 18.88 119 18.752 119.555 18.496C120.11 18.2187 120.622 17.8133 121.091 17.28C122.904 17.984 125.027 18.592 127.459 19.104C126.755 20.7467 125.56 22.0267 123.875 22.944C122.211 23.8613 120.046 24.32 117.379 24.32C113.816 24.32 111.182 23.488 109.475 21.824C107.768 20.16 106.915 17.9733 106.915 15.264C106.915 12.5547 107.768 10.368 109.475 8.704C111.182 7.04 113.816 6.208 117.379 6.208C120.046 6.208 122.211 6.66667 123.875 7.584C125.56 8.50133 126.755 9.78133 127.459 11.424C125.56 11.8293 123.438 12.4373 121.091 13.248C120.622 12.7147 120.11 12.32 119.555 12.064C119 11.7867 118.371 11.648 117.667 11.648C116.387 11.648 115.416 11.9787 114.755 12.64C114.115 13.3013 113.774 14.176 113.731 15.264ZM150.308 16H139.876C140.047 16.9387 140.463 17.7067 141.124 18.304C141.807 18.88 142.767 19.168 144.004 19.168C144.9 19.168 145.743 18.9973 146.532 18.656C147.321 18.2933 147.951 17.792 148.42 17.152C149.849 17.856 151.748 18.6133 154.116 19.424C153.455 20.9173 152.249 22.112 150.5 23.008C148.772 23.8827 146.511 24.32 143.716 24.32C140.089 24.32 137.401 23.488 135.652 21.824C133.924 20.1387 133.06 17.9307 133.06 15.2C133.06 12.5333 133.924 10.368 135.652 8.704C137.38 7.04 140.068 6.208 143.716 6.208C145.892 6.208 147.78 6.57067 149.38 7.296C150.98 8.02133 152.207 9.03467 153.06 10.336C153.913 11.616 154.34 13.088 154.34 14.752C154.34 15.3067 154.319 15.7227 154.276 16H150.308ZM144.164 11.04C143.097 11.04 142.223 11.2427 141.54 11.648C140.857 12.0533 140.377 12.608 140.1 13.312H147.652C147.396 12.6293 146.98 12.0853 146.404 11.68C145.828 11.2533 145.081 11.04 144.164 11.04Z"/>
</mask>
<path d="M0.28 21.248L-0.55205 20.6933L-1.17495 21.6276L-0.17494 22.1385L0.28 21.248ZM2.072 18.208L1.18577 17.7447L1.1816 17.7527L1.17757 17.7608L2.072 18.208ZM3.48 14.944L3.98007 14.078L2.94618 13.481L2.53973 14.6036L3.48 14.944ZM8.76 16.992L8.52233 17.9633L8.76 16.992ZM18.104 17.28L18.4848 18.2047L18.4963 18.1999L18.5076 18.1949L18.104 17.28ZM3.768 12.96L3.34456 13.866L3.35271 13.8697L3.768 12.96ZM4.408 2.176L4.90414 3.04424L4.408 2.176ZM20.536 0.991999L20.2955 1.96272L20.306 1.96518L20.536 0.991999ZM26.872 3.296L27.7875 3.69827L28.1635 2.8427L27.3353 2.40977L26.872 3.296ZM24.92 8.448L23.9723 8.12878L23.967 8.14463L23.9622 8.16065L24.92 8.448ZM24.6 9.408L23.9734 10.1874L25.0266 11.034L25.5285 9.77939L24.6 9.408ZM19.672 7.232L19.4097 8.19702L19.4184 8.19932L19.672 7.232ZM9.752 6.752L10.0937 7.69179L10.1062 7.68726L10.1185 7.68241L9.752 6.752ZM10.136 9.152L9.81977 10.1007L9.83225 10.1048L9.84484 10.1087L10.136 9.152ZM24.216 11.168L23.7614 12.0587L23.7688 12.0624L24.216 11.168ZM24.024 22.368L24.5373 23.2263L24.5434 23.2225L24.024 22.368ZM6.904 23.552L6.69156 24.5292L6.69971 24.5309L6.904 23.552ZM1.11205 21.8027C1.85506 20.6882 2.4747 19.6387 2.96643 18.6552L1.17757 17.7608C0.730634 18.6547 0.155612 19.6318 -0.55205 20.6933L1.11205 21.8027ZM2.95823 18.6713C3.47389 17.6848 3.96051 16.5542 4.42027 15.2844L2.53973 14.6036C2.10349 15.8084 1.65144 16.8539 1.18577 17.7447L2.95823 18.6713ZM2.97993 15.81C4.58984 16.7396 6.44107 17.4541 8.52233 17.9633L8.99767 16.0207C7.06826 15.5486 5.3995 14.8977 3.98007 14.078L2.97993 15.81ZM8.52233 17.9633C10.5909 18.4695 12.5382 18.728 14.36 18.728V16.728C12.7258 16.728 10.9398 16.4959 8.99767 16.0207L8.52233 17.9633ZM14.36 18.728C16.1379 18.728 17.5614 18.5849 18.4848 18.2047L17.7232 16.3553C17.1959 16.5724 16.1235 16.728 14.36 16.728V18.728ZM18.5076 18.1949C18.9202 18.0129 19.3073 17.7928 19.6054 17.5122C19.9101 17.2253 20.192 16.8038 20.192 16.256H18.192C18.192 16.0709 18.2925 16.0013 18.2346 16.0558C18.1701 16.1166 18.0132 16.2271 17.7004 16.3651L18.5076 18.1949ZM20.192 16.256C20.192 14.9316 19.129 14.2069 18.0156 13.8418C16.8693 13.4659 15.2526 13.304 13.24 13.304V15.304C15.1954 15.304 16.5547 15.4675 17.3924 15.7422C17.809 15.8788 18.0217 16.0194 18.1187 16.1148C18.1903 16.1853 18.192 16.2187 18.192 16.256H20.192ZM13.24 13.304C8.91474 13.304 5.94012 12.8523 4.18329 12.0503L3.35271 13.8697C5.52121 14.8597 8.86126 15.304 13.24 15.304V13.304ZM4.19142 12.0541C3.33867 11.6555 2.76062 11.1662 2.39205 10.6133C2.02623 10.0646 1.824 9.38949 1.824 8.544H-0.176C-0.176 9.72517 0.112438 10.7994 0.72795 11.7227C1.34071 12.6418 2.23466 13.3472 3.34458 13.8659L4.19142 12.0541ZM1.824 8.544C1.824 6.00228 2.84384 4.22155 4.90414 3.04424L3.91186 1.30776C1.19349 2.86111 -0.176 5.32572 -0.176 8.544H1.824ZM4.90414 3.04424C7.09497 1.79234 10.0111 1.128 13.72 1.128V-0.872002C9.79155 -0.872002 6.4997 -0.17101 3.91186 1.30776L4.90414 3.04424ZM13.72 1.128C15.8515 1.128 18.0427 1.40461 20.2956 1.96266L20.7764 0.0213346C18.3787 -0.572611 16.0259 -0.872002 13.72 -0.872002V1.128ZM20.306 1.96518C22.5825 2.50328 24.6146 3.24437 26.4087 4.18222L27.3353 2.40977C25.3748 1.38497 23.1828 0.590053 20.766 0.0188141L20.306 1.96518ZM25.9565 2.89373C25.3223 4.33709 24.6611 6.08393 23.9723 8.12878L25.8677 8.76722C26.5442 6.75874 27.1844 5.07091 27.7875 3.69827L25.9565 2.89373ZM23.9622 8.16065C23.8364 8.57998 23.7399 8.86566 23.6715 9.03661L25.5285 9.77939C25.6308 9.52368 25.7476 9.16935 25.8778 8.73535L23.9622 8.16065ZM25.2266 8.62862C23.9812 7.62745 22.1839 6.85668 19.9256 6.26468L19.4184 8.19932C21.5548 8.75932 23.0428 9.43921 23.9734 10.1874L25.2266 8.62862ZM19.9343 6.26702C17.6793 5.654 15.6468 5.336 13.848 5.336V7.336C15.4199 7.336 17.27 7.61533 19.4097 8.19698L19.9343 6.26702ZM13.848 5.336C12.8152 5.336 11.9309 5.37119 11.203 5.44512C10.4903 5.51749 9.86529 5.63257 9.38548 5.82159L10.1185 7.68241C10.3427 7.59409 10.7523 7.50117 11.405 7.43488C12.0424 7.37015 12.8541 7.336 13.848 7.336V5.336ZM9.41026 5.81221C8.9689 5.9727 8.54459 6.20528 8.22285 6.55627C7.88105 6.92915 7.696 7.39302 7.696 7.904H9.696C9.696 7.89309 9.69737 7.8979 9.69275 7.90965C9.68825 7.92111 9.68533 7.92063 9.69715 7.90772C9.72741 7.87472 9.8311 7.7873 10.0937 7.69179L9.41026 5.81221ZM7.696 7.904C7.696 8.51795 7.99906 9.00728 8.40107 9.35569C8.78153 9.68542 9.28056 9.92094 9.81977 10.1007L10.4522 8.20332C10.0314 8.06305 9.81047 7.93058 9.71093 7.84431C9.63294 7.77672 9.696 7.80205 9.696 7.904H7.696ZM9.84484 10.1087C10.9671 10.4502 12.4914 10.6 14.36 10.6V8.6C12.5593 8.6 11.2676 8.4511 10.4272 8.19533L9.84484 10.1087ZM14.36 10.6C18.8492 10.6 21.9341 11.126 23.7614 12.0587L24.6706 10.2773C22.402 9.11935 18.9162 8.6 14.36 8.6V10.6ZM23.7688 12.0624C24.6678 12.512 25.2851 13.0538 25.681 13.6642C26.0743 14.2705 26.288 15.0039 26.288 15.904H28.288C28.288 14.6708 27.9897 13.5481 27.359 12.5758C26.7309 11.6075 25.8122 10.848 24.6632 10.2736L23.7688 12.0624ZM26.288 15.904C26.288 18.6125 25.3261 20.4063 23.5046 21.5135L24.5434 23.2225C27.0739 21.6844 28.288 19.1688 28.288 15.904H26.288ZM23.5107 21.5098C21.5664 22.6726 18.4882 23.32 14.136 23.32V25.32C18.6158 25.32 22.1296 24.6661 24.5373 23.2262L23.5107 21.5098ZM14.136 23.32C11.8405 23.32 9.49833 23.0719 7.10829 22.5731L6.69971 24.5309C9.21634 25.0561 11.6955 25.32 14.136 25.32V23.32ZM7.11643 22.5748C4.73587 22.0573 2.61106 21.3159 0.734941 20.3575L-0.17494 22.1385C1.87427 23.1854 4.16546 23.98 6.69157 24.5292L7.11643 22.5748ZM35.6025 21.824L34.8998 22.5356L34.9089 22.5443L35.6025 21.824ZM35.6025 8.704L34.9088 7.98367L34.9044 7.988L35.6025 8.704ZM49.8105 7.424L49.368 8.32074L49.3749 8.32418L49.3819 8.3275L49.8105 7.424ZM53.4905 10.656L52.6247 11.1565L52.6282 11.1624L53.4905 10.656ZM51.9225 21.824L51.2507 21.0833L51.2464 21.0872L51.9225 21.824ZM46.8985 12.672L46.1914 13.3791L46.197 13.3847L46.2027 13.3902L46.8985 12.672ZM40.7545 12.64L40.0359 11.9446L40.7545 12.64ZM40.7545 17.888L41.4731 17.1926L40.7545 17.888ZM43.6665 23.32C40.1456 23.32 37.7607 22.514 36.2961 21.1037L34.9089 22.5443C36.9003 24.462 39.8914 25.32 43.6665 25.32V23.32ZM36.3051 21.1125C34.8157 19.6416 34.0425 17.7036 34.0425 15.2H32.0425C32.0425 18.1577 32.976 20.6357 34.8999 22.5355L36.3051 21.1125ZM34.0425 15.2C34.0425 12.7678 34.8108 10.8726 36.3006 9.42L34.9044 7.988C32.9809 9.86341 32.0425 12.2989 32.0425 15.2H34.0425ZM36.2961 9.42432C37.7607 8.01399 40.1456 7.208 43.6665 7.208V5.208C39.8914 5.208 36.9003 6.06601 34.9089 7.98368L36.2961 9.42432ZM43.6665 7.208C46.016 7.208 47.9014 7.59701 49.368 8.32074L50.2531 6.52726C48.4342 5.62966 46.2237 5.208 43.6665 5.208V7.208ZM49.3819 8.3275C50.8943 9.04491 51.9531 9.99472 52.6248 11.1565L54.3562 10.1555C53.4492 8.58661 52.0547 7.38176 50.2391 6.5205L49.3819 8.3275ZM52.6282 11.1624C53.3201 12.3405 53.6745 13.6778 53.6745 15.2H55.6745C55.6745 13.3516 55.2396 11.6595 54.3528 10.1496L52.6282 11.1624ZM53.6745 15.2C53.6745 17.7047 52.8518 19.6311 51.2507 21.0833L52.5943 22.5647C54.6625 20.6889 55.6745 18.1993 55.6745 15.2H53.6745ZM51.2464 21.0872C49.6911 22.5144 47.2289 23.32 43.6665 23.32V25.32C47.4855 25.32 50.5272 24.4616 52.5986 22.5608L51.2464 21.0872ZM43.7945 19.88C45.3224 19.88 46.6545 19.5167 47.5943 18.6062L46.2027 17.1698C45.7772 17.582 45.04 17.88 43.7945 17.88V19.88ZM47.5943 18.6062C48.5041 17.7249 48.9225 16.563 48.9225 15.232H46.9225C46.9225 16.1197 46.6583 16.7284 46.2027 17.1698L47.5943 18.6062ZM48.9225 15.232C48.9225 13.9458 48.4918 12.8233 47.5943 11.9538L46.2027 13.3902C46.6705 13.8434 46.9225 14.4276 46.9225 15.232H48.9225ZM47.6056 11.9649C46.6667 11.0259 45.3301 10.648 43.7945 10.648V12.648C45.0323 12.648 45.765 12.9527 46.1914 13.3791L47.6056 11.9649ZM43.7945 10.648C42.273 10.648 40.9416 11.0087 40.0359 11.9446L41.4731 13.3354C41.8474 12.9486 42.5426 12.648 43.7945 12.648V10.648ZM40.0359 11.9446C39.1867 12.8221 38.7945 13.9502 38.7945 15.232H40.7945C40.7945 14.3804 41.0423 13.7806 41.4731 13.3354L40.0359 11.9446ZM38.7945 15.232C38.7945 16.5442 39.1795 17.6985 40.0359 18.5834L41.4731 17.1926C41.0495 16.7549 40.7945 16.1385 40.7945 15.232H38.7945ZM40.0359 18.5834C40.9416 19.5193 42.273 19.88 43.7945 19.88V17.88C42.5426 17.88 41.8474 17.5794 41.4731 17.1926L40.0359 18.5834ZM80.125 6.528L81.1235 6.58347L81.1821 5.528H80.125V6.528ZM80.125 24L80.0782 24.9989L81.1844 25.0508L81.1235 23.945L80.125 24ZM73.661 24L72.6799 24.1936L72.8465 25.0381L73.7064 24.999L73.661 24ZM72.733 19.296L73.7141 19.1025L71.7719 19.0197L72.733 19.296ZM70.429 23.104L71.0419 23.8943L71.0518 23.8864L70.429 23.104ZM63.453 23.488L62.93 24.3403L62.9371 24.3447L62.9443 24.3489L63.453 23.488ZM61.309 21.184L60.4106 21.6232L60.4145 21.6312L60.4186 21.6391L61.309 21.184ZM60.445 6.528V5.528H59.3806L59.4469 6.59038L60.445 6.528ZM67.645 6.528L68.6442 6.56878L68.6867 5.528H67.645V6.528ZM68.125 18.08L67.3471 18.7083L67.3542 18.7172L67.3616 18.7259L68.125 18.08ZM71.613 18.048L70.8537 17.3972L70.8518 17.3995L71.613 18.048ZM72.541 15.616L73.5356 15.7196L73.541 15.6679V15.616H72.541ZM72.541 14.88L71.5413 14.8544L71.541 14.8672V14.88H72.541ZM72.477 6.528V5.528H71.4282L71.4781 6.57557L72.477 6.528ZM79.1265 6.47253C78.976 9.18159 78.901 12.1016 78.901 15.232H80.901C80.901 12.133 80.9753 9.25041 81.1235 6.58347L79.1265 6.47253ZM78.901 15.232C78.901 18.3836 78.976 21.3248 79.1265 24.055L81.1235 23.945C80.9753 21.2565 80.901 18.3524 80.901 15.232H78.901ZM80.1718 23.0011C78.8004 22.9368 77.7052 22.904 76.893 22.904V24.904C77.6595 24.904 78.719 24.9352 80.0782 24.9989L80.1718 23.0011ZM76.893 22.904C76.1233 22.904 75.028 22.9368 73.6156 23.001L73.7064 24.999C75.11 24.9352 76.1694 24.904 76.893 24.904V22.904ZM74.6421 23.8064L73.7141 19.1025L71.7519 19.4895L72.6799 24.1936L74.6421 23.8064ZM71.7719 19.0197C71.32 20.5916 70.643 21.6556 69.8063 22.3216L71.0518 23.8864C72.3056 22.8884 73.1646 21.4138 73.6941 19.5723L71.7719 19.0197ZM69.8162 22.3138C68.9551 22.9816 67.9573 23.32 66.781 23.32V25.32C68.3781 25.32 69.8123 24.8477 71.0418 23.8942L69.8162 22.3138ZM66.781 23.32C65.6485 23.32 64.7213 23.0759 63.9617 22.6271L62.9443 24.3489C64.062 25.0094 65.3535 25.32 66.781 25.32V23.32ZM63.976 22.6357C63.1905 22.1536 62.6046 21.5216 62.1994 20.7289L60.4186 21.6391C60.9948 22.7664 61.8382 23.6704 62.93 24.3403L63.976 22.6357ZM62.2074 20.7448C61.8124 19.937 61.605 19.0126 61.605 17.952H59.605C59.605 19.2808 59.8669 20.511 60.4106 21.6232L62.2074 20.7448ZM61.605 17.952V13.344H59.605V17.952H61.605ZM61.605 13.344C61.605 10.4975 61.5516 8.20208 61.4431 6.46562L59.4469 6.59038C59.5518 8.26725 59.605 10.5159 59.605 13.344H61.605ZM60.445 7.528H67.645V5.528H60.445V7.528ZM66.6458 6.48722C66.5173 9.63651 66.453 12.7541 66.453 15.84H68.453C68.453 12.7819 68.5167 9.69149 68.6442 6.56878L66.6458 6.48722ZM66.453 15.84C66.453 16.9345 66.7154 17.9263 67.3471 18.7083L68.9029 17.4517C68.6386 17.1243 68.453 16.6229 68.453 15.84H66.453ZM67.3616 18.7259C68.0139 19.4969 68.8762 19.912 69.885 19.912V17.912C69.4858 17.912 69.1747 17.7725 68.8884 17.4341L67.3616 18.7259ZM69.885 19.912C70.8834 19.912 71.7241 19.4597 72.3742 18.6965L70.8518 17.3995C70.5205 17.7883 70.2093 17.912 69.885 17.912V19.912ZM72.3723 18.6988C73.0518 17.906 73.4143 16.8839 73.5356 15.7196L71.5464 15.5124C71.4543 16.3961 71.1982 16.9954 70.8537 17.3972L72.3723 18.6988ZM73.541 15.616V14.88H71.541V15.616H73.541ZM73.5407 14.9056C73.5833 13.2424 73.605 12.0785 73.605 11.424H71.605C71.605 12.0495 71.584 13.1896 71.5413 14.8544L73.5407 14.9056ZM73.605 11.424C73.605 9.93316 73.5618 8.285 73.4759 6.48043L71.4781 6.57557C71.5629 8.355 71.605 9.97084 71.605 11.424H73.605ZM72.477 7.528H80.125V5.528H72.477V7.528ZM93.639 11.264L92.6589 11.4627L94.6024 11.532L93.639 11.264ZM102.119 6.56L103.109 6.70142L103.25 5.71659L102.266 5.5708L102.119 6.56ZM101.095 13.728L100.744 14.6643L101.909 15.1012L102.085 13.8694L101.095 13.728ZM94.631 13.952L93.8479 13.3301L94.631 13.952ZM93.767 16.832H94.767L92.7671 16.8169L93.767 16.832ZM93.735 18.944L92.7351 18.9289L92.735 18.9364V18.944H93.735ZM93.863 24V25H94.91L94.8619 23.9541L93.863 24ZM86.215 24L85.2165 23.9445L85.1579 25H86.215V24ZM86.215 6.528L86.2604 5.52903L85.156 5.47883L85.2165 6.58271L86.215 6.528ZM92.679 6.528L93.6591 6.32934L93.4887 5.48895L92.6322 5.5291L92.679 6.528ZM94.6024 11.532C95.0032 10.0911 95.6749 9.09628 96.5686 8.45058C97.4687 7.80032 98.6939 7.432 100.327 7.432V5.432C98.3974 5.432 96.7267 5.86901 95.3974 6.82942C94.0618 7.79438 93.1708 9.21554 92.6756 10.996L94.6024 11.532ZM100.327 7.432C100.9 7.432 101.448 7.47149 101.972 7.5492L102.266 5.5708C101.638 5.47784 100.992 5.432 100.327 5.432V7.432ZM101.129 6.41858L100.105 13.5866L102.085 13.8694L103.109 6.70142L101.129 6.41858ZM101.446 12.7917C99.8629 12.198 98.4742 11.864 97.319 11.864V13.864C98.1265 13.864 99.2551 14.106 100.744 14.6643L101.446 12.7917ZM97.319 11.864C95.901 11.864 94.6695 12.2954 93.8479 13.3301L95.4141 14.5739C95.7444 14.1579 96.305 13.864 97.319 13.864V11.864ZM93.8479 13.3301C93.0929 14.2809 92.767 15.4932 92.767 16.864H94.767C94.767 15.8028 95.0171 15.0738 95.4141 14.5739L93.8479 13.3301ZM94.767 16.864V16.832H92.767V16.864H94.767ZM92.7671 16.8169L92.7351 18.9289L94.7349 18.9592L94.7669 16.8471L92.7671 16.8169ZM92.735 18.944C92.735 20.4769 92.7782 22.1779 92.8641 24.0459L94.8619 23.9541C94.7772 22.1101 94.735 20.4404 94.735 18.944H92.735ZM93.863 23H86.215V25H93.863V23ZM87.2135 24.0555C87.385 20.9673 87.471 18.0473 87.471 15.296H85.471C85.471 18.006 85.3863 20.8887 85.2165 23.9445L87.2135 24.0555ZM87.471 15.296C87.471 12.5447 87.385 9.60367 87.2135 6.47329L85.2165 6.58271C85.3863 9.68166 85.471 12.5859 85.471 15.296H87.471ZM86.1696 7.52697C87.582 7.59117 88.6773 7.624 89.447 7.624V5.624C88.7234 5.624 87.664 5.59283 86.2604 5.52903L86.1696 7.52697ZM89.447 7.624C90.2592 7.624 91.3544 7.59119 92.7258 7.5269L92.6322 5.5291C91.273 5.59281 90.2135 5.624 89.447 5.624V7.624ZM91.6989 6.72666L92.6589 11.4627L94.6191 11.0653L93.6591 6.32934L91.6989 6.72666ZM113.731 15.264L112.732 15.2248L112.73 15.264L112.732 15.3032L113.731 15.264ZM114.755 17.888L114.036 18.5834L114.042 18.5893L114.048 18.5951L114.755 17.888ZM119.555 18.496L119.974 19.404L119.988 19.3974L120.002 19.3904L119.555 18.496ZM121.091 17.28L121.453 16.3478L120.802 16.095L120.34 16.6194L121.091 17.28ZM127.459 19.104L128.378 19.4979L128.859 18.3767L127.665 18.1255L127.459 19.104ZM123.875 22.944L123.397 22.0657L123.392 22.0683L123.875 22.944ZM109.475 21.824L108.777 22.54L109.475 21.824ZM109.475 8.704L110.173 9.42L109.475 8.704ZM123.875 7.584L123.392 8.45975L123.397 8.46232L123.875 7.584ZM127.459 11.424L127.668 12.402L128.857 12.148L128.378 11.0301L127.459 11.424ZM121.091 13.248L120.34 13.9086L120.783 14.4122L121.418 14.1932L121.091 13.248ZM119.555 12.064L119.108 12.9584L119.122 12.9654L119.136 12.972L119.555 12.064ZM114.755 12.64L114.048 11.9329L114.042 11.9387L114.036 11.9446L114.755 12.64ZM112.732 15.3032C112.782 16.5894 113.195 17.7138 114.036 18.5834L115.474 17.1926C115.035 16.7395 114.765 16.1146 114.73 15.2248L112.732 15.3032ZM114.048 18.5951C114.957 19.5045 116.222 19.88 117.667 19.88V17.88C116.552 17.88 115.875 17.5941 115.462 17.1809L114.048 18.5951ZM117.667 19.88C118.494 19.88 119.269 19.7292 119.974 19.404L119.136 17.588C118.731 17.7748 118.248 17.88 117.667 17.88V19.88ZM120.002 19.3904C120.688 19.0477 121.3 18.5568 121.842 17.9406L120.34 16.6194C119.944 17.0699 119.532 17.3897 119.108 17.6016L120.002 19.3904ZM120.729 18.2122C122.605 18.9404 124.782 19.5623 127.253 20.0826L127.665 18.1255C125.272 17.6217 123.204 17.0276 121.453 16.3478L120.729 18.2122ZM126.54 18.7101C125.931 20.1306 124.901 21.2473 123.397 22.0657L124.353 23.8223C126.22 22.8061 127.579 21.3627 128.378 19.4979L126.54 18.7101ZM123.392 22.0683C121.924 22.8778 119.941 23.32 117.379 23.32V25.32C120.15 25.32 122.498 24.8449 124.358 23.8197L123.392 22.0683ZM117.379 23.32C113.95 23.32 111.618 22.5171 110.173 21.108L108.777 22.54C110.745 24.4589 113.683 25.32 117.379 25.32V23.32ZM110.173 21.108C108.687 19.6586 107.915 17.744 107.915 15.264H105.915C105.915 18.2027 106.85 20.6614 108.777 22.54L110.173 21.108ZM107.915 15.264C107.915 12.784 108.687 10.8694 110.173 9.42L108.777 7.988C106.85 9.86657 105.915 12.3253 105.915 15.264H107.915ZM110.173 9.42C111.618 8.01089 113.95 7.208 117.379 7.208V5.208C113.683 5.208 110.745 6.06911 108.777 7.988L110.173 9.42ZM117.379 7.208C119.941 7.208 121.924 7.6502 123.392 8.45974L124.358 6.70826C122.498 5.68313 120.15 5.208 117.379 5.208V7.208ZM123.397 8.46232C124.901 9.28075 125.931 10.3974 126.54 11.8179L128.378 11.0301C127.579 9.16531 126.22 7.72192 124.353 6.70568L123.397 8.46232ZM127.25 10.446C125.302 10.8618 123.14 11.4823 120.764 12.3028L121.418 14.1932C123.736 13.3924 125.818 12.7968 127.668 12.402L127.25 10.446ZM121.842 12.5874C121.295 11.9663 120.674 11.4792 119.974 11.156L119.136 12.972C119.545 13.1608 119.948 13.463 120.34 13.9086L121.842 12.5874ZM120.002 11.1696C119.291 10.8139 118.505 10.648 117.667 10.648V12.648C118.237 12.648 118.71 12.7594 119.108 12.9584L120.002 11.1696ZM117.667 10.648C116.222 10.648 114.957 11.0235 114.048 11.9329L115.462 13.3471C115.875 12.9339 116.552 12.648 117.667 12.648V10.648ZM114.036 11.9446C113.195 12.8142 112.782 13.9386 112.732 15.2248L114.73 15.3032C114.765 14.4134 115.035 13.7885 115.474 13.3354L114.036 11.9446ZM139.876 16V15H138.678L138.892 16.1789L139.876 16ZM141.124 18.304L140.454 19.0461L140.466 19.0574L140.479 19.0683L141.124 18.304ZM146.532 18.656L146.929 19.5739L146.939 19.5694L146.95 19.5647L146.532 18.656ZM148.42 17.152L148.862 16.2549L148.11 15.8844L147.614 16.5606L148.42 17.152ZM154.116 19.424L155.03 19.8289L155.472 18.8313L154.44 18.4779L154.116 19.424ZM150.5 23.008L150.952 23.9002L150.956 23.898L150.5 23.008ZM135.652 21.824L134.954 22.5399L134.963 22.5486L135.652 21.824ZM135.652 8.704L136.346 9.42432L135.652 8.704ZM149.38 7.296L148.967 8.20678L149.38 7.296ZM153.06 10.336L152.224 10.8844L152.228 10.8907L153.06 10.336ZM154.276 16V17H155.134L155.264 16.1521L154.276 16ZM141.54 11.648L142.051 12.5079L141.54 11.648ZM140.1 13.312L139.17 12.9455L138.631 14.312H140.1V13.312ZM147.652 13.312V14.312H149.095L148.588 12.9609L147.652 13.312ZM146.404 11.68L145.809 12.4836L145.819 12.4908L145.829 12.4978L146.404 11.68ZM150.308 15H139.876V17H150.308V15ZM138.892 16.1789C139.099 17.3184 139.617 18.29 140.454 19.0461L141.794 17.5619C141.309 17.1233 140.994 16.5589 140.86 15.8211L138.892 16.1789ZM140.479 19.0683C141.401 19.8461 142.621 20.168 144.004 20.168V18.168C142.912 18.168 142.212 17.9139 141.769 17.5397L140.479 19.0683ZM144.004 20.168C145.031 20.168 146.009 19.9716 146.929 19.5739L146.135 17.7381C145.476 18.023 144.769 18.168 144.004 18.168V20.168ZM146.95 19.5647C147.878 19.1379 148.647 18.5332 149.226 17.7434L147.614 16.5606C147.254 17.0508 146.764 17.4488 146.115 17.7473L146.95 19.5647ZM147.978 18.0491C149.461 18.7794 151.404 19.5525 153.792 20.3701L154.44 18.4779C152.092 17.6742 150.238 16.9326 148.862 16.2549L147.978 18.0491ZM153.202 19.0191C152.651 20.2627 151.633 21.3043 150.044 22.118L150.956 23.898C152.866 22.9197 154.258 21.572 155.03 19.8289L153.202 19.0191ZM150.048 22.1158C148.508 22.8953 146.418 23.32 143.716 23.32V25.32C146.603 25.32 149.036 24.8701 150.952 23.9002L150.048 22.1158ZM143.716 23.32C140.22 23.32 137.83 22.5154 136.341 21.0994L134.963 22.5486C136.973 24.4606 139.959 25.32 143.716 25.32V23.32ZM136.35 21.1081C134.841 19.6364 134.06 17.6998 134.06 15.2H132.06C132.06 18.1615 133.007 20.6409 134.954 22.5399L136.35 21.1081ZM134.06 15.2C134.06 12.7717 134.836 10.8778 136.346 9.42432L134.958 7.98368C133.012 9.85817 132.06 12.295 132.06 15.2H134.06ZM136.346 9.42432C137.81 8.01399 140.195 7.208 143.716 7.208V5.208C139.941 5.208 136.95 6.06601 134.958 7.98368L136.346 9.42432ZM143.716 7.208C145.783 7.208 147.524 7.55253 148.967 8.20678L149.793 6.38522C148.036 5.5888 146.001 5.208 143.716 5.208V7.208ZM148.967 8.20678C150.417 8.86424 151.487 9.76128 152.224 10.8844L153.896 9.78764C152.926 8.30805 151.543 7.17843 149.793 6.38522L148.967 8.20678ZM152.228 10.8907C152.963 11.9929 153.34 13.2686 153.34 14.752H155.34C155.34 12.9074 154.864 11.2391 153.892 9.7813L152.228 10.8907ZM153.34 14.752C153.34 15.2948 153.318 15.6486 153.288 15.8479L155.264 16.1521C155.319 15.7967 155.34 15.3185 155.34 14.752H153.34ZM154.276 15H150.308V17H154.276V15ZM144.164 10.04C142.977 10.04 141.911 10.2648 141.029 10.7881L142.051 12.5079C142.534 12.2206 143.217 12.04 144.164 12.04V10.04ZM141.029 10.7881C140.166 11.3008 139.532 12.0243 139.17 12.9455L141.03 13.6785C141.222 13.1917 141.549 12.8059 142.051 12.5079L141.029 10.7881ZM140.1 14.312H147.652V12.312H140.1V14.312ZM148.588 12.9609C148.264 12.0969 147.726 11.3875 146.98 10.8622L145.829 12.4978C146.234 12.7832 146.528 13.1617 146.716 13.6631L148.588 12.9609ZM146.999 10.8764C146.208 10.2905 145.235 10.04 144.164 10.04V12.04C144.927 12.04 145.448 12.2162 145.809 12.4836L146.999 10.8764Z" fill="white" mask="url(#path-1-outside-1_1_259)"/>
</svg>
